{"glyphs":{"0":{"ha":4331,"x_min":21,"x_max":4312,"o":"m 1980 901 q 2042 846 2017 887 q 2067 727 2067 804 q 2054 632 2067 670 q 2018 570 2041 592 q 1974 544 2002 553 q 1898 535 1948 535 l 1792 535 l 1792 911 l 1896 911 q 1980 901 1954 911 m 2383 341 q 2404 316 2397 332 q 2412 279 2412 299 q 2395 227 2412 244 q 2351 208 2377 208 q 2308 226 2326 208 q 2291 276 2291 245 q 2309 333 2291 315 q 2351 350 2327 350 q 2383 341 2370 350 m 3560 897 q 3620 828 3600 872 q 3640 723 3640 783 q 3593 576 3640 627 q 3472 524 3545 524 q 3352 576 3400 524 q 3303 715 3303 627 q 3354 875 3303 827 q 3473 922 3403 922 q 3560 897 3520 922 m 1335 1175 l 4312 1175 l 3495 3 l 1335 3 q 1542 265 1468 111 q 1615 589 1615 419 q 1542 913 1615 760 q 1335 1175 1468 1067 m 2102 346 l 2102 367 l 1984 367 l 1984 191 l 2007 191 l 2007 271 l 2089 271 l 2089 292 l 2007 292 l 2007 346 l 2102 346 m 2121 627 q 2134 726 2134 669 q 2115 843 2134 793 q 2057 927 2096 895 q 1984 962 2028 952 q 1897 970 1952 970 l 1727 970 l 1727 477 l 1905 477 q 1984 486 1947 477 q 2043 510 2018 494 q 2087 555 2067 526 q 2121 627 2108 585 m 2424 231 q 2435 279 2435 252 q 2425 326 2435 305 q 2395 358 2414 347 q 2351 370 2376 370 q 2291 345 2314 370 q 2267 277 2267 320 q 2277 233 2267 253 q 2307 200 2287 212 q 2351 188 2326 188 q 2394 199 2375 188 q 2424 231 2414 210 m 2593 477 l 2593 535 l 2291 535 l 2291 703 l 2563 703 l 2563 760 l 2291 760 l 2291 911 l 2582 911 l 2582 970 l 2226 970 l 2226 477 l 2593 477 m 2721 191 l 2745 191 l 2745 367 l 2723 367 l 2723 229 l 2631 367 l 2607 367 l 2607 191 l 2629 191 l 2629 329 l 2721 191 m 3052 346 l 3052 367 l 2913 367 l 2913 346 l 2970 346 l 2970 191 l 2994 191 l 2994 346 l 3052 346 m 3088 477 l 3151 477 l 3151 970 l 3063 970 l 2945 627 q 2920 548 2925 566 q 2896 621 2916 559 l 2779 970 l 2681 970 l 2681 477 l 2744 477 l 2744 897 l 2886 477 l 2945 477 l 3088 889 l 3088 477 m 3592 499 q 3677 589 3646 529 q 3708 722 3708 648 q 3679 854 3708 796 q 3595 945 3651 912 q 3472 978 3540 978 q 3302 909 3368 978 q 3236 717 3236 840 q 3265 594 3236 652 q 3347 502 3294 534 q 3472 469 3402 469 q 3592 499 3537 469 m 480 1282 q 550 1312 480 1282 q 773 1341 620 1341 q 1066 1282 926 1341 q 1306 1122 1205 1222 q 1466 882 1407 1021 q 1526 589 1526 743 q 1466 297 1526 436 q 1306 57 1407 157 q 1066 -104 1205 -44 q 773 -163 926 -163 q 480 -104 620 -163 q 241 57 341 -44 q 81 297 140 157 q 21 589 21 436 q 81 882 21 743 q 241 1122 140 1021 q 480 1282 341 1222 m 516 -19 q 578 -45 516 -19 q 773 -71 639 -71 q 1030 -19 907 -71 q 1241 122 1152 33 q 1381 333 1329 210 q 1434 589 1434 455 q 1381 846 1434 724 q 1241 1057 1329 968 q 1030 1198 1152 1145 q 773 1250 907 1250 q 516 1198 639 1250 q 306 1057 394 1145 q 165 846 217 968 q 113 589 113 724 q 165 333 113 455 q 306 122 217 210 q 516 -19 394 33 m 688 333 q 647 162 654 238 q 650 111 645 143 q 657 60 655 78 q 650 20 659 42 q 625 1 640 5 q 595 5 610 -2 q 568 22 581 12 q 544 45 555 33 q 527 108 528 69 q 539 198 526 147 q 571 303 552 248 q 622 424 591 358 q 682 547 653 490 q 748 672 711 604 q 813 787 786 740 q 872 890 840 833 q 918 970 905 946 q 946 1025 935 1001 q 962 1067 958 1050 q 965 1095 967 1084 q 954 1105 963 1105 q 927 1098 944 1106 q 885 1072 911 1090 q 826 1023 859 1053 q 429 566 669 877 q 260 345 338 444 q 222 317 240 317 q 191 330 195 317 l 191 340 q 241 480 210 401 q 308 637 272 560 q 378 779 344 714 q 441 880 413 844 q 481 908 469 916 l 481 905 q 416 757 457 848 q 396 656 378 675 q 481 716 414 637 q 570 824 500 738 q 692 968 640 909 q 791 1073 744 1027 q 887 1149 843 1122 q 960 1179 930 1176 q 1008 1168 989 1182 q 1032 1126 1027 1154 q 1031 1057 1038 1097 q 1004 971 1024 1017 q 906 777 970 894 q 783 546 842 661 q 688 333 724 432 m 885 602 q 880 607 885 602 q 875 626 875 612 q 885 650 875 640 q 909 661 895 661 q 933 650 923 661 q 943 626 943 640 q 933 602 943 612 q 909 591 923 591 q 885 602 895 591 m 1200 465 q 1220 474 1208 473 q 1238 467 1232 474 q 1247 450 1246 460 q 1241 429 1249 439 l 1240 427 q 1152 347 1174 365 q 1095 313 1122 324 q 1069 307 1080 307 q 1046 316 1056 307 q 1035 346 1036 326 q 1038 382 1034 362 q 1042 395 1039 385 q 977 317 1004 336 q 935 307 960 306 q 913 312 922 307 q 899 330 901 317 l 898 330 q 898 332 898 331 l 898 336 l 898 338 l 899 339 q 783 326 831 304 l 783 326 q 765 348 771 332 q 762 376 761 358 q 781 444 764 404 q 836 547 803 498 q 856 564 844 559 q 879 564 868 568 q 892 548 890 559 q 887 523 895 534 q 833 420 846 460 q 828 393 827 402 l 829 389 q 888 411 853 387 q 945 475 927 439 q 1145 987 997 618 q 1181 1027 1158 1025 q 1200 1021 1192 1028 q 1209 1002 1206 1015 l 1210 1002 q 1210 1000 1210 1001 l 1210 990 l 1210 988 q 1193 939 1208 981 q 1149 826 1174 887 q 1001 452 1058 593 q 1024 478 1020 473 q 1069 512 1048 504 q 1117 505 1097 523 l 1118 505 q 1127 480 1126 495 q 1125 450 1128 467 q 1106 386 1121 429 l 1105 380 q 1109 384 1107 382 q 1200 465 1148 414 m 758 229 q 770 220 766 225 q 773 207 773 216 q 769 194 773 200 q 758 184 764 186 q 740 180 749 180 q 720 184 729 180 q 707 195 713 186 q 702 210 702 202 l 713 212 q 717 201 715 203 q 726 194 720 197 q 740 191 731 191 q 751 193 746 191 q 759 199 757 195 q 762 206 762 203 q 760 214 762 210 q 751 218 758 216 q 745 220 751 218 q 735 223 740 222 q 718 229 722 227 q 709 237 711 232 q 705 248 705 242 q 709 260 705 254 q 721 269 713 266 q 737 273 729 273 q 754 269 746 273 q 766 260 762 266 q 770 245 770 254 l 759 245 q 753 258 758 254 q 737 262 747 262 q 722 258 726 262 q 717 249 717 254 q 720 241 717 244 q 739 235 723 238 q 758 229 748 233 m 796 260 l 796 271 l 867 271 l 867 260 l 838 260 l 838 182 l 825 182 l 825 260 l 796 260 m 951 220 l 951 271 l 963 271 l 963 220 q 960 198 963 207 q 949 185 957 190 q 928 180 941 180 q 907 184 916 180 q 897 197 900 188 q 893 220 893 206 l 893 271 l 905 271 l 905 220 q 907 203 905 208 q 914 194 909 197 q 927 191 919 191 q 945 197 941 191 q 951 220 951 204 m 1056 263 q 1067 248 1064 256 q 1070 227 1070 238 q 1067 209 1070 220 q 1061 196 1065 201 q 1053 188 1057 191 q 1043 183 1048 184 q 1029 182 1035 182 l 996 182 l 996 271 l 1027 271 q 1043 270 1036 271 q 1056 263 1051 268 m 1055 210 q 1058 227 1058 220 q 1053 249 1058 241 q 1042 258 1048 255 q 1027 260 1038 260 l 1008 260 l 1008 193 l 1027 193 q 1041 194 1038 193 q 1049 199 1046 196 q 1055 210 1053 203 m 1114 182 l 1102 182 l 1102 271 l 1114 271 l 1114 182 m 1210 267 q 1225 250 1219 260 q 1230 227 1230 239 q 1224 202 1230 216 q 1209 186 1219 191 q 1187 180 1198 180 q 1165 186 1175 180 q 1149 203 1154 193 q 1145 225 1145 212 q 1156 260 1145 248 q 1187 273 1169 273 q 1210 267 1200 273 m 1209 200 q 1218 227 1218 210 q 1214 245 1218 237 q 1203 258 1210 254 q 1187 262 1195 262 q 1166 254 1176 262 q 1157 225 1157 245 q 1166 200 1157 209 q 1187 191 1174 191 q 1209 200 1201 191 m 3977 484 l 4312 3 l 3642 3 l 3977 484 z "},"1":{"ha":4331,"x_min":21,"x_max":4312,"o":"m 1980 901 q 2042 846 2017 887 q 2067 727 2067 804 q 2054 632 2067 670 q 2018 570 2041 592 q 1974 544 2002 553 q 1898 535 1948 535 l 1792 535 l 1792 911 l 1896 911 q 1980 901 1954 911 m 2383 341 q 2404 316 2397 332 q 2412 279 2412 299 q 2395 227 2412 244 q 2351 208 2377 208 q 2308 226 2326 208 q 2291 276 2291 245 q 2309 333 2291 316 q 2351 350 2327 350 q 2383 341 2370 350 m 3560 897 q 3620 828 3600 872 q 3640 723 3640 783 q 3593 576 3640 627 q 3472 524 3545 524 q 3352 576 3400 524 q 3303 715 3303 627 q 3354 875 3303 827 q 3473 922 3403 922 q 3560 897 3520 922 m 1335 1175 l 4312 1175 l 3495 3 l 1335 3 q 1542 265 1468 111 q 1615 589 1615 419 q 1542 913 1615 760 q 1335 1175 1468 1067 m 2102 346 l 2102 367 l 1984 367 l 1984 191 l 2007 191 l 2007 271 l 2089 271 l 2089 292 l 2007 292 l 2007 346 l 2102 346 m 2121 627 q 2134 726 2134 669 q 2115 843 2134 793 q 2057 927 2096 895 q 1984 962 2028 952 q 1897 970 1952 970 l 1727 970 l 1727 477 l 1905 477 q 1984 486 1947 477 q 2043 510 2018 494 q 2087 555 2067 526 q 2121 627 2108 585 m 2424 231 q 2435 279 2435 252 q 2425 326 2435 305 q 2395 358 2414 347 q 2351 370 2376 370 q 2291 345 2314 370 q 2267 277 2267 320 q 2277 233 2267 253 q 2307 200 2287 212 q 2351 188 2326 188 q 2394 199 2375 188 q 2424 231 2414 210 m 2593 477 l 2593 535 l 2291 535 l 2291 703 l 2563 703 l 2563 760 l 2291 760 l 2291 911 l 2582 911 l 2582 970 l 2226 970 l 2226 477 l 2593 477 m 2721 191 l 2745 191 l 2745 367 l 2723 367 l 2723 229 l 2631 367 l 2607 367 l 2607 191 l 2629 191 l 2629 329 l 2721 191 m 3052 346 l 3052 367 l 2913 367 l 2913 346 l 2970 346 l 2970 191 l 2994 191 l 2994 346 l 3052 346 m 3088 477 l 3151 477 l 3151 970 l 3063 970 l 2945 627 q 2920 548 2925 566 q 2896 621 2916 559 l 2779 970 l 2681 970 l 2681 477 l 2744 477 l 2744 897 l 2886 477 l 2945 477 l 3088 889 l 3088 477 m 3592 499 q 3677 589 3646 529 q 3708 722 3708 648 q 3679 854 3708 796 q 3595 945 3651 912 q 3472 978 3540 978 q 3302 909 3368 978 q 3236 717 3236 840 q 3265 594 3236 652 q 3347 502 3294 534 q 3472 469 3402 469 q 3592 499 3537 469 m 480 1282 q 550 1312 480 1282 q 773 1341 620 1341 q 1066 1282 926 1341 q 1306 1122 1205 1222 q 1466 882 1407 1021 q 1526 589 1526 743 q 1466 297 1526 436 q 1306 57 1407 157 q 1066 -104 1205 -44 q 773 -163 926 -163 q 480 -104 620 -163 q 241 57 341 -44 q 81 297 140 157 q 21 589 21 436 q 81 882 21 743 q 241 1122 140 1021 q 480 1282 341 1222 m 516 -19 q 578 -45 516 -19 q 773 -71 639 -71 q 1030 -19 907 -71 q 1241 122 1152 33 q 1381 333 1329 210 q 1434 589 1434 455 q 1381 846 1434 724 q 1241 1057 1329 968 q 1030 1198 1152 1145 q 773 1250 907 1250 q 516 1198 639 1250 q 306 1057 394 1145 q 165 846 217 968 q 113 589 113 724 q 165 333 113 455 q 306 122 217 210 q 516 -19 394 33 m 688 333 q 647 162 654 238 q 650 111 645 143 q 657 60 655 78 q 650 20 659 42 q 625 1 640 5 q 595 5 610 -2 q 568 22 581 12 q 544 45 555 33 q 527 108 528 69 q 539 198 526 147 q 571 303 552 248 q 622 424 591 358 q 682 547 653 490 q 748 672 711 604 q 813 787 786 740 q 872 890 840 833 q 918 970 905 946 q 946 1025 935 1001 q 962 1067 958 1050 q 965 1095 967 1084 q 954 1105 963 1105 q 927 1098 944 1106 q 885 1072 911 1090 q 826 1023 859 1053 q 429 566 669 877 q 260 345 338 444 q 222 317 240 317 q 191 330 195 317 l 191 340 q 241 480 210 401 q 308 637 272 560 q 378 779 344 714 q 441 880 413 844 q 481 908 469 916 l 481 905 q 416 757 457 848 q 396 656 378 675 q 481 716 414 637 q 570 824 500 738 q 692 968 640 909 q 791 1073 744 1027 q 887 1149 843 1122 q 960 1179 930 1176 q 1008 1168 989 1182 q 1032 1126 1027 1154 q 1031 1057 1038 1097 q 1004 971 1024 1017 q 906 777 970 894 q 783 546 842 661 q 688 333 724 432 m 885 602 q 880 607 885 602 q 875 626 875 612 q 885 650 875 640 q 909 661 895 661 q 933 650 923 661 q 943 626 943 640 q 933 602 943 612 q 909 591 923 591 q 885 602 895 591 m 1200 465 q 1220 474 1208 473 q 1238 467 1232 474 q 1247 450 1246 460 q 1241 429 1249 439 l 1240 427 q 1152 347 1174 365 q 1095 313 1122 324 q 1069 307 1080 307 q 1046 316 1055 307 q 1035 346 1036 326 q 1038 382 1034 362 q 1042 395 1039 385 q 977 317 1004 336 q 935 307 960 306 q 913 312 922 307 q 899 330 901 317 l 898 330 q 898 332 898 331 l 898 336 l 898 338 l 899 339 q 783 326 831 304 l 783 326 q 765 348 771 332 q 762 376 761 358 q 781 444 764 404 q 836 547 803 498 q 856 564 844 559 q 879 564 868 568 q 892 548 890 559 q 886 523 895 536 q 833 420 846 462 q 828 393 827 402 l 829 389 l 829 389 q 888 411 853 387 q 945 475 927 439 q 1145 987 997 618 q 1181 1027 1158 1025 q 1200 1021 1192 1028 q 1209 1002 1206 1015 l 1210 1002 q 1210 1000 1210 1001 l 1210 990 l 1210 988 q 1193 939 1208 981 q 1149 826 1174 887 q 1001 452 1058 593 q 1024 478 1020 473 q 1069 512 1048 504 q 1117 505 1097 523 l 1118 505 q 1127 480 1126 495 q 1125 450 1128 467 q 1106 386 1121 429 l 1105 380 q 1109 384 1107 382 q 1200 465 1148 414 m 758 229 q 770 220 766 225 q 773 207 773 216 q 769 194 773 200 q 758 184 764 186 q 740 180 749 180 q 720 184 729 180 q 707 195 713 186 q 702 210 702 202 l 713 212 q 717 201 715 203 q 726 194 720 197 q 740 191 731 191 q 751 193 746 191 q 759 199 757 195 q 762 206 762 203 q 760 214 762 210 q 751 218 758 216 q 745 220 751 218 q 735 223 740 222 q 718 229 722 227 q 709 237 711 232 q 705 248 705 242 q 709 260 705 254 q 721 269 713 266 q 737 273 729 273 q 754 269 746 273 q 766 260 762 266 q 770 245 770 254 l 759 245 q 753 258 758 254 q 737 262 747 262 q 722 258 726 262 q 717 249 717 254 q 720 241 717 244 q 739 235 723 238 q 758 229 748 233 m 796 260 l 796 271 l 867 271 l 867 260 l 838 260 l 838 182 l 825 182 l 825 260 l 796 260 m 951 220 l 951 271 l 963 271 l 963 220 q 960 198 963 207 q 949 185 957 190 q 928 180 941 180 q 907 184 916 180 q 897 197 900 188 q 893 220 893 206 l 893 271 l 905 271 l 905 220 q 907 203 905 208 q 914 194 909 197 q 927 191 919 191 q 945 197 941 191 q 951 220 951 204 m 1056 263 q 1067 248 1064 256 q 1070 227 1070 238 q 1067 209 1070 220 q 1061 196 1065 201 q 1053 188 1057 191 q 1043 183 1048 184 q 1029 182 1035 182 l 996 182 l 996 271 l 1027 271 q 1043 270 1036 271 q 1056 263 1051 268 m 1055 210 q 1058 227 1058 220 q 1053 249 1058 241 q 1042 258 1048 255 q 1027 260 1038 260 l 1008 260 l 1008 193 l 1027 193 q 1041 194 1038 193 q 1049 199 1046 196 q 1055 210 1053 203 m 1114 182 l 1102 182 l 1102 271 l 1114 271 l 1114 182 m 1210 267 q 1225 250 1219 260 q 1230 227 1230 241 q 1224 202 1230 214 q 1209 186 1219 191 q 1187 180 1198 180 q 1165 186 1175 180 q 1149 203 1154 193 q 1145 225 1145 212 q 1156 260 1145 248 q 1187 273 1169 273 q 1210 267 1200 273 m 1209 200 q 1218 227 1218 210 q 1214 245 1218 237 q 1203 258 1210 254 q 1187 262 1195 262 q 1166 254 1176 262 q 1157 225 1157 245 q 1166 200 1157 210 q 1187 191 1175 191 q 1209 200 1201 191 m 3977 484 l 4312 3 l 3642 3 l 3977 484 z "},"2":{"ha":4331,"x_min":21,"x_max":4312,"o":"m 1980 901 q 2042 846 2017 887 q 2067 727 2067 804 q 2054 632 2067 670 q 2018 570 2041 592 q 1974 544 2002 553 q 1898 535 1948 535 l 1792 535 l 1792 911 l 1896 911 q 1980 901 1954 911 m 2383 341 q 2404 316 2397 332 q 2412 279 2412 299 q 2395 227 2412 244 q 2351 208 2377 208 q 2308 226 2326 208 q 2291 276 2291 245 q 2309 333 2291 315 q 2351 350 2327 350 q 2383 341 2370 350 m 3560 897 q 3620 828 3600 872 q 3640 723 3640 783 q 3593 576 3640 627 q 3472 524 3545 524 q 3352 576 3400 524 q 3303 715 3303 627 q 3354 875 3303 827 q 3473 922 3403 922 q 3560 897 3520 922 m 1335 1175 l 4312 1175 l 3495 3 l 1335 3 q 1542 265 1468 111 q 1615 589 1615 419 q 1542 913 1615 760 q 1335 1175 1468 1067 m 2102 346 l 2102 367 l 1984 367 l 1984 191 l 2007 191 l 2007 271 l 2089 271 l 2089 292 l 2007 292 l 2007 346 l 2102 346 m 2121 627 q 2134 726 2134 669 q 2115 843 2134 793 q 2057 927 2096 895 q 1984 962 2028 952 q 1897 970 1952 970 l 1727 970 l 1727 477 l 1905 477 q 1984 486 1947 477 q 2043 510 2018 494 q 2087 555 2067 526 q 2121 627 2108 585 m 2424 231 q 2435 279 2435 252 q 2425 326 2435 305 q 2395 358 2414 347 q 2351 370 2376 370 q 2291 345 2314 370 q 2267 277 2267 320 q 2277 233 2267 253 q 2307 200 2287 212 q 2351 188 2326 188 q 2394 199 2375 188 q 2424 231 2414 210 m 2593 477 l 2593 535 l 2291 535 l 2291 703 l 2563 703 l 2563 760 l 2291 760 l 2291 911 l 2582 911 l 2582 970 l 2226 970 l 2226 477 l 2593 477 m 2745 191 l 2745 367 l 2723 367 l 2723 229 l 2631 367 l 2607 367 l 2607 191 l 2629 191 l 2629 329 l 2721 191 l 2745 191 m 2994 346 l 3052 346 l 3052 367 l 2913 367 l 2913 346 l 2970 346 l 2970 191 l 2994 191 l 2994 346 m 3088 477 l 3151 477 l 3151 970 l 3063 970 l 2945 627 q 2920 548 2925 566 q 2896 621 2916 559 l 2779 970 l 2681 970 l 2681 477 l 2744 477 l 2744 897 l 2886 477 l 2945 477 l 3088 889 l 3088 477 m 3472 469 q 3592 499 3537 469 q 3677 589 3647 530 q 3708 722 3708 648 q 3679 854 3708 796 q 3595 945 3651 912 q 3472 978 3540 978 q 3302 909 3368 978 q 3236 717 3236 840 q 3265 594 3236 652 q 3347 502 3294 534 q 3472 469 3402 469 m 480 1282 q 550 1312 480 1282 q 773 1341 620 1341 q 1066 1282 926 1341 q 1306 1122 1205 1222 q 1466 882 1407 1021 q 1526 589 1526 743 q 1466 297 1526 436 q 1306 57 1407 157 q 1066 -104 1205 -44 q 773 -163 926 -163 q 480 -104 620 -163 q 241 57 341 -44 q 81 297 140 157 q 21 589 21 436 q 81 882 21 743 q 241 1122 140 1021 q 480 1282 341 1222 m 516 -19 q 578 -45 516 -19 q 773 -71 639 -71 q 1030 -19 907 -71 q 1241 122 1152 33 q 1381 333 1329 210 q 1434 589 1434 455 q 1381 846 1434 724 q 1241 1057 1329 968 q 1030 1198 1152 1145 q 773 1250 907 1250 q 516 1198 639 1250 q 306 1057 394 1145 q 165 846 217 968 q 113 589 113 724 q 165 333 113 455 q 306 122 217 210 q 516 -19 394 33 m 688 333 q 647 162 654 238 q 650 111 645 143 q 657 60 655 78 q 650 20 659 42 q 625 1 640 5 q 595 5 610 -2 q 568 22 581 12 q 544 45 555 33 q 527 108 528 69 q 539 198 526 147 q 571 303 552 248 q 622 424 591 358 q 682 547 653 490 q 748 672 711 604 q 813 787 786 740 q 872 890 840 833 q 918 970 905 946 q 946 1025 935 1001 q 962 1067 958 1050 q 965 1095 967 1084 q 954 1105 963 1105 q 927 1098 944 1106 q 885 1072 911 1090 q 826 1023 859 1053 q 429 566 669 877 q 260 345 338 444 q 222 317 240 317 q 191 330 195 317 l 191 340 q 241 480 210 401 q 308 637 272 560 q 378 779 344 714 q 441 880 413 844 q 481 908 469 916 l 481 905 q 416 757 457 848 q 396 656 378 675 q 481 716 414 637 q 570 824 500 738 q 692 968 640 909 q 791 1073 744 1027 q 887 1149 843 1122 q 960 1179 930 1176 q 1008 1168 989 1182 q 1032 1126 1027 1154 q 1031 1057 1038 1097 q 1004 971 1024 1017 q 906 777 970 894 q 783 546 842 661 q 688 333 724 432 m 885 602 q 880 607 885 602 q 875 626 875 612 q 885 650 875 640 q 909 661 895 661 q 933 650 923 661 q 943 626 943 640 q 933 602 943 612 q 909 591 923 591 q 885 602 895 591 m 1200 465 q 1220 474 1208 473 q 1238 467 1232 474 q 1247 450 1246 460 q 1241 429 1249 439 l 1240 427 q 1152 347 1174 365 q 1095 313 1122 324 q 1069 307 1080 307 q 1046 316 1055 307 q 1035 346 1036 326 q 1038 382 1034 362 q 1042 395 1039 385 q 977 317 1004 336 q 935 307 960 306 q 913 312 922 307 q 899 330 901 317 l 898 330 q 898 332 898 331 l 898 336 l 898 338 l 899 339 q 783 326 831 304 l 783 326 q 765 348 771 332 q 762 376 761 358 q 781 444 764 404 q 836 547 803 498 q 856 564 844 559 q 879 564 868 568 q 892 547 890 559 q 886 523 895 535 q 833 420 846 462 q 828 393 827 402 l 829 389 l 829 389 q 888 411 853 387 q 945 475 927 439 q 1145 987 997 618 q 1181 1027 1158 1025 q 1200 1021 1192 1028 q 1209 1002 1206 1015 l 1210 1002 q 1210 1000 1210 1001 l 1210 990 l 1210 988 q 1193 939 1208 981 q 1149 826 1174 887 q 1001 452 1058 593 q 1024 478 1020 473 q 1069 512 1048 504 q 1117 505 1097 523 l 1118 505 q 1127 480 1126 495 q 1125 450 1128 467 q 1106 386 1121 429 l 1105 380 q 1109 384 1107 382 q 1200 465 1148 414 m 758 229 q 770 220 766 225 q 773 207 773 216 q 769 194 773 200 q 758 184 764 186 q 740 180 749 180 q 720 184 729 180 q 707 195 713 186 q 702 210 702 202 l 713 212 q 717 201 715 203 q 726 194 720 197 q 740 191 732 191 q 751 193 746 191 q 760 199 758 196 q 762 206 762 201 q 760 214 762 210 q 751 218 758 216 q 745 220 751 218 q 735 223 740 222 q 718 229 722 227 q 709 237 711 232 q 705 248 705 242 q 709 260 705 254 q 721 269 713 266 q 737 273 729 273 q 754 269 746 273 q 766 260 762 266 q 770 245 770 254 l 759 245 q 753 258 758 254 q 737 262 747 262 q 722 258 726 262 q 717 249 717 254 q 720 241 717 244 q 739 235 723 238 q 758 229 748 233 m 796 260 l 796 271 l 867 271 l 867 260 l 838 260 l 838 182 l 825 182 l 825 260 l 796 260 m 951 220 l 951 271 l 963 271 l 963 220 q 960 198 963 207 q 949 185 957 190 q 928 180 941 180 q 907 184 916 180 q 897 197 900 188 q 893 220 893 206 l 893 271 l 905 271 l 905 220 q 907 203 905 208 q 914 194 909 197 q 927 191 919 191 q 945 197 941 191 q 951 220 951 204 m 1056 263 q 1067 248 1064 256 q 1070 227 1070 238 q 1067 209 1070 220 q 1061 196 1065 201 q 1053 188 1057 191 q 1043 183 1048 184 q 1029 182 1035 182 l 996 182 l 996 271 l 1027 271 q 1043 270 1036 271 q 1056 263 1051 268 m 1055 210 q 1058 227 1058 220 q 1053 248 1058 240 q 1042 258 1048 256 q 1027 260 1038 260 l 1008 260 l 1008 193 l 1027 193 q 1041 194 1038 193 q 1049 199 1046 196 q 1055 210 1053 203 m 1114 182 l 1102 182 l 1102 271 l 1114 271 l 1114 182 m 1210 267 q 1225 250 1219 260 q 1230 227 1230 241 q 1224 202 1230 214 q 1209 186 1219 191 q 1187 180 1198 180 q 1165 186 1175 180 q 1149 203 1154 193 q 1145 225 1145 212 q 1156 260 1145 248 q 1187 273 1169 273 q 1210 267 1200 273 m 1209 200 q 1218 227 1218 210 q 1214 245 1218 237 q 1203 258 1210 254 q 1187 262 1195 262 q 1166 254 1176 262 q 1157 225 1157 245 q 1166 200 1157 209 q 1187 191 1174 191 q 1209 200 1201 191 m 3977 484 l 4312 3 l 3642 3 l 3977 484 z "},"3":{"ha":4331,"x_min":21,"x_max":4312,"o":"m 1980 901 q 2042 846 2017 887 q 2067 727 2067 804 q 2054 632 2067 670 q 2018 570 2041 592 q 1974 544 2002 553 q 1898 535 1948 535 l 1792 535 l 1792 911 l 1896 911 q 1980 901 1954 911 m 2383 341 q 2404 316 2397 332 q 2412 279 2412 299 q 2395 227 2412 244 q 2351 208 2377 208 q 2308 226 2326 208 q 2291 276 2291 245 q 2309 333 2291 316 q 2351 350 2327 350 q 2383 341 2370 350 m 3560 897 q 3620 828 3600 872 q 3640 723 3640 783 q 3593 576 3640 627 q 3472 524 3545 524 q 3352 576 3400 524 q 3303 715 3303 627 q 3354 875 3303 827 q 3473 922 3403 922 q 3560 897 3520 922 m 1335 1175 l 4312 1175 l 3495 3 l 1335 3 q 1542 265 1468 111 q 1615 589 1615 419 q 1542 913 1615 760 q 1335 1175 1468 1067 m 2102 346 l 2102 367 l 1984 367 l 1984 191 l 2007 191 l 2007 271 l 2089 271 l 2089 292 l 2007 292 l 2007 346 l 2102 346 m 2121 627 q 2134 726 2134 669 q 2115 843 2134 793 q 2057 927 2096 895 q 1984 962 2028 952 q 1897 970 1952 970 l 1727 970 l 1727 477 l 1905 477 q 1984 486 1947 477 q 2043 510 2018 494 q 2087 555 2067 526 q 2121 627 2108 585 m 2424 231 q 2435 279 2435 252 q 2425 326 2435 305 q 2395 358 2414 347 q 2351 370 2376 370 q 2291 345 2314 370 q 2267 277 2267 320 q 2277 233 2267 253 q 2307 200 2287 212 q 2351 188 2326 188 q 2394 199 2375 188 q 2424 231 2414 210 m 2593 477 l 2593 535 l 2291 535 l 2291 703 l 2563 703 l 2563 760 l 2291 760 l 2291 911 l 2582 911 l 2582 970 l 2226 970 l 2226 477 l 2593 477 m 2721 191 l 2745 191 l 2745 367 l 2723 367 l 2723 229 l 2631 367 l 2607 367 l 2607 191 l 2629 191 l 2629 329 l 2721 191 m 3052 346 l 3052 367 l 2913 367 l 2913 346 l 2970 346 l 2970 191 l 2994 191 l 2994 346 l 3052 346 m 3151 477 l 3151 970 l 3063 970 l 2945 627 q 2920 548 2925 566 q 2896 621 2916 559 l 2779 970 l 2681 970 l 2681 477 l 2744 477 l 2744 897 l 2886 477 l 2945 477 l 3088 889 l 3088 477 l 3151 477 m 3472 469 q 3592 499 3537 469 q 3677 589 3647 530 q 3708 722 3708 648 q 3678 854 3708 795 q 3595 945 3650 913 q 3472 978 3540 978 q 3302 909 3368 978 q 3236 717 3236 840 q 3265 594 3236 652 q 3347 502 3294 534 q 3472 469 3402 469 m 480 1282 q 550 1312 480 1282 q 773 1341 620 1341 q 1066 1282 926 1341 q 1306 1122 1205 1222 q 1466 882 1407 1021 q 1526 589 1526 743 q 1466 297 1526 436 q 1306 57 1407 157 q 1066 -104 1205 -44 q 773 -163 926 -163 q 480 -104 620 -163 q 241 57 341 -44 q 81 297 140 157 q 21 589 21 436 q 81 882 21 743 q 241 1122 140 1021 q 480 1282 341 1222 m 516 -19 q 578 -45 516 -19 q 773 -71 639 -71 q 1030 -19 907 -71 q 1241 122 1152 33 q 1381 333 1329 210 q 1434 589 1434 455 q 1381 846 1434 724 q 1241 1057 1329 968 q 1030 1198 1152 1145 q 773 1250 907 1250 q 516 1198 639 1250 q 306 1057 394 1145 q 165 846 217 968 q 113 589 113 724 q 165 333 113 455 q 306 122 217 210 q 516 -19 394 33 m 688 333 q 647 162 654 238 q 650 111 645 143 q 657 60 655 78 q 650 20 659 42 q 625 1 640 5 q 595 5 610 -2 q 568 22 581 12 q 544 45 555 33 q 527 108 528 69 q 539 198 526 147 q 571 303 552 248 q 622 424 591 358 q 682 547 653 490 q 748 672 711 604 q 813 787 786 740 q 872 890 840 833 q 918 970 905 946 q 946 1025 935 1001 q 962 1067 958 1050 q 965 1095 967 1084 q 954 1105 963 1105 q 927 1098 944 1106 q 885 1072 911 1090 q 826 1023 859 1053 q 429 566 669 877 q 260 345 338 444 q 222 317 240 317 q 191 330 195 317 l 191 340 q 241 480 210 401 q 308 637 272 560 q 378 779 344 714 q 441 880 413 844 q 481 908 469 916 l 481 905 q 416 757 457 848 q 396 656 378 675 q 481 716 414 637 q 570 824 500 738 q 692 968 640 909 q 791 1073 744 1027 q 887 1149 843 1122 q 960 1179 930 1176 q 1008 1168 989 1182 q 1032 1126 1027 1154 q 1031 1057 1038 1097 q 1004 971 1024 1017 q 906 777 970 894 q 783 546 842 661 q 688 333 724 432 m 885 602 q 880 607 885 602 q 875 626 875 612 q 885 650 875 640 q 909 661 895 661 q 933 650 923 661 q 943 626 943 640 q 933 602 943 612 q 909 591 923 591 q 885 602 895 591 m 1200 465 q 1220 474 1208 473 q 1238 467 1232 474 q 1247 450 1246 460 q 1241 429 1249 439 l 1240 427 q 1152 347 1174 365 q 1095 313 1122 324 q 1069 307 1080 307 q 1046 316 1056 307 q 1035 346 1036 326 q 1038 382 1034 362 q 1042 395 1039 385 q 977 317 1004 336 q 935 307 960 306 q 913 312 922 307 q 899 330 901 317 l 898 330 q 898 332 898 331 l 898 336 l 898 338 l 899 339 q 783 326 831 304 l 783 326 q 765 348 771 332 q 762 376 761 358 q 781 444 764 404 q 836 547 803 498 q 856 564 844 559 q 879 564 868 568 q 892 548 890 559 q 887 523 895 534 q 833 420 846 460 q 828 393 827 402 l 829 389 l 829 389 q 888 411 853 387 q 945 475 927 439 q 1145 987 997 618 q 1181 1027 1158 1025 q 1200 1021 1192 1029 q 1209 1002 1206 1015 l 1210 1002 q 1210 1000 1210 1001 l 1210 990 l 1210 988 q 1193 939 1208 981 q 1149 826 1174 887 q 1001 452 1058 593 q 1024 478 1020 473 q 1069 512 1049 505 q 1117 505 1097 523 l 1118 505 q 1127 480 1126 495 q 1125 450 1128 467 q 1106 386 1121 429 l 1105 380 q 1109 384 1107 382 q 1200 465 1148 414 m 758 229 q 769 220 764 225 q 773 207 773 215 q 769 194 773 200 q 758 184 764 186 q 740 180 749 180 q 720 184 729 180 q 707 195 713 186 q 702 210 702 202 l 713 212 q 717 201 715 203 q 726 194 720 197 q 740 191 731 191 q 751 193 746 191 q 759 199 757 195 q 762 206 762 203 q 760 214 762 210 q 751 218 758 216 q 745 220 751 218 q 735 223 740 222 q 718 229 722 227 q 709 237 711 232 q 705 248 705 242 q 709 260 705 254 q 721 269 713 266 q 737 273 729 273 q 754 269 746 273 q 766 260 762 266 q 770 245 770 254 l 759 245 q 753 258 758 254 q 737 262 747 262 q 722 258 726 262 q 717 249 717 254 q 720 241 717 244 q 738 235 723 238 q 758 229 749 233 m 796 260 l 796 271 l 867 271 l 867 260 l 838 260 l 838 182 l 825 182 l 825 260 l 796 260 m 951 220 l 951 271 l 963 271 l 963 220 q 960 198 963 207 q 949 185 957 190 q 928 180 941 180 q 907 184 916 180 q 897 197 900 188 q 893 220 893 206 l 893 271 l 905 271 l 905 220 q 907 203 905 208 q 914 194 909 197 q 927 191 919 191 q 945 197 941 191 q 951 220 951 204 m 1056 263 q 1067 248 1064 256 q 1070 227 1070 238 q 1067 209 1070 220 q 1061 196 1065 201 q 1053 188 1057 191 q 1043 183 1048 184 q 1028 182 1035 182 l 996 182 l 996 271 l 1027 271 q 1043 270 1036 271 q 1056 263 1051 268 m 1055 210 q 1058 227 1058 220 q 1053 249 1058 242 q 1042 258 1050 254 q 1027 260 1038 260 l 1008 260 l 1008 193 l 1027 193 q 1041 194 1038 193 q 1049 199 1046 196 q 1055 210 1053 203 m 1114 182 l 1102 182 l 1102 271 l 1114 271 l 1114 182 m 1210 267 q 1225 250 1219 260 q 1230 227 1230 239 q 1224 202 1230 216 q 1209 186 1219 191 q 1187 180 1198 180 q 1165 186 1175 180 q 1149 203 1154 193 q 1145 225 1145 212 q 1156 260 1145 248 q 1187 273 1169 273 q 1210 267 1200 273 m 1209 200 q 1218 227 1218 210 q 1214 245 1218 237 q 1203 258 1210 254 q 1187 262 1195 262 q 1166 254 1176 262 q 1157 225 1157 245 q 1166 200 1157 209 q 1187 191 1175 191 q 1209 200 1201 191 m 3977 484 l 4312 3 l 3642 3 l 3977 484 z "},"4":{"ha":4331,"x_min":21,"x_max":4312,"o":"m 1980 901 q 2042 846 2017 887 q 2067 727 2067 804 q 2054 632 2067 670 q 2018 570 2041 592 q 1974 544 2002 553 q 1898 535 1948 535 l 1792 535 l 1792 911 l 1896 911 q 1980 901 1954 911 m 2383 341 q 2404 316 2397 332 q 2412 279 2412 299 q 2395 227 2412 244 q 2351 208 2377 208 q 2308 226 2326 208 q 2291 276 2291 245 q 2309 333 2291 316 q 2351 350 2327 350 q 2383 341 2370 350 m 3560 897 q 3620 828 3600 872 q 3640 723 3640 783 q 3593 576 3640 627 q 3472 524 3545 524 q 3352 576 3400 524 q 3303 715 3303 627 q 3354 875 3303 827 q 3473 922 3403 922 q 3560 897 3520 922 m 1335 1175 l 4312 1175 l 3495 3 l 1335 3 q 1542 265 1468 111 q 1615 589 1615 419 q 1542 913 1615 760 q 1335 1175 1468 1067 m 2102 346 l 2102 367 l 1984 367 l 1984 191 l 2007 191 l 2007 271 l 2089 271 l 2089 292 l 2007 292 l 2007 346 l 2102 346 m 2121 627 q 2134 726 2134 669 q 2115 843 2134 793 q 2057 927 2096 895 q 1984 962 2028 952 q 1897 970 1952 970 l 1727 970 l 1727 477 l 1905 477 q 1984 486 1947 477 q 2043 510 2018 494 q 2087 555 2067 526 q 2121 627 2108 585 m 2424 231 q 2435 279 2435 252 q 2425 326 2435 305 q 2395 358 2414 347 q 2351 370 2376 370 q 2291 345 2314 370 q 2267 277 2267 320 q 2277 233 2267 253 q 2307 200 2287 212 q 2351 188 2326 188 q 2394 199 2375 188 q 2424 231 2414 210 m 2593 477 l 2593 535 l 2291 535 l 2291 703 l 2563 703 l 2563 760 l 2291 760 l 2291 911 l 2582 911 l 2582 970 l 2226 970 l 2226 477 l 2593 477 m 2721 191 l 2745 191 l 2745 367 l 2723 367 l 2723 229 l 2631 367 l 2607 367 l 2607 191 l 2629 191 l 2629 329 l 2721 191 m 3052 346 l 3052 367 l 2913 367 l 2913 346 l 2970 346 l 2970 191 l 2994 191 l 2994 346 l 3052 346 m 3151 477 l 3151 970 l 3063 970 l 2945 627 q 2920 548 2925 566 q 2896 621 2916 559 l 2779 970 l 2681 970 l 2681 477 l 2744 477 l 2744 897 l 2886 477 l 2945 477 l 3088 889 l 3088 477 l 3151 477 m 3472 469 q 3592 499 3537 469 q 3677 589 3647 530 q 3708 722 3708 648 q 3679 854 3708 796 q 3595 945 3651 912 q 3472 978 3540 978 q 3302 909 3368 978 q 3236 717 3236 840 q 3265 594 3236 652 q 3347 502 3294 534 q 3472 469 3402 469 m 480 1282 q 550 1312 480 1282 q 773 1341 620 1341 q 1066 1282 926 1341 q 1306 1122 1205 1222 q 1466 882 1407 1021 q 1526 589 1526 743 q 1466 297 1526 436 q 1306 57 1407 157 q 1066 -104 1205 -44 q 773 -163 926 -163 q 480 -104 620 -163 q 241 57 341 -44 q 81 297 140 157 q 21 589 21 436 q 81 882 21 743 q 241 1122 140 1021 q 480 1282 341 1222 m 516 -19 q 578 -45 516 -19 q 773 -71 639 -71 q 1030 -19 907 -71 q 1241 122 1152 33 q 1381 333 1329 210 q 1434 589 1434 455 q 1381 846 1434 724 q 1241 1057 1329 968 q 1030 1198 1152 1145 q 773 1250 907 1250 q 516 1198 639 1250 q 306 1057 394 1145 q 165 846 217 968 q 113 589 113 724 q 165 333 113 455 q 306 122 217 210 q 516 -19 394 33 m 688 333 q 647 162 654 238 q 650 111 645 143 q 657 60 655 78 q 650 20 659 42 q 625 1 640 5 q 595 5 610 -2 q 568 22 581 12 q 544 45 555 33 q 527 108 528 69 q 539 198 526 147 q 571 303 552 248 q 622 424 591 358 q 682 547 653 490 q 748 672 711 604 q 813 787 786 740 q 872 890 840 833 q 918 970 905 946 q 946 1025 935 1001 q 962 1067 958 1050 q 965 1095 967 1084 q 954 1105 963 1105 q 927 1098 944 1106 q 885 1072 911 1090 q 826 1023 859 1053 q 429 566 669 877 q 260 345 338 444 q 222 317 240 317 q 191 330 195 317 l 191 340 q 241 480 210 401 q 308 637 272 560 q 378 779 344 714 q 441 880 413 844 q 481 908 469 916 l 481 905 q 416 757 457 848 q 396 656 378 675 q 481 716 414 637 q 570 824 500 738 q 692 968 640 909 q 791 1073 744 1027 q 887 1149 843 1122 q 960 1179 930 1176 q 1008 1168 989 1182 q 1032 1126 1027 1154 q 1031 1057 1038 1097 q 1004 971 1024 1017 q 906 777 970 894 q 783 546 842 661 q 688 333 724 432 m 885 602 q 880 607 885 602 q 875 626 875 612 q 885 650 875 640 q 909 661 895 661 q 933 650 923 661 q 943 626 943 640 q 933 602 943 612 q 909 591 923 591 q 885 602 895 591 m 1200 465 q 1220 474 1208 473 q 1238 467 1231 474 q 1247 450 1246 460 q 1241 429 1249 439 l 1240 427 q 1152 347 1174 365 q 1095 313 1122 324 q 1069 307 1080 307 q 1046 316 1056 307 q 1035 346 1036 326 q 1038 382 1034 362 q 1041 390 1039 385 q 1042 395 1042 395 q 977 317 1005 338 q 935 307 960 306 q 913 312 922 307 q 899 330 901 317 l 898 330 q 898 332 898 331 l 898 336 l 898 338 l 899 339 q 783 326 831 304 l 783 326 q 765 348 771 332 q 762 376 761 358 q 781 444 764 401 q 836 547 805 500 q 856 564 844 559 q 879 564 868 568 q 892 548 890 559 q 887 523 895 534 q 833 420 847 462 q 828 393 827 401 l 829 389 q 888 411 853 387 q 945 475 927 439 q 1145 987 997 618 q 1181 1027 1158 1025 l 1182 1027 q 1200 1021 1192 1029 q 1209 1002 1206 1015 l 1210 1002 q 1210 1000 1210 1001 l 1210 990 l 1210 988 q 1193 939 1208 981 q 1150 826 1160 852 q 1001 452 1092 677 q 1024 478 1020 473 q 1069 512 1048 504 q 1117 505 1098 523 l 1118 505 q 1127 480 1126 495 q 1125 450 1128 467 q 1106 386 1121 429 l 1105 380 q 1109 384 1107 382 q 1200 465 1148 414 m 758 229 q 769 220 764 225 q 773 207 773 215 q 769 194 773 200 q 758 184 764 186 q 740 180 749 180 q 720 184 729 180 q 707 195 713 186 q 702 210 702 202 l 713 212 q 717 201 715 203 q 726 194 720 197 q 740 191 731 191 q 751 193 746 191 q 759 199 757 195 q 762 206 762 203 q 760 214 762 210 q 751 218 758 216 q 745 220 751 218 q 735 223 740 222 q 718 229 722 227 q 709 237 711 232 q 705 248 705 242 q 709 260 705 254 q 721 269 713 266 q 737 273 729 273 q 754 269 746 273 q 766 260 762 266 q 770 245 770 254 l 759 245 q 753 258 758 254 q 737 262 747 262 q 722 258 726 262 q 717 249 717 254 q 720 241 717 244 q 739 235 723 238 q 758 229 748 233 m 796 260 l 796 271 l 867 271 l 867 260 l 838 260 l 838 182 l 825 182 l 825 260 l 796 260 m 951 220 l 951 271 l 963 271 l 963 220 q 960 198 963 207 q 949 185 957 190 q 928 180 941 180 q 907 184 916 180 q 897 197 900 188 q 893 220 893 206 l 893 271 l 905 271 l 905 220 q 907 203 905 208 q 914 194 909 197 q 927 191 919 191 q 945 197 941 191 q 951 220 951 204 m 1056 263 q 1067 248 1064 256 q 1070 227 1070 238 q 1067 209 1070 220 q 1061 196 1065 201 q 1053 188 1057 191 q 1043 183 1048 184 q 1029 182 1035 182 l 996 182 l 996 271 l 1027 271 q 1043 270 1036 271 q 1056 263 1051 268 m 1055 210 q 1058 227 1058 220 q 1053 249 1058 242 q 1042 258 1050 254 q 1027 260 1038 260 l 1008 260 l 1008 193 l 1027 193 q 1041 194 1038 193 q 1049 199 1046 196 q 1055 210 1053 203 m 1114 182 l 1102 182 l 1102 271 l 1114 271 l 1114 182 m 1210 267 q 1225 250 1219 260 q 1230 227 1230 239 q 1224 202 1230 216 q 1209 186 1219 191 q 1187 180 1198 180 q 1165 186 1175 180 q 1149 203 1154 193 q 1145 225 1145 212 q 1156 260 1145 248 q 1187 273 1169 273 q 1210 267 1200 273 m 1209 200 q 1218 227 1218 210 q 1214 245 1218 237 q 1203 258 1210 254 q 1187 262 1195 262 q 1166 254 1176 262 q 1157 225 1157 245 q 1166 200 1157 209 q 1187 191 1174 191 q 1209 200 1201 191 m 3977 484 l 4312 3 l 3642 3 l 3977 484 z "},"5":{"ha":4331,"x_min":21,"x_max":4312,"o":"m 1980 901 q 2042 846 2017 887 q 2067 727 2067 804 q 2054 632 2067 670 q 2018 570 2041 592 q 1974 544 2002 553 q 1898 535 1948 535 l 1792 535 l 1792 911 l 1896 911 q 1980 901 1954 911 m 2383 341 q 2404 316 2397 332 q 2412 279 2412 299 q 2395 227 2412 244 q 2351 208 2377 208 q 2308 226 2326 208 q 2291 276 2291 245 q 2309 333 2291 316 q 2351 350 2327 350 q 2383 341 2370 350 m 3560 897 q 3620 828 3600 872 q 3640 723 3640 783 q 3593 576 3640 627 q 3472 524 3545 524 q 3352 576 3400 524 q 3303 715 3303 627 q 3354 875 3303 827 q 3473 922 3403 922 q 3560 897 3520 922 m 1335 1175 l 4312 1175 l 3495 3 l 1335 3 q 1542 265 1468 111 q 1615 589 1615 419 q 1542 913 1615 760 q 1335 1175 1468 1067 m 2102 346 l 2102 367 l 1984 367 l 1984 191 l 2007 191 l 2007 271 l 2089 271 l 2089 292 l 2007 292 l 2007 346 l 2102 346 m 2121 627 q 2134 726 2134 669 q 2115 843 2134 793 q 2057 927 2096 895 q 1984 962 2028 952 q 1897 970 1952 970 l 1727 970 l 1727 477 l 1905 477 q 1984 486 1947 477 q 2043 510 2018 494 q 2087 555 2067 526 q 2121 627 2108 585 m 2424 231 q 2435 279 2435 252 q 2425 326 2435 305 q 2395 358 2414 347 q 2351 370 2376 370 q 2291 345 2314 370 q 2267 277 2267 320 q 2277 233 2267 253 q 2307 200 2287 212 q 2351 188 2326 188 q 2394 199 2375 188 q 2424 231 2414 210 m 2593 477 l 2593 535 l 2291 535 l 2291 703 l 2563 703 l 2563 760 l 2291 760 l 2291 911 l 2582 911 l 2582 970 l 2226 970 l 2226 477 l 2593 477 m 2721 191 l 2745 191 l 2745 367 l 2723 367 l 2723 229 l 2631 367 l 2607 367 l 2607 191 l 2629 191 l 2629 329 l 2721 191 m 3052 346 l 3052 367 l 2913 367 l 2913 346 l 2970 346 l 2970 191 l 2994 191 l 2994 346 l 3052 346 m 3151 477 l 3151 970 l 3063 970 l 2945 627 q 2920 548 2925 566 q 2896 621 2916 559 l 2779 970 l 2681 970 l 2681 477 l 2744 477 l 2744 897 l 2886 477 l 2945 477 l 3088 889 l 3088 477 l 3151 477 m 3472 469 q 3592 499 3537 469 q 3677 589 3647 530 q 3708 722 3708 648 q 3679 854 3708 796 q 3595 945 3651 912 q 3472 978 3540 978 q 3302 909 3368 978 q 3236 717 3236 840 q 3265 594 3236 652 q 3347 502 3294 534 q 3472 469 3402 469 m 480 1282 q 550 1312 480 1282 q 773 1341 620 1341 q 1066 1282 926 1341 q 1306 1122 1205 1222 q 1466 882 1407 1021 q 1526 589 1526 743 q 1466 297 1526 436 q 1306 57 1407 157 q 1066 -104 1205 -44 q 773 -163 926 -163 q 480 -104 620 -163 q 241 57 341 -44 q 81 297 140 157 q 21 589 21 436 q 81 882 21 743 q 241 1122 140 1021 q 480 1282 341 1222 m 516 -19 q 578 -45 516 -19 q 773 -71 639 -71 q 1030 -19 907 -71 q 1241 122 1152 33 q 1381 333 1329 210 q 1434 589 1434 455 q 1381 846 1434 724 q 1241 1057 1329 968 q 1030 1198 1152 1145 q 773 1250 907 1250 q 516 1198 639 1250 q 306 1057 394 1145 q 165 846 217 968 q 113 589 113 724 q 165 333 113 455 q 306 122 217 210 q 516 -19 394 33 m 688 333 q 647 162 654 238 q 650 111 645 143 q 657 60 655 78 q 650 20 659 42 q 625 1 640 5 q 595 5 610 -2 q 568 22 581 12 q 544 45 555 33 q 527 108 528 69 q 539 198 526 147 q 571 303 552 248 q 622 424 591 358 q 682 547 653 490 q 748 672 711 604 q 813 787 786 740 q 872 890 840 833 q 918 970 905 946 q 946 1025 935 1001 q 962 1067 958 1050 q 965 1095 967 1084 q 954 1105 963 1105 q 927 1098 944 1106 q 885 1072 911 1090 q 826 1023 859 1053 q 429 566 669 877 q 260 345 338 444 q 222 317 240 317 q 191 330 195 317 l 191 340 q 241 480 210 401 q 308 637 272 560 q 378 779 344 714 q 441 880 413 844 q 481 908 469 916 l 481 905 q 416 757 457 848 q 396 656 378 675 q 481 716 414 637 q 570 824 500 738 q 692 968 640 909 q 791 1073 744 1027 q 887 1149 843 1122 q 960 1179 930 1176 q 1008 1168 989 1182 q 1032 1126 1027 1154 q 1031 1057 1038 1097 q 1004 971 1024 1017 q 906 777 970 894 q 783 546 842 661 q 688 333 724 432 m 885 602 q 880 607 885 602 q 875 626 875 612 q 885 650 875 640 q 909 661 895 661 q 933 650 923 661 q 943 626 943 640 q 933 602 943 612 q 909 591 923 591 q 885 602 895 591 m 1200 465 q 1220 474 1208 473 q 1238 467 1231 474 q 1247 450 1246 460 q 1241 429 1249 439 l 1240 427 q 1152 347 1174 365 q 1095 313 1122 324 q 1069 307 1080 307 q 1046 316 1056 307 q 1035 346 1036 326 q 1038 382 1034 362 q 1041 390 1039 385 q 1042 395 1042 395 q 977 317 1005 338 q 935 307 960 306 q 913 312 922 307 q 899 330 901 317 l 898 330 q 898 332 898 331 l 898 336 l 898 338 l 899 339 q 783 326 831 304 l 783 326 q 765 348 771 332 q 762 376 761 358 q 781 444 764 401 q 836 547 805 500 q 856 564 844 559 q 879 564 868 568 q 892 548 890 559 q 887 523 895 534 q 833 420 847 462 q 828 393 827 401 l 829 389 q 888 411 853 387 q 945 475 927 439 q 1145 987 997 618 q 1181 1027 1158 1025 l 1182 1027 q 1200 1021 1192 1029 q 1209 1002 1206 1015 l 1210 1002 q 1210 1000 1210 1001 l 1210 990 l 1210 988 q 1193 939 1208 981 q 1150 826 1160 852 q 1001 452 1092 677 q 1024 478 1020 473 q 1069 512 1048 504 q 1117 505 1098 523 l 1118 505 q 1127 480 1126 495 q 1125 450 1128 467 q 1106 386 1121 429 l 1105 380 q 1109 384 1107 382 q 1200 465 1148 414 m 758 229 q 769 220 764 225 q 773 207 773 215 q 769 194 773 200 q 758 184 764 186 q 740 180 749 180 q 720 184 728 180 q 707 195 713 186 q 702 210 702 202 l 713 212 q 717 201 715 203 q 726 194 720 197 q 740 191 731 191 q 751 193 746 191 q 759 199 757 195 q 762 206 762 203 q 760 214 762 210 q 751 218 758 216 q 745 220 751 218 q 735 223 740 222 q 718 229 722 227 q 709 237 711 232 q 705 248 705 242 q 709 260 705 254 q 721 269 713 266 q 737 273 729 273 q 754 269 746 273 q 766 260 762 266 q 770 245 770 254 l 759 245 q 753 258 758 254 q 737 262 747 262 q 722 258 726 262 q 717 249 717 254 q 720 241 717 244 q 739 235 723 238 q 758 229 748 233 m 796 260 l 796 271 l 867 271 l 867 260 l 838 260 l 838 182 l 825 182 l 825 260 l 796 260 m 951 220 l 951 271 l 963 271 l 963 220 q 960 198 963 207 q 949 185 957 190 q 928 180 941 180 q 907 184 916 180 q 897 197 900 188 q 893 220 893 206 l 893 271 l 905 271 l 905 220 q 907 203 905 208 q 914 194 909 197 q 927 191 919 191 q 945 197 941 191 q 951 220 951 204 m 1056 263 q 1067 248 1064 256 q 1070 227 1070 238 q 1067 209 1070 220 q 1061 196 1065 201 q 1053 188 1057 191 q 1043 183 1048 184 q 1029 182 1035 182 l 996 182 l 996 271 l 1027 271 q 1043 270 1036 271 q 1056 263 1051 268 m 1055 210 q 1058 227 1058 220 q 1053 249 1058 242 q 1042 258 1050 254 q 1027 260 1038 260 l 1008 260 l 1008 193 l 1027 193 q 1041 194 1038 193 q 1049 199 1046 196 q 1055 210 1053 203 m 1114 182 l 1102 182 l 1102 271 l 1114 271 l 1114 182 m 1210 267 q 1225 250 1219 260 q 1230 227 1230 239 q 1224 202 1230 216 q 1209 186 1219 191 q 1187 180 1198 180 q 1165 186 1175 180 q 1149 203 1154 193 q 1145 225 1145 212 q 1157 260 1145 248 q 1187 273 1170 273 q 1210 267 1200 273 m 1209 200 q 1218 227 1218 210 q 1214 245 1218 237 q 1203 258 1210 254 q 1187 262 1195 262 q 1166 254 1176 262 q 1157 225 1157 245 q 1166 200 1157 209 q 1187 191 1174 191 q 1209 200 1201 191 m 3977 484 l 4312 3 l 3642 3 l 3977 484 z "},"6":{"ha":4331,"x_min":21,"x_max":4312,"o":"m 1980 901 q 2042 846 2017 887 q 2067 727 2067 804 q 2054 632 2067 670 q 2018 570 2041 592 q 1974 544 2002 553 q 1898 535 1948 535 l 1792 535 l 1792 911 l 1896 911 q 1980 901 1954 911 m 2383 341 q 2404 316 2397 332 q 2412 279 2412 299 q 2395 227 2412 244 q 2351 208 2377 208 q 2308 226 2326 208 q 2291 276 2291 245 q 2309 333 2291 316 q 2351 350 2327 350 q 2383 341 2370 350 m 3560 897 q 3620 828 3600 872 q 3640 723 3640 783 q 3593 576 3640 627 q 3472 524 3545 524 q 3352 576 3400 524 q 3303 715 3303 627 q 3354 875 3303 827 q 3473 922 3403 922 q 3560 897 3520 922 m 1335 1175 l 4312 1175 l 3495 3 l 1335 3 q 1542 265 1468 111 q 1615 589 1615 419 q 1542 913 1615 760 q 1335 1175 1468 1067 m 2007 346 l 2102 346 l 2102 367 l 1984 367 l 1984 191 l 2007 191 l 2007 271 l 2089 271 l 2089 292 l 2007 292 l 2007 346 m 2121 627 q 2134 726 2134 669 q 2115 843 2134 793 q 2057 927 2096 895 q 1984 962 2028 952 q 1897 970 1952 970 l 1727 970 l 1727 477 l 1905 477 q 1984 486 1947 477 q 2043 510 2018 494 q 2087 555 2067 526 q 2121 627 2108 585 m 2424 231 q 2435 279 2435 252 q 2425 326 2435 305 q 2395 358 2414 347 q 2351 370 2376 370 q 2291 345 2314 370 q 2267 277 2267 320 q 2277 233 2267 253 q 2307 200 2287 212 q 2351 188 2326 188 q 2394 199 2375 188 q 2424 231 2414 210 m 2593 477 l 2593 535 l 2291 535 l 2291 703 l 2563 703 l 2563 760 l 2291 760 l 2291 911 l 2582 911 l 2582 970 l 2226 970 l 2226 477 l 2593 477 m 2745 191 l 2745 367 l 2723 367 l 2723 229 l 2631 367 l 2607 367 l 2607 191 l 2629 191 l 2629 329 l 2721 191 l 2745 191 m 3052 346 l 3052 367 l 2913 367 l 2913 346 l 2970 346 l 2970 191 l 2994 191 l 2994 346 l 3052 346 m 3151 477 l 3151 970 l 3063 970 l 2945 627 q 2920 548 2925 566 q 2896 621 2916 559 l 2779 970 l 2681 970 l 2681 477 l 2744 477 l 2744 897 l 2886 477 l 2945 477 l 3088 889 l 3088 477 l 3151 477 m 3472 469 q 3592 499 3537 469 q 3677 589 3647 530 q 3708 722 3708 648 q 3679 854 3708 796 q 3595 945 3651 912 q 3472 978 3540 978 q 3302 909 3368 978 q 3236 717 3236 840 q 3265 594 3236 652 q 3347 502 3294 534 q 3472 469 3402 469 m 480 1282 q 550 1312 480 1282 q 773 1341 620 1341 q 1066 1282 926 1341 q 1306 1122 1205 1222 q 1466 882 1407 1021 q 1526 589 1526 743 q 1466 297 1526 436 q 1306 57 1407 157 q 1066 -104 1205 -44 q 773 -163 926 -163 q 480 -104 620 -163 q 241 57 341 -44 q 81 297 140 157 q 21 589 21 436 q 81 882 21 743 q 241 1122 140 1021 q 480 1282 341 1222 m 516 -19 q 578 -45 516 -19 q 773 -71 639 -71 q 1030 -19 907 -71 q 1241 122 1152 33 q 1381 333 1329 210 q 1434 589 1434 455 q 1381 846 1434 724 q 1241 1057 1329 968 q 1030 1198 1152 1145 q 773 1250 907 1250 q 516 1198 639 1250 q 306 1057 394 1145 q 165 846 217 968 q 113 589 113 724 q 165 333 113 455 q 306 122 217 210 q 516 -19 394 33 m 688 333 q 647 162 654 238 q 650 111 645 143 q 657 60 655 78 q 650 20 659 42 q 625 1 640 5 q 595 5 610 -2 q 568 22 581 12 q 544 45 555 33 q 527 108 528 69 q 539 198 526 147 q 571 303 552 248 q 622 424 591 358 q 682 547 653 490 q 748 672 711 604 q 813 787 786 740 q 872 890 840 833 q 918 970 905 946 q 946 1025 935 1001 q 962 1067 958 1050 q 965 1095 967 1084 q 954 1105 963 1105 q 927 1098 944 1106 q 885 1072 911 1090 q 826 1023 859 1053 q 429 566 669 877 q 260 345 338 444 q 222 317 240 317 q 191 330 195 317 l 191 340 q 241 480 210 401 q 308 637 272 560 q 378 779 344 714 q 441 880 413 844 q 481 908 469 916 l 481 905 q 416 757 457 848 q 396 656 378 675 q 481 716 414 637 q 570 824 500 738 q 692 968 640 909 q 791 1073 744 1027 q 887 1149 843 1122 q 960 1179 930 1176 q 1008 1168 989 1182 q 1032 1126 1027 1154 q 1031 1057 1038 1097 q 1004 971 1024 1017 q 906 777 970 894 q 783 546 842 661 q 688 333 724 432 m 885 602 q 880 607 885 602 q 875 626 875 612 q 885 650 875 640 q 909 661 895 661 q 933 650 923 661 q 943 626 943 640 q 933 602 943 612 q 909 591 923 591 q 885 602 895 591 m 1200 465 q 1220 474 1208 473 q 1238 467 1232 474 q 1247 450 1246 460 q 1241 429 1249 439 l 1240 427 q 1152 347 1174 365 q 1095 313 1122 324 q 1069 307 1080 307 q 1046 316 1056 307 q 1035 346 1036 326 q 1038 382 1034 362 q 1041 390 1039 385 q 1042 395 1042 395 q 977 317 1005 338 q 935 307 960 306 q 913 312 922 307 q 899 330 901 317 l 898 330 q 898 332 898 331 l 898 336 l 898 338 l 899 339 q 783 326 831 304 l 783 326 q 765 348 771 332 q 762 376 761 358 q 781 444 764 404 q 836 547 803 498 q 856 564 844 559 q 879 564 868 568 q 892 548 890 559 q 887 523 895 534 q 833 420 847 462 q 828 393 827 401 l 829 389 q 888 411 853 387 q 945 475 927 439 q 1145 987 997 618 q 1181 1027 1158 1025 q 1200 1021 1192 1028 q 1209 1002 1206 1015 l 1210 1002 q 1210 1000 1210 1001 l 1210 990 l 1210 988 q 1193 939 1208 981 q 1150 826 1160 852 q 1001 452 1092 677 q 1024 478 1020 473 q 1069 512 1048 504 q 1117 505 1098 523 l 1118 505 q 1127 480 1126 495 q 1125 450 1128 467 q 1106 386 1121 429 l 1105 380 q 1109 384 1107 382 q 1200 465 1148 414 m 758 229 q 769 220 764 225 q 773 207 773 215 q 769 194 773 200 q 758 184 764 186 q 740 180 749 180 q 720 184 729 180 q 707 195 713 186 q 702 210 702 202 l 713 212 q 717 201 715 203 q 726 194 720 197 q 740 191 731 191 q 751 193 746 191 q 759 199 757 195 q 762 206 762 203 q 760 214 762 210 q 751 218 758 216 q 745 220 751 218 q 735 223 740 222 q 718 229 722 227 q 709 237 711 232 q 705 248 705 242 q 709 260 705 254 q 721 269 713 266 q 737 273 729 273 q 754 269 746 273 q 766 260 762 266 q 770 245 770 254 l 759 245 q 753 258 758 254 q 737 262 747 262 q 722 258 726 262 q 717 249 717 254 q 720 241 717 244 q 739 235 723 238 q 758 229 748 233 m 796 260 l 796 271 l 867 271 l 867 260 l 838 260 l 838 182 l 825 182 l 825 260 l 796 260 m 951 220 l 951 271 l 963 271 l 963 220 q 960 198 963 207 q 949 185 957 190 q 928 180 941 180 q 907 184 916 180 q 897 197 900 188 q 893 220 893 206 l 893 271 l 905 271 l 905 220 q 907 203 905 208 q 914 194 909 197 q 927 191 919 191 q 945 197 941 191 q 951 220 951 204 m 1056 263 q 1067 248 1064 256 q 1070 227 1070 238 q 1067 209 1070 220 q 1061 196 1065 201 q 1053 188 1057 191 q 1043 183 1048 184 q 1029 182 1035 182 l 996 182 l 996 271 l 1027 271 q 1043 270 1036 271 q 1056 263 1051 268 m 1055 210 q 1058 227 1058 220 q 1053 249 1058 242 q 1042 258 1050 254 q 1027 260 1038 260 l 1008 260 l 1008 193 l 1027 193 q 1041 194 1038 193 q 1049 199 1046 196 q 1055 210 1053 203 m 1114 182 l 1102 182 l 1102 271 l 1114 271 l 1114 182 m 1210 267 q 1225 250 1219 260 q 1230 227 1230 239 q 1224 202 1230 216 q 1209 186 1219 191 q 1187 180 1198 180 q 1165 186 1175 180 q 1149 203 1154 193 q 1145 225 1145 212 q 1156 260 1145 248 q 1187 273 1169 273 q 1210 267 1200 273 m 1209 200 q 1218 227 1218 210 q 1214 245 1218 237 q 1203 258 1210 254 q 1187 262 1195 262 q 1166 254 1176 262 q 1157 225 1157 245 q 1166 200 1157 209 q 1187 191 1175 191 q 1209 200 1201 191 m 3977 484 l 4312 3 l 3642 3 l 3977 484 z "},"7":{"ha":4331,"x_min":21,"x_max":4312,"o":"m 1980 901 q 2042 846 2017 887 q 2067 727 2067 804 q 2054 632 2067 670 q 2018 570 2041 592 q 1974 544 2002 553 q 1898 535 1948 535 l 1792 535 l 1792 911 l 1896 911 q 1980 901 1954 911 m 2383 341 q 2404 316 2397 332 q 2412 279 2412 299 q 2395 227 2412 244 q 2351 208 2377 208 q 2308 226 2326 208 q 2291 276 2291 245 q 2309 333 2291 316 q 2351 350 2327 350 q 2383 341 2370 350 m 3560 897 q 3620 828 3600 872 q 3640 723 3640 783 q 3593 576 3640 627 q 3472 524 3545 524 q 3352 576 3400 524 q 3303 715 3303 627 q 3354 875 3303 827 q 3473 922 3403 922 q 3560 897 3520 922 m 1335 1175 l 4312 1175 l 3495 3 l 1335 3 q 1542 265 1468 111 q 1615 589 1615 419 q 1542 913 1615 760 q 1335 1175 1468 1067 m 2102 346 l 2102 367 l 1984 367 l 1984 191 l 2007 191 l 2007 271 l 2089 271 l 2089 292 l 2007 292 l 2007 346 l 2102 346 m 2121 627 q 2134 726 2134 669 q 2115 843 2134 793 q 2057 927 2096 895 q 1984 962 2028 952 q 1897 970 1952 970 l 1727 970 l 1727 477 l 1905 477 q 1984 486 1947 477 q 2043 510 2018 494 q 2087 555 2067 526 q 2121 627 2108 585 m 2424 231 q 2435 279 2435 252 q 2425 326 2435 305 q 2395 358 2414 347 q 2351 370 2376 370 q 2291 345 2314 370 q 2267 277 2267 320 q 2277 233 2267 253 q 2307 200 2287 212 q 2351 188 2326 188 q 2394 199 2375 188 q 2424 231 2414 210 m 2593 477 l 2593 535 l 2291 535 l 2291 703 l 2563 703 l 2563 760 l 2291 760 l 2291 911 l 2582 911 l 2582 970 l 2226 970 l 2226 477 l 2593 477 m 2721 191 l 2745 191 l 2745 367 l 2723 367 l 2723 229 l 2631 367 l 2607 367 l 2607 191 l 2629 191 l 2629 329 l 2721 191 m 2994 346 l 3052 346 l 3052 367 l 2913 367 l 2913 346 l 2970 346 l 2970 191 l 2994 191 l 2994 346 m 3088 477 l 3151 477 l 3151 970 l 3063 970 l 2945 627 q 2920 548 2925 566 q 2896 621 2916 559 l 2779 970 l 2681 970 l 2681 477 l 2744 477 l 2744 897 l 2886 477 l 2945 477 l 3088 889 l 3088 477 m 3472 469 q 3592 499 3537 469 q 3677 589 3647 530 q 3708 722 3708 648 q 3679 854 3708 796 q 3595 945 3651 912 q 3472 978 3540 978 q 3302 909 3368 978 q 3236 717 3236 840 q 3265 594 3236 652 q 3347 502 3294 534 q 3472 469 3402 469 m 480 1282 q 550 1312 480 1282 q 773 1341 620 1341 q 1066 1282 926 1341 q 1306 1122 1205 1222 q 1466 882 1407 1021 q 1526 589 1526 743 q 1466 297 1526 436 q 1306 57 1407 157 q 1066 -104 1205 -44 q 773 -163 926 -163 q 480 -104 620 -163 q 241 57 341 -44 q 81 297 140 157 q 21 589 21 436 q 81 882 21 743 q 241 1122 140 1021 q 480 1282 341 1222 m 516 -19 q 578 -45 516 -19 q 773 -71 639 -71 q 1030 -19 907 -71 q 1241 122 1152 33 q 1381 333 1329 210 q 1434 589 1434 455 q 1381 846 1434 724 q 1241 1057 1329 968 q 1030 1198 1152 1145 q 773 1250 907 1250 q 516 1198 639 1250 q 306 1057 394 1145 q 165 846 217 968 q 113 589 113 724 q 165 333 113 455 q 306 122 217 210 q 516 -19 394 33 m 688 333 q 647 162 654 238 q 650 111 645 143 q 657 60 655 78 q 650 20 659 42 q 625 1 640 5 q 595 5 610 -2 q 568 22 581 12 q 544 45 555 33 q 527 108 528 69 q 539 198 526 147 q 571 303 552 248 q 622 424 591 358 q 682 547 653 490 q 748 672 711 604 q 813 787 786 740 q 872 890 840 833 q 918 970 905 946 q 946 1025 935 1001 q 962 1067 958 1050 q 965 1095 967 1084 q 954 1105 963 1105 q 927 1098 944 1106 q 885 1072 911 1090 q 826 1023 859 1053 q 429 566 669 877 q 260 345 338 444 q 222 317 240 317 q 191 330 195 317 l 191 340 q 241 480 210 401 q 308 637 272 560 q 378 779 344 714 q 441 880 413 844 q 481 908 469 916 l 481 905 q 416 757 457 848 q 396 656 378 675 q 481 716 414 637 q 570 824 500 738 q 692 968 640 909 q 791 1073 744 1027 q 887 1149 843 1122 q 960 1179 930 1176 q 1008 1168 989 1182 q 1032 1126 1027 1154 q 1031 1057 1038 1097 q 1004 971 1024 1017 q 906 777 970 894 q 783 546 842 661 q 688 333 724 432 m 885 602 q 880 607 885 602 q 875 626 875 612 q 885 650 875 640 q 909 661 895 661 q 933 650 923 661 q 943 626 943 640 q 933 602 943 612 q 909 591 923 591 q 885 602 895 591 m 1200 465 q 1220 474 1208 473 q 1238 467 1232 474 q 1247 450 1246 460 q 1241 429 1249 439 l 1240 427 q 1152 347 1174 365 q 1095 313 1122 324 q 1069 307 1080 307 q 1046 316 1056 307 q 1035 346 1036 326 q 1038 382 1034 362 q 1041 390 1039 385 q 1042 395 1042 395 q 977 317 1005 338 q 935 307 960 306 q 913 312 922 307 q 899 330 901 317 l 898 330 q 898 332 898 331 l 898 336 l 898 338 l 899 339 q 783 326 831 304 l 783 326 q 765 348 771 332 q 762 376 761 358 q 781 444 764 404 q 836 547 803 498 q 856 564 844 559 q 879 564 868 568 q 892 547 890 559 q 887 523 895 534 q 833 420 847 462 q 828 393 827 401 l 829 389 q 888 411 853 387 q 945 475 927 439 q 1145 987 997 618 q 1181 1027 1158 1025 q 1200 1021 1192 1028 q 1209 1002 1206 1015 l 1210 1002 q 1210 1000 1210 1001 l 1210 990 l 1210 988 q 1193 939 1208 981 q 1150 826 1160 852 q 1001 452 1092 677 q 1024 478 1020 473 q 1069 512 1049 505 q 1117 505 1098 523 l 1118 505 q 1127 480 1126 495 q 1125 450 1128 467 q 1106 386 1121 429 l 1105 380 q 1109 384 1107 382 q 1200 465 1148 414 m 758 229 q 769 220 764 225 q 773 207 773 215 q 769 194 773 200 q 758 184 764 186 q 740 180 749 180 q 720 184 729 180 q 707 195 713 186 q 702 210 702 202 l 713 212 q 717 201 715 203 q 726 194 720 197 q 740 191 731 191 q 751 193 746 191 q 759 199 757 195 q 762 206 762 203 q 760 214 762 210 q 751 218 758 216 q 745 220 751 218 q 735 223 740 222 q 718 229 722 227 q 709 237 711 232 q 705 248 705 242 q 709 260 705 254 q 721 269 713 266 q 737 273 729 273 q 754 269 746 273 q 766 260 762 266 q 770 245 770 254 l 759 245 q 753 258 758 254 q 737 262 747 262 q 722 258 726 262 q 717 249 717 254 q 720 241 717 244 q 739 235 723 238 q 758 229 748 233 m 796 260 l 796 271 l 867 271 l 867 260 l 838 260 l 838 182 l 825 182 l 825 260 l 796 260 m 951 220 l 951 271 l 963 271 l 963 220 q 960 198 963 207 q 949 185 957 190 q 928 180 941 180 q 907 184 916 180 q 897 197 900 188 q 893 220 893 206 l 893 271 l 905 271 l 905 220 q 907 203 905 208 q 914 194 909 197 q 927 191 919 191 q 945 197 941 191 q 951 220 951 204 m 1056 263 q 1067 248 1064 256 q 1070 227 1070 238 q 1067 209 1070 220 q 1061 196 1065 201 q 1053 188 1057 191 q 1043 183 1048 184 q 1029 182 1035 182 l 996 182 l 996 271 l 1027 271 q 1043 270 1036 271 q 1056 263 1051 268 m 1055 210 q 1058 227 1058 220 q 1053 248 1058 241 q 1042 258 1048 256 q 1027 260 1038 260 l 1008 260 l 1008 193 l 1027 193 q 1041 194 1038 193 q 1049 199 1046 196 q 1055 210 1053 203 m 1114 182 l 1102 182 l 1102 271 l 1114 271 l 1114 182 m 1210 267 q 1225 250 1219 260 q 1230 227 1230 239 q 1224 202 1230 216 q 1209 186 1219 191 q 1187 180 1198 180 q 1165 186 1175 180 q 1149 203 1154 193 q 1145 225 1145 212 q 1157 260 1145 248 q 1187 273 1170 273 q 1210 267 1200 273 m 1209 200 q 1218 227 1218 210 q 1214 245 1218 237 q 1203 258 1210 254 q 1187 262 1195 262 q 1166 254 1176 262 q 1157 225 1157 245 q 1166 200 1157 209 q 1187 191 1174 191 q 1209 200 1201 191 m 3977 484 l 4312 3 l 3642 3 l 3977 484 z "},"8":{"ha":4331,"x_min":21,"x_max":4312,"o":"m 1980 901 q 2042 846 2017 887 q 2067 727 2067 804 q 2054 632 2067 670 q 2018 570 2041 592 q 1974 544 2002 553 q 1898 535 1948 535 l 1792 535 l 1792 911 l 1896 911 q 1980 901 1954 911 m 2383 341 q 2404 316 2397 332 q 2412 279 2412 299 q 2395 227 2412 244 q 2351 208 2377 208 q 2308 226 2326 208 q 2291 276 2291 245 q 2309 333 2291 316 q 2351 350 2327 350 q 2383 341 2370 350 m 3560 897 q 3620 828 3600 872 q 3640 723 3640 783 q 3593 576 3640 627 q 3472 524 3545 524 q 3352 576 3400 524 q 3303 715 3303 627 q 3354 875 3303 827 q 3473 922 3403 922 q 3560 897 3520 922 m 1335 1175 l 4312 1175 l 3495 3 l 1335 3 q 1542 265 1468 111 q 1615 589 1615 419 q 1542 913 1615 760 q 1335 1175 1468 1067 m 2102 346 l 2102 367 l 1984 367 l 1984 191 l 2007 191 l 2007 271 l 2089 271 l 2089 292 l 2007 292 l 2007 346 l 2102 346 m 2121 627 q 2134 726 2134 669 q 2115 843 2134 793 q 2057 927 2096 895 q 1984 962 2028 952 q 1897 970 1952 970 l 1727 970 l 1727 477 l 1905 477 q 1984 486 1947 477 q 2043 510 2018 494 q 2087 555 2067 526 q 2121 627 2108 585 m 2424 231 q 2435 279 2435 252 q 2425 326 2435 305 q 2395 358 2414 347 q 2351 370 2376 370 q 2291 345 2314 370 q 2267 277 2267 320 q 2277 233 2267 253 q 2307 200 2287 212 q 2351 188 2326 188 q 2394 199 2375 188 q 2424 231 2414 210 m 2593 477 l 2593 535 l 2291 535 l 2291 703 l 2563 703 l 2563 760 l 2291 760 l 2291 911 l 2582 911 l 2582 970 l 2226 970 l 2226 477 l 2593 477 m 2721 191 l 2745 191 l 2745 367 l 2723 367 l 2723 229 l 2631 367 l 2607 367 l 2607 191 l 2629 191 l 2629 329 l 2721 191 m 2994 346 l 3052 346 l 3052 367 l 2913 367 l 2913 346 l 2970 346 l 2970 191 l 2994 191 l 2994 346 m 3088 477 l 3151 477 l 3151 970 l 3063 970 l 2945 627 q 2920 548 2925 566 q 2896 621 2916 559 l 2779 970 l 2681 970 l 2681 477 l 2744 477 l 2744 897 l 2886 477 l 2945 477 l 3088 889 l 3088 477 m 3472 469 q 3592 499 3537 469 q 3677 589 3647 530 q 3708 722 3708 648 q 3679 854 3708 796 q 3595 945 3651 912 q 3472 978 3540 978 q 3302 909 3368 978 q 3236 717 3236 840 q 3265 594 3236 652 q 3347 502 3294 534 q 3472 469 3402 469 m 480 1282 q 550 1312 480 1282 q 773 1341 620 1341 q 1066 1282 926 1341 q 1306 1122 1205 1222 q 1466 882 1407 1021 q 1526 589 1526 743 q 1466 297 1526 436 q 1306 57 1407 157 q 1066 -104 1205 -44 q 773 -163 926 -163 q 480 -104 620 -163 q 241 57 341 -44 q 81 297 140 157 q 21 589 21 436 q 81 882 21 743 q 241 1122 140 1021 q 480 1282 341 1222 m 516 -19 q 578 -45 516 -19 q 773 -71 639 -71 q 1030 -19 907 -71 q 1241 122 1152 33 q 1381 333 1329 210 q 1434 589 1434 455 q 1381 846 1434 724 q 1241 1057 1329 968 q 1030 1198 1152 1145 q 773 1250 907 1250 q 516 1198 639 1250 q 306 1057 394 1145 q 165 846 217 968 q 113 589 113 724 q 165 333 113 455 q 306 122 217 210 q 516 -19 394 33 m 688 333 q 647 162 654 238 q 650 111 645 143 q 657 60 655 78 q 650 20 659 42 q 625 1 640 5 q 595 5 610 -2 q 568 22 581 12 q 544 45 555 33 q 527 108 528 69 q 539 198 526 147 q 571 303 552 248 q 622 424 591 358 q 682 547 653 490 q 748 672 711 604 q 813 787 786 740 q 872 890 840 833 q 918 970 905 946 q 946 1025 935 1001 q 962 1067 958 1050 q 965 1095 967 1084 q 954 1105 963 1105 q 927 1098 944 1106 q 885 1072 911 1090 q 826 1023 859 1053 q 429 566 669 877 q 260 345 338 444 q 222 317 240 317 q 191 330 195 317 l 191 340 q 241 480 210 401 q 308 637 272 560 q 378 779 344 714 q 441 880 413 844 q 481 908 469 916 l 481 905 q 416 757 457 848 q 396 656 378 675 q 481 716 414 637 q 570 824 500 738 q 692 968 640 909 q 791 1073 744 1027 q 887 1149 843 1122 q 960 1179 930 1176 q 1008 1168 989 1182 q 1032 1126 1027 1154 q 1031 1057 1038 1097 q 1004 971 1024 1017 q 906 777 970 894 q 783 546 842 661 q 688 333 724 432 m 885 602 q 880 607 885 602 q 875 626 875 612 q 885 650 875 640 q 909 661 895 661 q 933 650 923 661 q 943 626 943 640 q 933 602 943 612 q 909 591 923 591 q 885 602 895 591 m 1200 465 q 1220 474 1208 473 q 1238 467 1232 474 q 1247 450 1246 460 q 1241 429 1249 439 l 1240 427 q 1152 347 1174 365 q 1095 313 1122 324 q 1069 307 1080 307 q 1046 316 1056 307 q 1035 346 1036 326 q 1038 382 1034 362 q 1041 390 1039 385 q 1042 395 1042 395 q 977 317 1005 338 q 935 307 960 306 q 913 312 922 307 q 899 330 901 317 l 898 330 q 898 332 898 331 l 898 336 l 898 338 l 899 339 q 783 326 831 304 l 783 326 q 765 348 771 332 q 762 376 761 358 q 781 444 764 404 q 836 547 803 498 q 856 564 844 559 q 879 564 868 568 q 892 547 890 559 q 887 523 895 534 q 833 420 847 462 q 828 393 827 401 l 829 389 q 888 411 853 387 q 945 475 927 439 q 1145 987 997 618 q 1181 1027 1158 1025 q 1200 1021 1192 1028 q 1209 1002 1206 1015 l 1210 1002 q 1210 1000 1210 1001 l 1210 990 l 1210 988 q 1193 939 1208 981 q 1150 826 1160 852 q 1001 452 1092 677 q 1024 478 1020 473 q 1069 512 1049 505 q 1117 505 1098 523 l 1118 505 q 1127 480 1126 495 q 1125 450 1128 467 q 1106 386 1121 429 l 1105 380 q 1109 384 1107 382 q 1200 465 1148 414 m 758 229 q 770 220 766 225 q 773 207 773 216 q 769 194 773 200 q 758 184 764 186 q 740 180 749 180 q 720 184 729 180 q 707 195 713 186 q 702 210 702 202 l 713 212 q 717 201 715 203 q 726 194 720 197 q 740 191 732 191 q 751 193 746 191 q 760 199 758 196 q 762 206 762 201 q 760 214 762 210 q 751 218 758 216 q 745 220 751 218 q 735 223 740 222 q 718 229 722 227 q 709 237 711 232 q 706 248 706 241 q 709 260 706 255 q 721 269 713 266 q 737 273 729 273 q 754 269 746 273 q 766 260 762 266 q 770 245 770 254 l 759 245 q 753 258 758 254 q 737 262 747 262 q 722 258 726 262 q 717 249 717 254 q 720 241 717 244 q 739 235 723 238 q 758 229 748 233 m 796 260 l 796 271 l 867 271 l 867 260 l 838 260 l 838 182 l 825 182 l 825 260 l 796 260 m 951 220 l 951 271 l 963 271 l 963 220 q 960 198 963 207 q 949 185 957 190 q 928 180 941 180 q 907 184 916 180 q 897 197 900 188 q 893 220 893 206 l 893 271 l 905 271 l 905 220 q 907 203 905 208 q 914 194 909 197 q 927 191 919 191 q 945 197 941 191 q 951 220 951 204 m 1056 263 q 1067 248 1064 256 q 1070 227 1070 238 q 1067 209 1070 220 q 1061 196 1065 201 q 1053 188 1057 191 q 1043 183 1048 184 q 1029 182 1035 182 l 996 182 l 996 271 l 1027 271 q 1043 270 1036 271 q 1056 263 1051 268 m 1055 210 q 1058 227 1058 220 q 1053 248 1058 241 q 1042 258 1048 256 q 1027 260 1038 260 l 1008 260 l 1008 193 l 1027 193 q 1041 194 1038 193 q 1049 199 1046 196 q 1055 210 1053 203 m 1114 182 l 1102 182 l 1102 271 l 1114 271 l 1114 182 m 1210 267 q 1225 250 1219 260 q 1230 227 1230 239 q 1224 202 1230 216 q 1209 186 1219 191 q 1187 180 1198 180 q 1165 186 1175 180 q 1150 203 1156 193 q 1145 225 1145 214 q 1157 260 1145 248 q 1187 273 1170 273 q 1210 267 1200 273 m 1209 200 q 1218 227 1218 210 q 1214 245 1218 237 q 1203 258 1210 254 q 1187 262 1195 262 q 1166 254 1176 262 q 1157 225 1157 245 q 1166 200 1157 209 q 1187 191 1174 191 q 1209 200 1201 191 m 3977 484 l 4312 3 l 3642 3 l 3977 484 z "},"9":{"ha":4331,"x_min":21,"x_max":4312,"o":"m 1980 901 q 2042 846 2017 887 q 2067 727 2067 804 q 2054 632 2067 670 q 2018 570 2041 592 q 1974 544 2002 553 q 1898 535 1948 535 l 1792 535 l 1792 911 l 1896 911 q 1980 901 1954 911 m 2383 341 q 2404 316 2397 332 q 2412 279 2412 299 q 2395 227 2412 244 q 2351 208 2377 208 q 2308 226 2326 208 q 2291 276 2291 245 q 2309 333 2291 315 q 2351 350 2327 350 q 2383 341 2370 350 m 3560 897 q 3620 828 3600 872 q 3640 723 3640 783 q 3593 576 3640 627 q 3472 524 3545 524 q 3352 576 3400 524 q 3303 715 3303 627 q 3354 875 3303 827 q 3473 922 3403 922 q 3560 897 3520 922 m 1335 1175 l 4312 1175 l 3495 3 l 1335 3 q 1542 265 1468 111 q 1615 589 1615 419 q 1542 913 1615 760 q 1335 1175 1468 1067 m 2102 346 l 2102 367 l 1984 367 l 1984 191 l 2007 191 l 2007 271 l 2089 271 l 2089 292 l 2007 292 l 2007 346 l 2102 346 m 2121 627 q 2134 726 2134 669 q 2115 843 2134 793 q 2057 927 2096 895 q 1984 962 2028 952 q 1897 970 1952 970 l 1727 970 l 1727 477 l 1905 477 q 1984 486 1947 477 q 2043 510 2018 494 q 2087 555 2067 526 q 2121 627 2108 585 m 2424 231 q 2435 279 2435 252 q 2425 326 2435 305 q 2395 358 2414 347 q 2351 370 2376 370 q 2291 345 2314 370 q 2267 277 2267 320 q 2277 233 2267 253 q 2307 200 2287 212 q 2351 188 2326 188 q 2394 199 2375 188 q 2424 231 2414 210 m 2593 477 l 2593 535 l 2291 535 l 2291 703 l 2563 703 l 2563 760 l 2291 760 l 2291 911 l 2582 911 l 2582 970 l 2226 970 l 2226 477 l 2593 477 m 2721 191 l 2745 191 l 2745 367 l 2723 367 l 2723 229 l 2631 367 l 2607 367 l 2607 191 l 2629 191 l 2629 329 l 2721 191 m 3052 346 l 3052 367 l 2913 367 l 2913 346 l 2970 346 l 2970 191 l 2994 191 l 2994 346 l 3052 346 m 3151 477 l 3151 970 l 3063 970 l 2945 627 q 2920 548 2925 566 q 2896 621 2916 559 l 2779 970 l 2681 970 l 2681 477 l 2744 477 l 2744 897 l 2886 477 l 2945 477 l 3088 889 l 3088 477 l 3151 477 m 3592 499 q 3677 589 3646 529 q 3708 722 3708 648 q 3679 854 3708 796 q 3595 945 3651 912 q 3472 978 3540 978 q 3302 909 3368 978 q 3236 717 3236 840 q 3265 594 3236 652 q 3347 502 3294 534 q 3472 469 3402 469 q 3592 499 3537 469 m 480 1282 q 550 1312 480 1282 q 773 1341 620 1341 q 1066 1282 926 1341 q 1306 1122 1205 1222 q 1466 882 1407 1021 q 1526 589 1526 743 q 1466 297 1526 436 q 1306 57 1407 157 q 1066 -104 1205 -44 q 773 -163 926 -163 q 480 -104 620 -163 q 241 57 341 -44 q 81 297 140 157 q 21 589 21 436 q 81 882 21 743 q 241 1122 140 1021 q 480 1282 341 1222 m 516 -19 q 578 -45 516 -19 q 773 -71 639 -71 q 1030 -19 907 -71 q 1241 122 1152 33 q 1381 333 1329 210 q 1434 589 1434 455 q 1381 846 1434 724 q 1241 1057 1329 968 q 1030 1198 1152 1145 q 773 1250 907 1250 q 516 1198 639 1250 q 306 1057 394 1145 q 165 846 217 968 q 113 589 113 724 q 165 333 113 455 q 306 122 217 210 q 516 -19 394 33 m 688 333 q 647 162 654 238 q 650 111 645 143 q 657 60 655 78 q 650 20 659 42 q 625 1 640 5 q 595 5 610 -2 q 568 22 581 12 q 544 45 555 33 q 527 108 528 69 q 539 198 526 147 q 571 303 552 248 q 622 424 591 358 q 682 547 653 490 q 748 672 711 604 q 813 787 786 740 q 872 890 840 833 q 918 970 905 946 q 946 1025 935 1001 q 962 1067 958 1050 q 965 1095 967 1084 q 954 1105 963 1105 q 927 1098 944 1106 q 885 1072 911 1090 q 826 1023 859 1053 q 429 566 669 877 q 260 345 338 444 q 222 317 240 317 q 191 330 195 317 l 191 340 q 241 480 210 401 q 308 637 272 560 q 378 779 344 714 q 441 880 413 844 q 481 908 469 916 l 481 905 q 416 757 457 848 q 396 656 378 675 q 481 716 414 637 q 570 824 500 738 q 692 968 640 909 q 791 1073 744 1027 q 887 1149 843 1122 q 960 1179 930 1176 q 1008 1168 989 1182 q 1032 1126 1027 1154 q 1031 1057 1038 1097 q 1004 971 1024 1017 q 906 777 970 894 q 783 546 842 661 q 688 333 724 432 m 885 602 q 880 607 885 602 q 875 626 875 612 q 885 650 875 640 q 909 661 895 661 q 933 650 923 661 q 943 626 943 640 q 933 602 943 612 q 909 591 923 591 q 885 602 895 591 m 1200 465 q 1220 474 1208 473 q 1238 467 1232 474 q 1247 450 1246 460 q 1241 429 1249 439 l 1240 427 q 1152 347 1174 365 q 1095 313 1122 324 q 1069 307 1080 307 q 1046 316 1056 307 q 1035 346 1036 326 q 1038 382 1034 362 q 1042 395 1039 385 q 977 317 1004 336 q 935 307 960 306 q 913 312 922 307 q 899 330 901 317 l 898 330 q 898 332 898 331 l 898 336 l 898 338 l 899 339 q 783 326 831 304 l 783 326 q 765 348 771 332 q 762 376 761 358 q 781 444 764 404 q 836 547 803 498 q 856 564 844 559 q 879 564 868 568 q 892 548 890 559 q 887 523 895 534 q 833 420 847 462 q 828 393 827 401 l 829 389 q 888 411 853 387 q 945 475 927 439 q 1145 987 997 618 q 1181 1027 1158 1025 q 1200 1021 1192 1029 q 1209 1002 1206 1015 l 1210 1002 q 1210 1000 1210 1001 l 1210 990 l 1210 988 q 1193 939 1208 981 q 1150 826 1160 852 q 1001 452 1092 677 q 1024 478 1020 473 q 1069 512 1048 504 q 1117 505 1097 523 l 1118 505 q 1127 480 1126 495 q 1125 450 1128 467 q 1106 386 1121 429 l 1105 380 q 1109 384 1107 382 q 1200 465 1148 414 m 758 229 q 770 220 766 225 q 773 207 773 216 q 769 194 773 200 q 758 184 764 186 q 740 180 749 180 q 720 184 729 180 q 707 195 713 186 q 702 210 702 202 l 713 212 q 717 201 715 203 q 726 194 720 197 q 740 191 731 191 q 751 193 746 191 q 760 199 758 196 q 762 206 762 201 q 760 214 762 210 q 751 218 758 216 q 745 220 751 218 q 735 223 740 222 q 718 229 722 227 q 709 237 711 232 q 706 248 706 241 q 709 260 706 255 q 721 269 713 266 q 737 273 729 273 q 754 269 746 273 q 766 260 762 266 q 770 245 770 254 l 759 245 q 753 258 758 254 q 737 262 747 262 q 722 258 726 262 q 717 249 717 254 q 720 241 717 244 q 739 235 723 238 q 758 229 748 233 m 796 260 l 796 271 l 867 271 l 867 260 l 838 260 l 838 182 l 825 182 l 825 260 l 796 260 m 951 220 l 951 271 l 963 271 l 963 220 q 960 198 963 207 q 949 185 957 190 q 928 180 941 180 q 907 184 916 180 q 897 197 900 188 q 893 220 893 206 l 893 271 l 905 271 l 905 220 q 907 203 905 208 q 914 194 909 197 q 927 191 919 191 q 945 197 941 191 q 951 220 951 204 m 1056 263 q 1067 248 1064 256 q 1070 227 1070 238 q 1067 209 1070 220 q 1061 196 1065 201 q 1053 188 1057 191 q 1043 183 1048 184 q 1029 182 1035 182 l 996 182 l 996 271 l 1027 271 q 1043 270 1036 271 q 1056 263 1051 268 m 1055 210 q 1058 227 1058 220 q 1053 249 1058 242 q 1042 258 1050 254 q 1027 260 1038 260 l 1008 260 l 1008 193 l 1027 193 q 1041 194 1038 193 q 1049 199 1046 196 q 1055 210 1053 203 m 1114 182 l 1102 182 l 1102 271 l 1114 271 l 1114 182 m 1210 267 q 1225 250 1219 260 q 1230 227 1230 239 q 1224 202 1230 216 q 1209 186 1219 191 q 1187 180 1198 180 q 1165 186 1175 180 q 1150 203 1156 193 q 1145 225 1145 214 q 1157 260 1145 248 q 1187 273 1170 273 q 1210 267 1200 273 m 1209 200 q 1218 227 1218 210 q 1214 245 1218 237 q 1203 258 1210 254 q 1187 262 1195 262 q 1166 254 1176 262 q 1157 225 1157 245 q 1166 200 1157 209 q 1187 191 1175 191 q 1209 200 1201 191 m 3977 484 l 4312 3 l 3642 3 l 3977 484 z "},"\u0000":{"ha":0,"x_min":0,"x_max":0,"o":""},"\n":{"ha":0,"x_min":0,"x_max":0,"o":""},"\r":{"ha":0,"x_min":0,"x_max":0,"o":""}," ":{"ha":536,"x_min":0,"x_max":0,"o":""},"!":{"ha":4331,"x_min":21,"x_max":4312,"o":"m 1980 900 q 2042 844 2017 886 q 2067 726 2067 803 q 2054 631 2067 669 q 2018 568 2041 591 q 1974 543 2002 552 q 1898 534 1948 534 l 1792 534 l 1792 910 l 1896 910 q 1980 900 1954 910 m 2383 340 q 2404 315 2397 331 q 2412 277 2412 298 q 2395 225 2412 243 q 2351 206 2377 206 q 2308 224 2326 206 q 2291 275 2291 243 q 2309 332 2291 315 q 2351 349 2327 349 q 2383 340 2370 349 m 3560 896 q 3620 827 3600 871 q 3640 722 3640 782 q 3593 574 3640 626 q 3472 523 3545 523 q 3352 574 3400 523 q 3303 715 3303 626 q 3354 873 3303 825 q 3473 921 3403 921 q 3560 896 3520 921 m 1335 1173 l 4312 1173 l 3495 2 l 1335 2 q 1542 263 1468 109 q 1615 588 1615 418 q 1542 912 1615 758 q 1335 1173 1468 1066 m 2102 345 l 2102 366 l 1984 366 l 1984 189 l 2007 189 l 2007 269 l 2089 269 l 2089 290 l 2007 290 l 2007 345 l 2102 345 m 2121 625 q 2134 724 2134 668 q 2115 842 2134 791 q 2057 926 2096 893 q 1984 961 2028 951 q 1897 968 1952 968 l 1727 968 l 1727 475 l 1905 475 q 1984 484 1947 475 q 2043 509 2018 492 q 2087 553 2067 525 q 2121 625 2108 583 m 2424 229 q 2435 277 2435 250 q 2425 324 2435 304 q 2395 357 2414 346 q 2351 368 2376 368 q 2291 344 2314 368 q 2267 275 2267 319 q 2277 231 2267 252 q 2307 199 2287 211 q 2351 186 2326 186 q 2394 197 2375 186 q 2424 229 2414 209 m 2593 475 l 2593 534 l 2291 534 l 2291 701 l 2563 701 l 2563 759 l 2291 759 l 2291 910 l 2582 910 l 2582 968 l 2226 968 l 2226 475 l 2593 475 m 2721 189 l 2745 189 l 2745 366 l 2723 366 l 2723 227 l 2631 366 l 2607 366 l 2607 189 l 2629 189 l 2629 328 l 2721 189 m 2994 345 l 3052 345 l 3052 366 l 2913 366 l 2913 345 l 2970 345 l 2970 189 l 2994 189 l 2994 345 m 3088 475 l 3151 475 l 3151 968 l 3063 968 l 2945 625 q 2920 547 2925 564 q 2896 619 2916 557 l 2779 968 l 2681 968 l 2681 475 l 2744 475 l 2744 895 l 2886 475 l 2945 475 l 3088 888 l 3088 475 m 3472 467 q 3592 498 3537 467 q 3677 587 3647 528 q 3708 721 3708 646 q 3679 853 3708 795 q 3595 944 3651 911 q 3472 977 3540 977 q 3302 907 3368 977 q 3236 715 3236 839 q 3265 593 3236 651 q 3347 500 3294 533 q 3472 467 3402 467 m 480 1280 q 550 1310 480 1280 q 773 1340 620 1340 q 1066 1280 926 1340 q 1306 1120 1205 1221 q 1466 881 1407 1020 q 1526 588 1526 741 q 1466 295 1526 435 q 1306 55 1407 156 q 1066 -105 1205 -45 q 773 -165 926 -165 q 480 -105 620 -165 q 241 55 341 -45 q 81 295 140 156 q 21 588 21 435 q 81 881 21 741 q 241 1120 140 1020 q 480 1280 341 1221 m 516 -20 q 578 -46 516 -20 q 773 -73 639 -73 q 1030 -20 907 -73 q 1241 120 1152 32 q 1381 331 1329 209 q 1434 588 1434 454 q 1381 845 1434 722 q 1241 1056 1329 967 q 1030 1196 1152 1144 q 773 1249 907 1249 q 516 1196 639 1249 q 306 1056 394 1144 q 165 845 217 967 q 113 588 113 722 q 165 331 113 454 q 306 120 217 209 q 516 -20 394 32 m 688 332 q 647 161 654 237 q 650 109 645 142 q 657 59 655 77 q 650 18 659 41 q 625 0 640 3 q 595 4 610 -3 q 568 21 581 11 q 544 44 555 31 q 527 107 528 68 q 539 196 526 146 q 571 302 552 247 q 622 422 591 357 q 682 546 653 488 q 748 671 711 603 q 813 785 786 739 q 872 888 840 832 q 918 969 905 945 q 946 1024 935 1000 q 962 1066 958 1048 q 965 1093 967 1083 q 954 1104 963 1103 q 927 1098 944 1105 q 885 1070 911 1090 q 826 1022 859 1051 q 429 564 670 878 q 260 343 338 442 q 222 316 240 316 q 191 330 195 316 l 191 339 q 241 479 210 399 q 308 636 272 559 q 378 778 344 713 q 441 879 413 842 q 481 907 469 915 l 481 903 q 416 755 457 847 q 396 655 378 674 q 481 715 414 636 q 570 822 500 736 q 692 967 640 908 q 791 1072 744 1026 q 887 1148 843 1121 q 960 1178 930 1175 q 1008 1167 989 1181 q 1032 1125 1027 1154 q 1031 1057 1038 1097 q 1004 970 1024 1017 q 906 776 970 893 q 783 545 842 659 q 688 332 724 431 m 885 600 q 880 605 885 600 q 875 625 875 610 q 885 649 875 639 q 909 659 895 659 q 933 649 923 659 q 943 625 943 639 q 933 600 943 610 q 909 590 923 590 q 885 600 895 590 m 1200 464 q 1220 472 1208 472 q 1238 466 1232 473 q 1247 449 1246 459 q 1241 427 1249 438 l 1240 426 q 1152 346 1174 363 q 1095 311 1122 323 q 1069 305 1080 305 q 1046 315 1056 305 q 1035 345 1036 325 q 1038 380 1034 361 q 1041 388 1039 383 q 1042 394 1042 393 q 977 316 1005 336 q 935 306 960 304 q 913 311 922 306 q 899 328 901 316 l 898 329 q 898 330 898 330 l 898 335 l 898 336 q 899 338 899 337 q 783 324 831 302 l 783 325 q 765 347 771 331 q 762 375 761 357 q 781 442 764 402 q 836 545 803 497 q 856 563 844 558 q 879 563 868 567 q 892 547 890 558 q 887 522 895 533 q 833 419 847 460 q 828 392 827 399 l 829 388 q 888 410 853 385 q 945 474 927 437 q 1145 986 997 617 q 1181 1026 1158 1024 q 1200 1020 1192 1027 q 1209 1001 1206 1014 l 1210 1000 q 1210 999 1210 1000 l 1210 989 l 1210 987 q 1193 937 1208 979 q 1150 825 1160 851 q 1001 450 1092 676 q 1024 477 1020 473 q 1069 511 1051 504 q 1117 503 1098 522 l 1118 503 q 1127 479 1126 494 q 1125 449 1128 465 q 1106 385 1121 428 q 1105 379 1105 379 q 1109 382 1107 381 q 1200 464 1148 413 m 758 227 q 769 218 764 224 q 773 205 773 213 q 769 193 773 199 q 758 182 764 185 q 740 179 749 179 q 720 182 729 179 q 707 193 713 185 q 702 209 702 201 l 713 210 q 717 199 715 202 q 726 193 720 195 q 740 190 731 190 q 751 192 746 190 q 759 197 757 194 q 762 205 762 201 q 760 212 762 209 q 751 217 758 214 q 745 219 751 217 q 735 222 740 220 q 718 227 722 225 q 709 235 711 231 q 705 247 705 241 q 709 259 705 253 q 721 268 713 264 q 737 271 729 271 q 754 268 746 271 q 766 258 762 264 q 770 245 770 252 l 759 243 q 753 256 758 252 q 737 260 747 260 q 722 257 726 260 q 717 248 717 253 q 720 239 717 243 q 739 233 723 237 q 758 227 748 231 m 796 259 l 796 270 l 867 270 l 867 259 l 838 259 l 838 180 l 825 180 l 825 259 l 796 259 m 951 218 l 951 270 l 963 270 l 963 218 q 960 197 963 205 q 949 184 957 189 q 928 179 941 179 q 907 183 916 179 q 897 196 900 186 q 893 218 893 205 l 893 270 l 905 270 l 905 218 q 907 201 905 206 q 914 193 909 196 q 927 190 919 190 q 945 195 941 190 q 951 218 951 203 m 1056 262 q 1067 247 1064 255 q 1070 226 1070 237 q 1067 208 1070 218 q 1061 195 1065 200 q 1053 186 1057 190 q 1043 182 1049 183 q 1029 180 1031 180 l 996 180 l 996 270 l 1027 270 q 1043 269 1036 270 q 1056 262 1051 267 m 1055 209 q 1058 226 1058 218 q 1053 248 1058 241 q 1042 257 1048 254 q 1027 259 1038 259 l 1008 259 l 1008 191 l 1027 191 q 1041 193 1038 191 q 1049 197 1046 195 q 1055 209 1053 201 m 1114 180 l 1102 180 l 1102 270 l 1114 270 l 1114 180 m 1210 265 q 1225 249 1219 259 q 1230 225 1230 238 q 1224 201 1230 214 q 1209 184 1219 189 q 1187 179 1198 179 q 1165 185 1175 179 q 1149 201 1154 191 q 1145 224 1145 211 q 1157 258 1145 246 q 1187 271 1170 271 q 1210 265 1200 271 m 1209 199 q 1218 225 1218 209 q 1214 244 1218 236 q 1203 256 1210 252 q 1187 261 1195 261 q 1166 252 1176 261 q 1157 224 1157 244 q 1166 199 1157 208 q 1187 189 1174 189 q 1209 199 1201 189 m 3977 482 l 4312 2 l 3642 2 l 3977 482 z "},"\"":{"ha":4331,"x_min":21,"x_max":4312,"o":"m 1980 900 q 2042 844 2017 886 q 2067 726 2067 803 q 2054 631 2067 669 q 2018 568 2041 591 q 1974 543 2002 552 q 1898 534 1948 534 l 1792 534 l 1792 910 l 1896 910 q 1980 900 1954 910 m 2383 340 q 2404 315 2397 331 q 2412 277 2412 298 q 2395 225 2412 243 q 2351 206 2377 206 q 2308 224 2326 206 q 2291 275 2291 243 q 2309 332 2291 315 q 2351 349 2326 349 q 2383 340 2370 349 m 3560 896 q 3620 827 3600 871 q 3640 722 3640 782 q 3593 574 3640 626 q 3472 523 3545 523 q 3352 574 3400 523 q 3303 715 3303 626 q 3354 873 3303 825 q 3473 921 3403 921 q 3560 896 3520 921 m 1335 1173 l 4312 1173 l 3495 2 l 1335 2 q 1542 263 1468 109 q 1615 588 1615 418 q 1542 912 1615 758 q 1335 1173 1468 1066 m 2102 345 l 2102 366 l 1984 366 l 1984 189 l 2007 189 l 2007 269 l 2089 269 l 2089 290 l 2007 290 l 2007 345 l 2102 345 m 2121 625 q 2134 724 2134 668 q 2115 842 2134 791 q 2057 926 2096 893 q 1984 961 2028 951 q 1897 968 1952 968 l 1727 968 l 1727 475 l 1905 475 q 1984 484 1947 475 q 2043 509 2018 492 q 2087 553 2067 525 q 2121 625 2108 583 m 2424 229 q 2435 277 2435 250 q 2425 324 2435 304 q 2395 357 2414 346 q 2351 368 2376 368 q 2291 344 2314 368 q 2267 275 2267 319 q 2277 231 2267 252 q 2307 199 2287 211 q 2351 186 2326 186 q 2394 197 2375 186 q 2424 229 2414 209 m 2226 475 l 2593 475 l 2593 534 l 2291 534 l 2291 701 l 2563 701 l 2563 759 l 2291 759 l 2291 910 l 2582 910 l 2582 968 l 2226 968 l 2226 475 m 2745 189 l 2745 366 l 2723 366 l 2723 227 l 2631 366 l 2607 366 l 2607 189 l 2629 189 l 2629 328 l 2721 189 l 2745 189 m 3052 345 l 3052 366 l 2913 366 l 2913 345 l 2970 345 l 2970 189 l 2994 189 l 2994 345 l 3052 345 m 3151 475 l 3151 968 l 3063 968 l 2945 625 q 2920 547 2925 564 q 2896 619 2916 557 l 2779 968 l 2681 968 l 2681 475 l 2744 475 l 2744 895 l 2886 475 l 2945 475 l 3088 888 l 3088 475 l 3151 475 m 3592 498 q 3677 587 3646 528 q 3708 721 3708 646 q 3679 853 3708 795 q 3595 944 3651 911 q 3472 977 3540 977 q 3302 907 3368 977 q 3236 715 3236 839 q 3265 593 3236 651 q 3347 500 3294 533 q 3472 467 3402 467 q 3592 498 3537 467 m 480 1280 q 550 1310 480 1280 q 773 1340 620 1340 q 1066 1280 926 1340 q 1306 1120 1205 1221 q 1466 881 1407 1020 q 1526 588 1526 741 q 1466 295 1526 435 q 1306 55 1407 156 q 1066 -105 1205 -45 q 773 -165 926 -165 q 480 -105 620 -165 q 241 55 341 -45 q 81 295 140 156 q 21 588 21 435 q 81 881 21 741 q 241 1120 140 1020 q 480 1280 341 1221 m 516 -20 q 578 -46 516 -20 q 773 -73 639 -73 q 1030 -20 907 -73 q 1241 120 1152 32 q 1381 331 1329 209 q 1434 588 1434 454 q 1381 845 1434 722 q 1241 1056 1329 967 q 1030 1196 1152 1144 q 773 1249 907 1249 q 516 1196 639 1249 q 306 1056 394 1144 q 165 845 217 967 q 113 588 113 722 q 165 331 113 454 q 306 120 217 209 q 516 -20 394 32 m 688 332 q 647 161 654 237 q 650 109 645 142 q 657 59 655 77 q 650 18 659 41 q 625 0 640 3 q 595 4 610 -3 q 568 21 581 11 q 544 44 555 31 q 527 107 528 68 q 539 196 526 146 q 571 302 552 247 q 622 422 591 357 q 682 546 653 488 q 748 671 711 603 q 813 785 786 739 q 872 888 840 832 q 918 969 905 945 q 946 1024 935 1000 q 962 1066 958 1048 q 965 1093 967 1083 q 954 1104 963 1103 q 927 1098 944 1105 q 885 1070 911 1090 q 826 1022 859 1051 q 429 564 670 878 q 260 343 338 442 q 222 316 240 316 q 191 330 195 316 l 191 339 q 241 479 210 399 q 308 636 272 559 q 378 778 344 713 q 441 879 413 842 q 481 907 469 915 l 481 903 q 416 755 457 847 q 396 655 378 674 q 481 715 414 636 q 570 822 500 736 q 692 967 640 908 q 791 1072 744 1026 q 887 1148 843 1121 q 960 1178 930 1175 q 1008 1167 989 1181 q 1032 1125 1027 1154 q 1031 1057 1038 1097 q 1004 970 1024 1017 q 906 776 970 893 q 783 545 842 659 q 688 332 724 431 m 885 600 q 880 605 885 600 q 875 625 875 610 q 885 649 875 639 q 909 659 895 659 q 933 649 923 659 q 943 625 943 639 q 933 600 943 610 q 909 590 923 590 q 885 600 895 590 m 1200 464 q 1220 472 1208 472 q 1238 466 1232 473 q 1247 449 1246 459 q 1241 427 1249 438 l 1240 426 q 1152 346 1174 363 q 1095 311 1122 323 q 1069 305 1080 305 q 1046 315 1056 305 q 1035 345 1036 325 q 1038 380 1034 361 q 1042 394 1039 384 q 977 316 1004 335 q 935 306 960 304 q 913 311 922 306 q 899 328 901 316 l 898 329 q 898 330 898 330 l 898 335 l 898 336 q 899 338 899 337 q 783 324 831 302 l 783 325 q 765 347 771 331 q 762 375 761 357 q 781 442 764 402 q 836 545 803 497 q 856 563 844 558 q 879 563 868 567 q 892 547 890 558 q 887 522 895 533 q 833 419 846 458 q 828 392 827 401 l 829 388 q 888 410 853 385 q 945 474 927 437 q 1145 986 997 617 q 1181 1026 1158 1024 q 1200 1020 1192 1027 q 1209 1001 1206 1014 l 1210 1000 q 1210 999 1210 1000 l 1210 989 l 1210 987 q 1193 937 1208 979 q 1149 825 1174 886 q 1001 450 1058 591 q 1024 477 1020 473 q 1069 511 1051 504 q 1117 503 1097 522 l 1118 503 q 1127 479 1126 494 q 1125 449 1128 465 q 1106 385 1121 428 q 1105 379 1105 379 q 1109 382 1107 381 q 1200 464 1148 413 m 758 227 q 770 218 766 224 q 773 205 773 214 q 769 193 773 199 q 758 182 764 185 q 740 179 749 179 q 720 182 729 179 q 707 193 713 185 q 702 209 702 201 l 713 210 q 717 199 715 202 q 726 193 720 195 q 740 190 731 190 q 751 192 746 190 q 759 197 757 194 q 762 205 762 201 q 760 212 762 209 q 751 217 758 214 q 745 219 751 217 q 735 222 740 220 q 718 227 722 225 q 709 235 711 231 q 705 247 705 241 q 709 259 705 253 q 721 268 713 264 q 737 271 729 271 q 754 268 746 271 q 766 258 762 264 q 770 245 770 252 l 759 243 q 753 256 758 252 q 737 260 747 260 q 722 257 726 260 q 717 248 717 253 q 720 239 717 243 q 739 233 723 237 q 758 227 748 231 m 796 259 l 796 270 l 867 270 l 867 259 l 838 259 l 838 180 l 825 180 l 825 259 l 796 259 m 951 218 l 951 270 l 963 270 l 963 218 q 960 197 963 205 q 949 184 957 189 q 928 179 941 179 q 907 183 916 179 q 897 196 900 186 q 893 218 893 205 l 893 270 l 905 270 l 905 218 q 907 201 905 206 q 914 193 909 196 q 927 190 919 190 q 945 195 941 190 q 951 218 951 203 m 1056 262 q 1067 247 1064 255 q 1070 226 1070 237 q 1067 208 1070 218 q 1061 195 1065 200 q 1053 186 1057 190 q 1043 182 1049 183 q 1029 180 1031 180 l 996 180 l 996 270 l 1027 270 q 1043 269 1036 270 q 1056 262 1051 267 m 1055 209 q 1058 226 1058 218 q 1053 248 1058 239 q 1042 257 1050 253 q 1027 259 1038 259 l 1008 259 l 1008 191 l 1027 191 q 1041 193 1038 191 q 1049 197 1046 195 q 1055 209 1053 201 m 1114 180 l 1102 180 l 1102 270 l 1114 270 l 1114 180 m 1210 265 q 1225 249 1219 259 q 1230 225 1230 238 q 1224 201 1230 214 q 1209 184 1219 189 q 1187 179 1198 179 q 1165 185 1175 179 q 1149 201 1154 191 q 1145 224 1145 211 q 1157 258 1145 246 q 1187 271 1170 271 q 1210 265 1200 271 m 1209 199 q 1218 225 1218 209 q 1214 244 1218 236 q 1203 256 1210 252 q 1187 261 1195 261 q 1166 252 1176 261 q 1157 224 1157 244 q 1166 199 1157 208 q 1187 189 1175 189 q 1209 199 1201 189 m 3977 482 l 4312 2 l 3642 2 l 3977 482 z "},"#":{"ha":4331,"x_min":21,"x_max":4312,"o":"m 1980 899 q 2042 843 2017 884 q 2067 724 2067 802 q 2054 629 2067 667 q 2018 567 2041 589 q 1974 541 2002 551 q 1898 532 1948 532 l 1792 532 l 1792 909 l 1896 909 q 1980 899 1954 909 m 2383 338 q 2404 313 2397 328 q 2412 276 2412 296 q 2395 223 2412 241 q 2351 205 2378 205 q 2308 223 2326 205 q 2291 273 2291 242 q 2309 330 2291 312 q 2351 347 2327 347 q 2383 338 2370 347 m 3560 895 q 3620 825 3600 870 q 3640 720 3640 780 q 3593 573 3640 625 q 3472 522 3545 522 q 3352 572 3399 522 q 3303 713 3303 624 q 3354 871 3303 823 q 3473 919 3403 919 q 3560 895 3522 919 m 1335 1172 l 4312 1172 l 3495 1 l 1335 1 q 1542 262 1468 108 q 1615 586 1615 416 q 1542 910 1615 756 q 1335 1172 1468 1065 m 2102 343 l 2102 363 l 1984 363 l 1984 188 l 2007 188 l 2007 268 l 2089 268 l 2089 288 l 2007 288 l 2007 343 l 2102 343 m 2121 623 q 2134 723 2134 666 q 2115 840 2134 790 q 2057 924 2096 892 q 1984 960 2028 949 q 1897 966 1955 966 l 1727 966 l 1727 474 l 1905 474 q 1984 482 1950 474 q 2043 507 2016 490 q 2087 552 2067 524 q 2121 623 2109 582 m 2424 228 q 2435 275 2435 249 q 2425 323 2435 302 q 2395 355 2414 345 q 2351 367 2376 367 q 2291 342 2315 367 q 2267 273 2267 317 q 2277 230 2267 250 q 2307 197 2288 209 q 2351 185 2325 185 q 2394 196 2375 185 q 2424 228 2414 208 m 2593 474 l 2593 532 l 2291 532 l 2291 700 l 2563 700 l 2563 758 l 2291 758 l 2291 909 l 2582 909 l 2582 966 l 2226 966 l 2226 474 l 2593 474 m 2745 188 l 2745 363 l 2723 363 l 2723 226 l 2631 363 l 2607 363 l 2607 188 l 2629 188 l 2629 326 l 2721 188 l 2745 188 m 3052 343 l 3052 363 l 2913 363 l 2913 343 l 2970 343 l 2970 188 l 2994 188 l 2994 343 l 3052 343 m 3151 474 l 3151 966 l 3063 966 l 2945 624 q 2920 545 2928 571 q 2896 618 2915 561 l 2779 966 l 2681 966 l 2681 474 l 2744 474 l 2744 893 l 2886 474 l 2945 474 l 3088 886 l 3088 474 l 3151 474 m 3592 496 q 3677 585 3647 526 q 3708 720 3708 644 q 3679 852 3708 793 q 3595 943 3651 909 q 3472 975 3540 975 q 3302 906 3368 975 q 3236 714 3236 838 q 3265 591 3236 648 q 3347 499 3293 532 q 3472 466 3402 466 q 3592 496 3538 466 m 480 1279 q 550 1309 480 1279 q 773 1339 620 1339 q 1066 1279 926 1339 q 1306 1119 1205 1219 q 1466 879 1407 1018 q 1526 586 1526 739 q 1466 293 1526 433 q 1306 54 1407 154 q 1066 -106 1205 -47 q 773 -166 926 -166 q 480 -106 620 -166 q 241 54 341 -47 q 81 293 140 154 q 21 586 21 433 q 81 879 21 739 q 241 1119 140 1018 q 480 1279 341 1219 m 516 -22 q 578 -48 516 -22 q 773 -75 639 -75 q 1030 -22 907 -75 q 1241 118 1152 30 q 1381 329 1329 207 q 1434 586 1434 452 q 1381 843 1434 720 q 1241 1054 1329 965 q 1030 1195 1152 1142 q 773 1247 907 1247 q 516 1195 639 1247 q 306 1054 394 1142 q 165 843 217 965 q 113 586 113 720 q 165 329 113 452 q 306 118 217 207 q 516 -22 394 30 m 688 330 q 647 159 654 234 q 650 108 645 140 q 657 57 655 75 q 650 17 659 39 q 625 -1 640 2 q 595 2 610 -5 q 568 20 581 9 q 544 43 555 30 q 527 105 528 66 q 539 195 526 144 q 571 300 552 245 q 622 421 591 355 q 682 544 653 486 q 748 669 711 602 q 813 783 786 736 q 872 886 840 830 q 918 967 905 943 q 946 1022 935 998 q 962 1064 958 1046 q 965 1091 967 1081 q 954 1102 963 1101 q 927 1096 944 1103 q 885 1068 911 1088 q 826 1020 859 1049 q 429 562 670 876 q 260 342 349 455 q 222 314 240 314 q 191 328 195 314 l 191 338 q 241 478 210 398 q 308 634 272 557 q 378 776 344 711 q 441 877 413 841 q 481 905 469 913 l 481 902 q 416 754 457 846 q 396 654 378 673 q 481 713 414 635 q 570 821 500 735 q 692 966 640 907 q 791 1070 744 1025 q 887 1146 843 1120 q 960 1176 930 1173 q 1008 1165 989 1179 q 1032 1123 1027 1152 q 1031 1055 1038 1095 q 1004 968 1024 1015 q 906 774 970 891 q 783 543 842 657 q 688 330 724 429 m 885 599 q 880 604 885 599 q 875 623 875 609 q 885 648 875 637 q 909 658 895 658 q 933 648 923 658 q 943 623 943 637 q 933 599 943 609 q 909 589 923 589 q 885 599 895 589 m 1200 463 q 1220 471 1208 471 q 1238 465 1232 471 q 1247 447 1246 458 q 1241 426 1249 437 l 1240 425 q 1152 345 1174 362 q 1095 309 1120 319 q 1069 304 1081 304 q 1046 313 1056 304 q 1035 343 1036 323 q 1038 379 1034 359 q 1041 387 1039 382 q 1042 393 1042 392 q 977 315 1005 335 q 935 304 960 303 q 913 309 922 304 q 899 327 901 315 l 898 328 l 898 328 l 898 334 l 898 334 q 899 336 899 335 q 783 323 831 301 l 783 323 q 765 345 771 329 q 762 374 761 355 q 781 441 764 401 q 836 543 802 494 q 879 562 854 571 q 892 545 890 557 q 887 520 895 532 q 833 418 847 459 q 828 391 827 398 l 829 387 q 888 408 853 384 q 945 473 927 436 q 1145 985 997 616 q 1181 1024 1158 1022 q 1200 1018 1192 1025 q 1209 1000 1206 1012 l 1210 999 q 1210 998 1210 998 l 1210 987 l 1210 985 q 1193 936 1208 978 q 1150 823 1160 850 q 1001 449 1092 675 q 1024 475 1020 471 q 1069 509 1049 500 q 1117 502 1099 519 l 1118 502 q 1127 477 1126 492 q 1125 447 1128 463 q 1106 383 1121 427 l 1106 382 q 1105 378 1105 380 q 1107 379 1105 378 q 1109 380 1108 380 q 1200 463 1144 408 m 758 226 q 770 217 766 222 q 773 204 773 213 q 769 191 773 197 q 758 181 765 184 q 740 178 749 178 q 720 181 729 178 q 707 192 713 184 q 702 208 702 199 l 713 209 q 717 197 715 200 q 726 191 720 193 q 740 188 731 188 q 751 190 746 188 q 759 195 757 192 q 762 203 762 199 q 760 210 762 208 q 751 216 758 213 q 745 217 751 216 q 735 220 740 219 q 718 226 722 224 q 709 234 711 229 q 705 245 705 239 q 709 258 705 252 q 721 267 713 263 q 737 269 727 269 q 754 267 748 269 q 766 257 762 263 q 770 243 770 251 l 759 242 q 753 255 758 251 q 737 259 747 259 q 722 255 727 259 q 717 245 717 251 q 720 238 717 241 q 739 231 724 235 q 758 226 751 229 m 796 258 l 796 268 l 867 268 l 867 258 l 838 258 l 838 179 l 825 179 l 825 258 l 796 258 m 951 216 l 951 268 l 963 268 l 963 216 q 960 195 963 204 q 949 182 957 187 q 928 178 941 178 q 907 182 916 178 q 897 194 900 186 q 893 216 893 203 l 893 268 l 905 268 l 905 216 q 907 199 905 205 q 914 191 909 195 q 927 188 920 188 q 945 194 940 188 q 951 216 951 201 m 1056 260 q 1067 245 1064 254 q 1070 224 1070 235 q 1067 206 1070 217 q 1061 193 1065 199 q 1053 185 1057 189 q 1043 180 1048 181 q 1029 179 1035 179 l 996 179 l 996 268 l 1027 268 q 1043 267 1036 268 q 1056 260 1052 264 m 1055 207 q 1058 224 1058 216 q 1053 245 1058 239 q 1042 256 1049 252 q 1027 258 1038 258 l 1008 258 l 1008 189 l 1027 189 q 1041 191 1036 189 q 1049 196 1046 193 q 1055 207 1053 200 m 1114 179 l 1102 179 l 1102 268 l 1114 268 l 1114 179 m 1210 264 q 1225 248 1219 258 q 1230 223 1230 237 q 1224 199 1230 213 q 1209 183 1219 188 q 1187 178 1198 178 q 1165 184 1175 178 q 1149 200 1154 190 q 1145 222 1145 210 q 1157 257 1145 245 q 1187 270 1170 270 q 1210 264 1200 270 m 1209 197 q 1218 224 1218 207 q 1214 242 1218 234 q 1203 255 1209 252 q 1187 260 1195 260 q 1166 251 1176 260 q 1157 222 1157 243 q 1166 197 1157 205 q 1187 188 1174 188 q 1209 197 1201 188 m 3977 481 l 4312 1 l 3642 1 l 3977 481 z "},"$":{"ha":4331,"x_min":21,"x_max":4312,"o":"m 1980 899 q 2042 843 2017 884 q 2067 724 2067 802 q 2054 629 2067 667 q 2018 567 2041 589 q 1974 541 2002 551 q 1898 532 1948 532 l 1792 532 l 1792 909 l 1896 909 q 1980 899 1954 909 m 2383 338 q 2404 313 2397 328 q 2412 276 2412 296 q 2395 223 2412 241 q 2351 205 2378 205 q 2308 223 2326 205 q 2291 273 2291 242 q 2309 330 2291 312 q 2351 347 2327 347 q 2383 338 2370 347 m 3560 895 q 3620 825 3600 870 q 3640 720 3640 780 q 3593 573 3640 625 q 3472 522 3545 522 q 3352 572 3399 522 q 3303 713 3303 624 q 3354 871 3303 823 q 3473 919 3403 919 q 3560 895 3522 919 m 1335 1172 l 4312 1172 l 3495 1 l 1335 1 q 1542 262 1468 108 q 1615 586 1615 416 q 1542 910 1615 756 q 1335 1172 1468 1065 m 2007 343 l 2102 343 l 2102 363 l 1984 363 l 1984 188 l 2007 188 l 2007 268 l 2089 268 l 2089 288 l 2007 288 l 2007 343 m 2121 623 q 2134 723 2134 666 q 2115 840 2134 790 q 2057 924 2096 892 q 1984 960 2028 949 q 1897 966 1955 966 l 1727 966 l 1727 474 l 1905 474 q 1984 482 1950 474 q 2043 507 2016 490 q 2087 552 2067 524 q 2121 623 2109 582 m 2424 228 q 2435 275 2435 249 q 2425 323 2435 302 q 2395 355 2414 345 q 2351 367 2376 367 q 2291 342 2315 367 q 2267 273 2267 317 q 2277 230 2267 250 q 2307 197 2288 209 q 2351 185 2325 185 q 2394 196 2375 185 q 2424 228 2414 208 m 2593 474 l 2593 532 l 2291 532 l 2291 700 l 2563 700 l 2563 758 l 2291 758 l 2291 909 l 2582 909 l 2582 966 l 2226 966 l 2226 474 l 2593 474 m 2745 188 l 2745 363 l 2723 363 l 2723 226 l 2631 363 l 2607 363 l 2607 188 l 2629 188 l 2629 326 l 2721 188 l 2745 188 m 3052 343 l 3052 363 l 2913 363 l 2913 343 l 2970 343 l 2970 188 l 2994 188 l 2994 343 l 3052 343 m 3151 474 l 3151 966 l 3063 966 l 2945 624 q 2920 545 2928 571 q 2896 618 2915 561 l 2779 966 l 2681 966 l 2681 474 l 2744 474 l 2744 893 l 2886 474 l 2945 474 l 3088 886 l 3088 474 l 3151 474 m 3592 496 q 3677 585 3647 526 q 3708 720 3708 644 q 3679 852 3708 793 q 3595 943 3651 909 q 3472 975 3540 975 q 3302 906 3368 975 q 3236 714 3236 838 q 3265 591 3236 648 q 3347 499 3293 532 q 3472 466 3402 466 q 3592 496 3538 466 m 480 1279 q 550 1309 480 1279 q 773 1339 620 1339 q 1066 1279 926 1339 q 1306 1119 1205 1219 q 1466 879 1407 1018 q 1526 586 1526 739 q 1466 293 1526 433 q 1306 54 1407 154 q 1066 -106 1205 -47 q 773 -166 926 -166 q 480 -106 620 -166 q 241 54 341 -47 q 81 293 140 154 q 21 586 21 433 q 81 879 21 739 q 241 1119 140 1018 q 480 1279 341 1219 m 516 -22 q 578 -48 516 -22 q 773 -75 639 -75 q 1030 -22 907 -75 q 1241 118 1152 30 q 1381 329 1329 207 q 1434 586 1434 452 q 1381 843 1434 720 q 1241 1054 1329 965 q 1030 1195 1152 1142 q 773 1247 907 1247 q 516 1195 639 1247 q 306 1054 394 1142 q 165 843 217 965 q 113 586 113 720 q 165 329 113 452 q 306 118 217 207 q 516 -22 394 30 m 688 330 q 647 159 654 234 q 650 108 645 140 q 657 57 655 75 q 650 17 659 39 q 625 -1 640 2 q 595 2 610 -5 q 568 20 581 9 q 544 43 555 30 q 527 105 528 66 q 539 195 526 144 q 571 300 552 245 q 622 421 591 355 q 682 544 653 486 q 748 669 711 602 q 813 783 786 736 q 872 886 840 830 q 918 967 905 943 q 946 1022 935 998 q 962 1064 958 1046 q 965 1091 967 1081 q 954 1102 963 1101 q 927 1096 944 1103 q 885 1068 911 1088 q 826 1020 859 1049 q 429 562 670 876 q 260 342 349 455 q 222 314 240 314 q 191 328 195 314 l 191 338 q 241 478 210 398 q 308 634 272 557 q 378 776 344 711 q 441 877 413 841 q 481 905 469 913 l 481 902 q 416 754 457 846 q 396 654 378 673 q 481 713 414 635 q 570 821 500 735 q 692 966 640 907 q 791 1070 744 1025 q 887 1146 843 1120 q 960 1176 930 1173 q 1008 1165 989 1179 q 1032 1123 1027 1152 q 1031 1055 1038 1095 q 1004 968 1024 1015 q 906 774 970 891 q 783 543 842 657 q 688 330 724 429 m 885 599 q 880 604 885 599 q 875 623 875 609 q 885 648 875 637 q 909 658 895 658 q 933 648 923 658 q 943 623 943 637 q 933 599 943 609 q 909 589 923 589 q 885 599 895 589 m 1200 463 q 1220 471 1208 471 q 1238 465 1232 471 q 1247 447 1246 458 q 1241 426 1249 437 l 1240 425 q 1152 345 1174 362 q 1095 309 1120 319 q 1069 304 1081 304 q 1046 313 1056 304 q 1035 343 1036 323 q 1038 379 1034 359 q 1041 387 1039 382 q 1042 393 1042 392 q 977 315 1005 335 q 935 304 960 303 q 913 309 922 304 q 899 327 901 315 l 898 328 l 898 328 l 898 334 l 898 334 q 899 336 899 335 q 783 323 831 301 l 783 323 q 765 345 771 329 q 762 374 761 355 q 781 441 764 401 q 836 543 802 494 q 879 562 854 571 q 892 545 890 557 q 887 520 895 532 q 833 418 847 459 q 828 391 827 398 l 829 387 q 888 408 853 384 q 945 473 927 436 q 1145 985 997 616 q 1181 1024 1158 1022 q 1200 1018 1192 1025 q 1209 1000 1206 1012 l 1210 999 q 1210 998 1210 998 l 1210 987 l 1210 985 q 1193 936 1208 978 q 1150 823 1160 850 q 1001 449 1092 675 q 1024 475 1020 471 q 1069 509 1049 500 q 1117 502 1099 519 l 1118 502 q 1127 477 1126 492 q 1125 447 1128 463 q 1106 383 1121 427 l 1106 382 q 1105 378 1105 380 q 1107 379 1105 378 q 1109 380 1108 380 q 1200 463 1144 408 m 758 226 q 769 217 764 222 q 773 204 773 212 q 769 191 773 197 q 758 181 765 184 q 740 178 749 178 q 720 181 729 178 q 707 192 713 184 q 702 208 702 199 l 713 209 q 717 197 715 200 q 726 191 720 193 q 740 188 731 188 q 751 190 746 188 q 759 195 757 192 q 762 203 762 199 q 760 210 762 208 q 751 216 758 213 q 745 217 751 216 q 735 220 740 219 q 718 226 722 224 q 709 234 711 229 q 705 245 705 239 q 709 258 705 252 q 721 267 713 263 q 737 269 727 269 q 754 267 748 269 q 766 257 762 263 q 770 243 770 251 l 759 242 q 753 255 758 251 q 737 259 747 259 q 722 255 727 259 q 717 245 717 251 q 720 238 717 241 q 739 231 724 235 q 758 226 751 229 m 796 258 l 796 268 l 867 268 l 867 258 l 838 258 l 838 179 l 825 179 l 825 258 l 796 258 m 951 216 l 951 268 l 963 268 l 963 216 q 960 195 963 204 q 949 182 957 187 q 928 178 941 178 q 907 182 916 178 q 897 194 900 186 q 893 216 893 203 l 893 268 l 905 268 l 905 216 q 907 199 905 205 q 914 191 909 195 q 927 188 920 188 q 945 194 940 188 q 951 216 951 201 m 1056 260 q 1067 245 1064 254 q 1070 224 1070 235 q 1067 206 1070 217 q 1061 193 1065 199 q 1053 185 1057 189 q 1043 180 1048 181 q 1029 179 1035 179 l 996 179 l 996 268 l 1027 268 q 1043 267 1036 268 q 1056 260 1052 264 m 1055 207 q 1058 224 1058 216 q 1053 245 1058 239 q 1042 256 1049 252 q 1027 258 1038 258 l 1008 258 l 1008 189 l 1027 189 q 1041 191 1036 189 q 1049 196 1046 193 q 1055 207 1053 200 m 1114 179 l 1102 179 l 1102 268 l 1114 268 l 1114 179 m 1210 264 q 1225 248 1219 258 q 1230 223 1230 237 q 1224 199 1230 213 q 1209 183 1219 188 q 1187 178 1198 178 q 1165 184 1175 178 q 1149 200 1154 190 q 1145 222 1145 210 q 1156 257 1145 245 q 1187 270 1169 270 q 1210 264 1200 270 m 1209 197 q 1218 224 1218 207 q 1214 242 1218 234 q 1203 255 1209 252 q 1187 260 1195 260 q 1166 251 1176 260 q 1157 222 1157 243 q 1166 197 1157 205 q 1187 188 1175 188 q 1209 197 1201 188 m 3977 481 l 4312 1 l 3642 1 l 3977 481 z "},"%":{"ha":4331,"x_min":21,"x_max":4312,"o":"m 1980 899 q 2042 843 2017 884 q 2067 724 2067 802 q 2054 629 2067 667 q 2018 567 2041 589 q 1974 541 2002 551 q 1898 532 1948 532 l 1792 532 l 1792 909 l 1896 909 q 1980 899 1954 909 m 2383 338 q 2404 313 2397 328 q 2412 276 2412 296 q 2395 223 2412 241 q 2351 205 2378 205 q 2308 223 2326 205 q 2291 273 2291 242 q 2309 330 2291 312 q 2351 347 2327 347 q 2383 338 2370 347 m 3560 895 q 3620 825 3600 870 q 3640 720 3640 780 q 3593 573 3640 625 q 3472 522 3545 522 q 3352 572 3399 522 q 3303 713 3303 624 q 3354 871 3303 823 q 3473 919 3403 919 q 3560 895 3522 919 m 1335 1172 l 4312 1172 l 3495 1 l 1335 1 q 1542 262 1468 108 q 1615 586 1615 416 q 1542 910 1615 756 q 1335 1172 1468 1065 m 2102 343 l 2102 363 l 1984 363 l 1984 188 l 2007 188 l 2007 268 l 2089 268 l 2089 288 l 2007 288 l 2007 343 l 2102 343 m 2121 623 q 2134 723 2134 666 q 2115 840 2134 790 q 2057 924 2096 892 q 1984 960 2028 949 q 1897 966 1955 966 l 1727 966 l 1727 474 l 1905 474 q 1984 482 1950 474 q 2043 507 2016 490 q 2087 552 2067 524 q 2121 623 2109 582 m 2424 228 q 2435 275 2435 249 q 2425 323 2435 302 q 2395 355 2414 345 q 2351 367 2376 367 q 2291 342 2315 367 q 2267 273 2267 317 q 2277 230 2267 250 q 2307 197 2288 209 q 2351 185 2325 185 q 2394 196 2375 185 q 2424 228 2414 208 m 2593 474 l 2593 532 l 2291 532 l 2291 700 l 2563 700 l 2563 758 l 2291 758 l 2291 909 l 2582 909 l 2582 966 l 2226 966 l 2226 474 l 2593 474 m 2721 188 l 2745 188 l 2745 363 l 2723 363 l 2723 226 l 2631 363 l 2607 363 l 2607 188 l 2629 188 l 2629 326 l 2721 188 m 3052 343 l 3052 363 l 2913 363 l 2913 343 l 2970 343 l 2970 188 l 2994 188 l 2994 343 l 3052 343 m 3151 474 l 3151 966 l 3063 966 l 2945 624 q 2920 545 2928 571 q 2896 618 2915 561 l 2779 966 l 2681 966 l 2681 474 l 2744 474 l 2744 893 l 2886 474 l 2945 474 l 3088 886 l 3088 474 l 3151 474 m 3592 496 q 3677 585 3647 526 q 3708 720 3708 644 q 3679 852 3708 793 q 3595 943 3651 909 q 3472 975 3540 975 q 3302 906 3368 975 q 3236 714 3236 838 q 3265 591 3236 648 q 3347 499 3293 532 q 3472 466 3402 466 q 3592 496 3538 466 m 480 1279 q 550 1309 480 1279 q 773 1339 620 1339 q 1066 1279 926 1339 q 1306 1119 1205 1219 q 1466 879 1407 1018 q 1526 586 1526 739 q 1466 293 1526 433 q 1306 54 1407 154 q 1066 -106 1205 -47 q 773 -166 926 -166 q 480 -106 620 -166 q 241 54 341 -47 q 81 293 140 154 q 21 586 21 433 q 81 879 21 739 q 241 1119 140 1018 q 480 1279 341 1219 m 516 -22 q 578 -48 516 -22 q 773 -75 639 -75 q 1030 -22 907 -75 q 1241 118 1152 30 q 1381 329 1329 207 q 1434 586 1434 452 q 1381 843 1434 720 q 1241 1054 1329 965 q 1030 1195 1152 1142 q 773 1247 907 1247 q 516 1195 639 1247 q 306 1054 394 1142 q 165 843 217 965 q 113 586 113 720 q 165 329 113 452 q 306 118 217 207 q 516 -22 394 30 m 688 330 q 647 159 654 234 q 650 108 645 140 q 657 57 655 75 q 650 17 659 39 q 625 -1 640 2 q 595 2 610 -5 q 568 20 581 9 q 544 43 555 30 q 527 105 528 66 q 539 195 526 144 q 571 300 552 245 q 622 421 591 355 q 682 544 653 486 q 748 669 711 602 q 813 783 786 736 q 872 886 840 830 q 918 967 905 943 q 946 1022 935 998 q 962 1064 958 1046 q 965 1091 967 1081 q 954 1102 963 1101 q 927 1096 944 1103 q 885 1068 911 1088 q 826 1020 859 1049 q 429 562 670 876 q 260 342 349 455 q 222 314 240 314 q 191 328 195 314 l 191 338 q 241 478 210 398 q 308 634 272 557 q 378 776 344 711 q 441 877 413 841 q 481 905 469 913 l 481 902 q 416 754 457 846 q 396 654 378 673 q 481 713 414 635 q 570 821 500 735 q 692 966 640 907 q 791 1070 744 1025 q 887 1146 843 1120 q 960 1176 930 1173 q 1008 1165 989 1179 q 1032 1123 1027 1152 q 1031 1055 1038 1095 q 1004 968 1024 1015 q 906 774 970 891 q 783 543 842 657 q 688 330 724 429 m 885 599 q 880 604 885 599 q 875 623 875 609 q 885 648 875 637 q 909 658 895 658 q 933 648 923 658 q 943 623 943 637 q 933 599 943 609 q 909 589 923 589 q 885 599 895 589 m 1200 463 q 1220 471 1208 471 q 1238 465 1231 471 q 1247 447 1246 458 q 1241 426 1249 437 l 1240 425 q 1152 345 1174 362 q 1095 309 1120 319 q 1069 304 1081 304 q 1046 313 1056 304 q 1035 343 1036 323 q 1038 379 1034 359 q 1041 387 1039 382 q 1042 393 1042 392 q 977 315 1005 335 q 935 304 960 303 q 913 309 922 304 q 899 327 901 315 l 898 328 l 898 328 l 898 334 l 898 334 q 899 336 899 335 q 783 323 831 301 l 783 323 q 765 345 771 329 q 762 374 761 355 q 781 441 764 399 q 836 543 804 496 q 879 562 854 571 q 892 545 890 557 q 887 520 895 532 q 833 418 847 459 q 828 391 827 398 l 829 387 q 888 408 853 384 q 945 473 927 436 q 1145 985 997 616 q 1181 1024 1158 1022 l 1182 1024 q 1200 1018 1192 1025 q 1209 1000 1206 1012 l 1210 999 q 1210 998 1210 998 l 1210 987 l 1210 985 q 1193 936 1208 978 q 1150 823 1160 850 q 1001 449 1092 675 q 1024 475 1020 471 q 1069 509 1049 500 q 1117 502 1099 519 l 1118 502 q 1127 477 1126 492 q 1125 447 1128 463 q 1106 383 1121 427 l 1106 382 q 1105 378 1105 380 q 1107 379 1105 378 q 1109 380 1108 380 q 1200 463 1144 408 m 758 226 q 769 217 764 222 q 773 204 773 212 q 769 191 773 197 q 758 181 765 184 q 740 178 749 178 q 720 181 728 178 q 707 192 713 183 q 702 208 702 199 l 713 209 q 717 197 715 200 q 726 191 720 193 q 740 188 731 188 q 751 190 746 188 q 759 195 757 192 q 762 203 762 199 q 760 210 762 208 q 751 216 758 213 q 745 217 751 216 q 735 220 740 219 q 718 226 722 224 q 709 234 711 229 q 705 245 705 239 q 709 258 705 252 q 721 267 713 263 q 737 269 727 269 q 754 267 748 269 q 766 257 762 263 q 770 243 770 251 l 759 242 q 753 255 758 251 q 737 259 747 259 q 722 255 727 259 q 717 245 717 251 q 720 238 717 241 q 739 231 724 235 q 758 226 751 229 m 796 258 l 796 268 l 867 268 l 867 258 l 838 258 l 838 179 l 825 179 l 825 258 l 796 258 m 951 216 l 951 268 l 963 268 l 963 216 q 960 195 963 204 q 949 182 957 187 q 928 178 941 178 q 907 182 916 178 q 897 194 900 186 q 893 216 893 203 l 893 268 l 905 268 l 905 216 q 907 199 905 205 q 914 191 909 195 q 927 188 920 188 q 945 194 940 188 q 951 216 951 201 m 1056 260 q 1067 245 1064 254 q 1070 224 1070 235 q 1067 206 1070 217 q 1061 193 1065 199 q 1053 185 1057 189 q 1043 180 1048 181 q 1029 179 1035 179 l 996 179 l 996 268 l 1027 268 q 1043 267 1036 268 q 1056 260 1052 264 m 1055 207 q 1058 224 1058 216 q 1053 245 1058 239 q 1042 256 1049 252 q 1027 258 1038 258 l 1008 258 l 1008 189 l 1027 189 q 1041 191 1036 189 q 1049 196 1046 193 q 1055 207 1053 200 m 1114 179 l 1102 179 l 1102 268 l 1114 268 l 1114 179 m 1210 264 q 1225 248 1219 258 q 1230 223 1230 237 q 1224 199 1230 213 q 1209 183 1219 188 q 1187 178 1198 178 q 1165 184 1175 178 q 1149 200 1154 190 q 1145 222 1145 210 q 1157 257 1145 245 q 1187 270 1170 270 q 1210 264 1200 270 m 1209 197 q 1218 224 1218 207 q 1214 242 1218 234 q 1203 255 1209 252 q 1187 260 1195 260 q 1166 251 1176 260 q 1157 222 1157 243 q 1166 197 1157 205 q 1187 188 1174 188 q 1209 197 1201 188 m 3977 481 l 4312 1 l 3642 1 l 3977 481 z "},"&":{"ha":4331,"x_min":21,"x_max":4312,"o":"m 1980 899 q 2042 843 2017 884 q 2067 724 2067 802 q 2054 629 2067 667 q 2018 567 2041 589 q 1974 541 2002 551 q 1898 532 1948 532 l 1792 532 l 1792 909 l 1896 909 q 1980 899 1954 909 m 2383 338 q 2404 313 2397 328 q 2412 276 2412 296 q 2395 223 2412 241 q 2351 205 2378 205 q 2308 223 2326 205 q 2291 273 2291 242 q 2309 330 2291 312 q 2351 347 2327 347 q 2383 338 2370 347 m 3560 895 q 3620 825 3600 870 q 3640 720 3640 780 q 3593 573 3640 625 q 3472 522 3545 522 q 3352 572 3399 522 q 3303 713 3303 624 q 3354 871 3303 823 q 3473 919 3403 919 q 3560 895 3522 919 m 1335 1172 l 4312 1172 l 3495 1 l 1335 1 q 1542 262 1468 108 q 1615 586 1615 416 q 1542 910 1615 756 q 1335 1172 1468 1065 m 2102 343 l 2102 363 l 1984 363 l 1984 188 l 2007 188 l 2007 268 l 2089 268 l 2089 288 l 2007 288 l 2007 343 l 2102 343 m 2121 623 q 2134 723 2134 666 q 2115 840 2134 790 q 2057 924 2096 892 q 1984 960 2028 949 q 1897 966 1955 966 l 1727 966 l 1727 474 l 1905 474 q 1984 482 1950 474 q 2043 507 2016 490 q 2087 552 2067 524 q 2121 623 2109 582 m 2424 228 q 2435 275 2435 249 q 2425 323 2435 302 q 2395 355 2414 345 q 2351 367 2376 367 q 2291 342 2315 367 q 2267 273 2267 317 q 2277 230 2267 250 q 2307 197 2288 209 q 2351 185 2325 185 q 2394 196 2375 185 q 2424 228 2414 208 m 2593 474 l 2593 532 l 2291 532 l 2291 700 l 2563 700 l 2563 758 l 2291 758 l 2291 909 l 2582 909 l 2582 966 l 2226 966 l 2226 474 l 2593 474 m 2721 188 l 2745 188 l 2745 363 l 2723 363 l 2723 226 l 2631 363 l 2607 363 l 2607 188 l 2629 188 l 2629 326 l 2721 188 m 3052 343 l 3052 363 l 2913 363 l 2913 343 l 2970 343 l 2970 188 l 2994 188 l 2994 343 l 3052 343 m 3088 474 l 3151 474 l 3151 966 l 3063 966 l 2945 624 q 2920 545 2928 571 q 2896 618 2915 561 l 2779 966 l 2681 966 l 2681 474 l 2744 474 l 2744 893 l 2886 474 l 2945 474 l 3088 886 l 3088 474 m 3592 496 q 3677 585 3647 526 q 3708 720 3708 644 q 3679 852 3708 793 q 3595 943 3651 909 q 3472 975 3540 975 q 3302 906 3368 975 q 3236 714 3236 838 q 3265 591 3236 648 q 3347 499 3293 532 q 3472 466 3402 466 q 3592 496 3538 466 m 480 1279 q 550 1309 480 1279 q 773 1339 620 1339 q 1066 1279 926 1339 q 1306 1119 1205 1219 q 1466 879 1407 1018 q 1526 586 1526 739 q 1466 293 1526 433 q 1306 54 1407 154 q 1066 -106 1205 -47 q 773 -166 926 -166 q 480 -106 620 -166 q 241 54 341 -47 q 81 293 140 154 q 21 586 21 433 q 81 879 21 739 q 241 1119 140 1018 q 480 1279 341 1219 m 516 -22 q 578 -48 516 -22 q 773 -75 639 -75 q 1030 -22 907 -75 q 1241 118 1152 30 q 1381 329 1329 207 q 1434 586 1434 452 q 1381 843 1434 720 q 1241 1054 1329 965 q 1030 1195 1152 1142 q 773 1247 907 1247 q 516 1195 639 1247 q 306 1054 394 1142 q 165 843 217 965 q 113 586 113 720 q 165 329 113 452 q 306 118 217 207 q 516 -22 394 30 m 688 330 q 647 159 654 234 q 650 108 645 140 q 657 57 655 75 q 650 17 659 39 q 625 -1 640 2 q 595 2 610 -5 q 568 20 581 9 q 544 43 555 30 q 527 105 528 66 q 539 195 526 144 q 571 300 552 245 q 622 421 591 355 q 682 544 653 486 q 748 669 711 602 q 813 783 786 736 q 872 886 840 830 q 918 967 905 943 q 946 1022 935 998 q 962 1064 958 1046 q 965 1091 967 1081 q 954 1102 963 1101 q 927 1096 944 1103 q 885 1068 911 1088 q 826 1020 859 1049 q 429 562 670 876 q 260 342 349 455 q 222 314 240 314 q 191 328 195 314 l 191 338 q 241 478 210 398 q 308 634 272 557 q 378 776 344 711 q 441 877 413 841 q 481 905 469 913 l 481 902 q 416 754 457 846 q 396 654 378 673 q 481 713 414 635 q 570 821 500 735 q 692 966 640 907 q 791 1070 744 1025 q 887 1146 843 1120 q 960 1176 930 1173 q 1008 1165 989 1179 q 1032 1123 1027 1152 q 1031 1055 1038 1095 q 1004 968 1024 1015 q 906 774 970 891 q 783 543 842 657 q 688 330 724 429 m 885 599 q 880 604 885 599 q 875 623 875 609 q 885 648 875 637 q 909 658 895 658 q 933 648 923 658 q 943 623 943 637 q 933 599 943 609 q 909 589 923 589 q 885 599 895 589 m 1200 463 q 1220 471 1208 471 q 1238 465 1232 471 q 1247 447 1246 458 q 1241 426 1249 437 l 1240 425 q 1152 345 1174 362 q 1095 309 1120 319 q 1069 304 1081 304 q 1046 313 1056 304 q 1035 343 1036 323 q 1038 379 1034 359 q 1042 393 1039 382 q 977 315 1004 334 q 935 304 960 303 q 913 309 922 304 q 899 327 901 315 l 898 328 l 898 328 l 898 334 l 898 334 q 899 336 899 335 q 783 323 831 301 l 783 323 q 765 345 771 329 q 762 374 761 355 q 781 441 764 401 q 836 543 802 494 q 879 562 854 571 q 892 545 890 557 q 887 520 895 532 q 833 418 847 459 q 828 391 827 398 l 829 387 l 829 387 q 888 408 853 384 q 945 473 927 436 q 1145 985 997 616 q 1181 1024 1158 1022 q 1200 1018 1192 1025 q 1209 1000 1206 1012 l 1210 999 q 1210 998 1210 998 l 1210 987 l 1210 985 q 1193 936 1208 978 q 1150 823 1160 850 q 1001 449 1092 675 q 1024 475 1020 471 q 1069 509 1049 500 q 1117 502 1098 519 l 1118 502 q 1127 477 1126 492 q 1125 447 1128 463 q 1106 383 1121 427 l 1106 382 q 1105 378 1105 380 q 1107 379 1105 378 q 1109 380 1108 380 q 1200 463 1144 408 m 758 226 q 770 217 766 222 q 773 204 773 213 q 769 191 773 197 q 758 181 765 184 q 740 178 749 178 q 720 181 729 178 q 707 192 713 184 q 702 208 702 199 l 713 209 q 717 197 715 200 q 726 191 720 193 q 740 188 731 188 q 751 190 746 188 q 759 195 757 192 q 762 203 762 199 q 760 210 762 208 q 751 216 758 213 q 745 217 751 216 q 735 220 740 219 q 718 226 722 224 q 709 234 711 229 q 706 245 706 239 q 709 258 706 252 q 721 267 713 263 q 737 269 727 269 q 754 267 748 269 q 766 257 762 263 q 770 243 770 251 l 759 242 q 753 255 758 251 q 737 259 747 259 q 722 255 727 259 q 717 245 717 251 q 720 238 717 241 q 739 231 724 235 q 758 226 751 229 m 796 258 l 796 268 l 867 268 l 867 258 l 838 258 l 838 179 l 825 179 l 825 258 l 796 258 m 951 216 l 951 268 l 963 268 l 963 216 q 960 195 963 204 q 949 182 957 187 q 928 178 941 178 q 907 182 916 178 q 897 194 900 186 q 893 216 893 203 l 893 268 l 905 268 l 905 216 q 907 199 905 205 q 914 191 909 195 q 927 188 920 188 q 945 194 940 188 q 951 216 951 201 m 1056 260 q 1067 245 1064 254 q 1070 224 1070 235 q 1067 206 1070 217 q 1061 193 1065 199 q 1053 185 1057 189 q 1043 180 1048 181 q 1029 179 1035 179 l 996 179 l 996 268 l 1027 268 q 1043 267 1036 268 q 1056 260 1052 264 m 1055 207 q 1058 224 1058 216 q 1053 245 1058 239 q 1042 256 1048 253 q 1027 258 1038 258 l 1008 258 l 1008 189 l 1027 189 q 1041 191 1036 189 q 1049 196 1046 193 q 1055 207 1053 200 m 1114 179 l 1102 179 l 1102 268 l 1114 268 l 1114 179 m 1210 264 q 1225 248 1219 258 q 1230 223 1230 238 q 1224 199 1230 212 q 1209 183 1219 188 q 1187 178 1198 178 q 1165 184 1175 178 q 1149 200 1154 190 q 1145 222 1145 210 q 1157 257 1145 245 q 1187 270 1170 270 q 1210 264 1200 270 m 1209 197 q 1218 224 1218 207 q 1214 242 1218 234 q 1203 255 1209 252 q 1187 260 1195 260 q 1166 251 1176 260 q 1157 222 1157 243 q 1166 197 1157 205 q 1187 188 1174 188 q 1209 197 1201 188 m 3977 481 l 4312 1 l 3642 1 l 3977 481 z "},"'":{"ha":4331,"x_min":21,"x_max":4312,"o":"m 1980 900 q 2042 844 2017 886 q 2067 726 2067 803 q 2054 631 2067 669 q 2018 568 2041 591 q 1974 543 2002 552 q 1898 534 1948 534 l 1792 534 l 1792 910 l 1896 910 q 1980 900 1954 910 m 2383 340 q 2404 315 2397 331 q 2412 277 2412 298 q 2395 225 2412 243 q 2351 206 2377 206 q 2308 224 2326 206 q 2291 275 2291 243 q 2309 332 2291 313 q 2351 349 2327 349 q 2383 340 2370 349 m 3560 896 q 3620 827 3600 871 q 3640 722 3640 782 q 3593 574 3640 626 q 3472 523 3545 523 q 3352 574 3400 523 q 3303 715 3303 626 q 3354 873 3303 825 q 3473 921 3403 921 q 3560 896 3520 921 m 1335 1173 l 4312 1173 l 3495 2 l 1335 2 q 1542 263 1468 109 q 1615 588 1615 418 q 1542 912 1615 758 q 1335 1173 1468 1066 m 2007 345 l 2102 345 l 2102 366 l 1984 366 l 1984 189 l 2007 189 l 2007 269 l 2089 269 l 2089 290 l 2007 290 l 2007 345 m 2121 625 q 2134 724 2134 668 q 2115 842 2134 791 q 2057 926 2096 893 q 1984 961 2028 951 q 1897 968 1952 968 l 1727 968 l 1727 475 l 1905 475 q 1984 484 1947 475 q 2043 509 2018 492 q 2087 553 2067 525 q 2121 625 2108 583 m 2424 229 q 2435 277 2435 250 q 2425 324 2435 304 q 2395 357 2414 346 q 2351 368 2376 368 q 2291 344 2314 368 q 2267 275 2267 319 q 2277 231 2267 252 q 2307 199 2287 211 q 2351 186 2326 186 q 2394 197 2375 186 q 2424 229 2414 209 m 2593 475 l 2593 534 l 2291 534 l 2291 701 l 2563 701 l 2563 759 l 2291 759 l 2291 910 l 2582 910 l 2582 968 l 2226 968 l 2226 475 l 2593 475 m 2721 189 l 2745 189 l 2745 366 l 2723 366 l 2723 227 l 2631 366 l 2607 366 l 2607 189 l 2629 189 l 2629 328 l 2721 189 m 3052 345 l 3052 366 l 2913 366 l 2913 345 l 2970 345 l 2970 189 l 2994 189 l 2994 345 l 3052 345 m 3151 475 l 3151 968 l 3063 968 l 2945 625 q 2920 547 2925 564 q 2896 619 2916 557 l 2779 968 l 2681 968 l 2681 475 l 2744 475 l 2744 895 l 2886 475 l 2945 475 l 3088 888 l 3088 475 l 3151 475 m 3472 467 q 3592 498 3537 467 q 3677 587 3647 528 q 3708 721 3708 646 q 3679 853 3708 795 q 3595 944 3651 911 q 3472 977 3540 977 q 3302 907 3368 977 q 3236 715 3236 839 q 3265 593 3236 651 q 3347 500 3294 533 q 3472 467 3402 467 m 480 1280 q 550 1310 480 1280 q 773 1340 620 1340 q 1066 1280 926 1340 q 1306 1120 1205 1221 q 1466 881 1407 1020 q 1526 588 1526 741 q 1466 295 1526 435 q 1306 55 1407 156 q 1066 -105 1205 -45 q 773 -165 926 -165 q 480 -105 620 -165 q 241 55 341 -45 q 81 295 140 156 q 21 588 21 435 q 81 881 21 741 q 241 1120 140 1020 q 480 1280 341 1221 m 516 -20 q 578 -46 516 -20 q 773 -73 639 -73 q 1030 -20 907 -73 q 1241 120 1152 32 q 1381 331 1329 209 q 1434 588 1434 454 q 1381 845 1434 722 q 1241 1056 1329 967 q 1030 1196 1152 1144 q 773 1249 907 1249 q 516 1196 639 1249 q 306 1056 394 1144 q 165 845 217 967 q 113 588 113 722 q 165 331 113 454 q 306 120 217 209 q 516 -20 394 32 m 688 332 q 647 161 654 237 q 650 109 645 142 q 657 59 655 77 q 650 18 659 41 q 625 0 640 3 q 595 4 610 -3 q 568 21 581 11 q 544 44 555 31 q 527 107 528 68 q 539 196 526 146 q 571 302 552 247 q 622 422 591 357 q 682 546 653 488 q 748 671 711 603 q 813 785 786 739 q 872 888 840 832 q 918 969 905 945 q 946 1024 935 1000 q 962 1066 958 1048 q 965 1093 967 1083 q 954 1104 963 1103 q 927 1098 944 1105 q 885 1070 911 1090 q 826 1022 859 1051 q 429 564 670 878 q 260 343 338 442 q 222 316 240 316 q 191 330 195 316 l 191 339 q 241 479 210 399 q 308 636 272 559 q 378 778 344 713 q 441 879 413 842 q 481 907 469 915 l 481 903 q 416 755 457 847 q 396 655 378 674 q 481 715 414 636 q 570 822 500 736 q 692 967 640 908 q 791 1072 744 1026 q 887 1148 843 1121 q 960 1178 930 1175 q 1008 1167 989 1181 q 1032 1125 1027 1154 q 1031 1057 1038 1097 q 1004 970 1024 1017 q 906 776 970 893 q 783 545 842 659 q 688 332 724 431 m 885 600 q 880 605 885 600 q 875 625 875 610 q 885 649 875 639 q 909 659 895 659 q 933 649 923 659 q 943 625 943 639 q 933 600 943 610 q 909 590 923 590 q 885 600 895 590 m 1200 464 q 1220 472 1208 472 q 1238 466 1232 473 q 1247 449 1246 459 q 1241 427 1249 438 l 1240 426 q 1152 346 1174 363 q 1095 311 1122 323 q 1069 305 1080 305 q 1046 315 1056 305 q 1035 345 1036 325 q 1038 380 1034 361 q 1042 394 1039 384 q 977 316 1004 335 q 935 306 960 304 q 913 311 922 306 q 899 328 901 316 l 898 329 q 898 330 898 330 l 898 335 l 898 336 q 899 338 899 337 q 783 324 831 302 l 783 325 q 765 347 771 331 q 762 375 761 357 q 781 442 764 402 q 836 545 803 497 q 856 563 844 558 q 879 563 868 567 q 892 547 890 558 q 887 522 895 533 q 833 419 847 460 q 828 392 827 399 l 829 388 q 888 410 853 385 q 945 474 927 437 q 1145 986 997 617 q 1181 1026 1158 1024 q 1200 1020 1192 1027 q 1209 1001 1206 1014 l 1210 1000 q 1210 999 1210 1000 l 1210 989 l 1210 987 q 1193 937 1208 979 q 1150 825 1160 851 q 1001 450 1092 676 q 1024 477 1020 473 q 1069 511 1050 503 q 1117 503 1098 522 l 1118 503 q 1127 479 1126 494 q 1125 449 1128 465 q 1106 385 1121 428 q 1105 379 1105 379 q 1109 382 1107 381 q 1200 464 1148 413 m 758 227 q 770 218 766 224 q 773 205 773 214 q 769 193 773 199 q 758 182 764 185 q 740 179 749 179 q 720 182 729 179 q 707 193 713 185 q 702 209 702 201 l 713 210 q 717 199 715 202 q 726 193 720 195 q 740 190 731 190 q 751 192 746 190 q 759 197 757 194 q 762 205 762 201 q 760 212 762 209 q 751 217 758 214 q 745 219 751 217 q 735 222 740 220 q 718 227 722 225 q 709 235 711 231 q 706 247 706 240 q 709 259 706 254 q 721 268 713 264 q 737 271 729 271 q 754 268 746 271 q 766 258 762 264 q 770 245 770 252 l 759 243 q 753 256 758 252 q 737 260 747 260 q 722 257 726 260 q 717 248 717 253 q 720 239 717 243 q 738 233 723 237 q 758 227 749 231 m 796 259 l 796 270 l 867 270 l 867 259 l 838 259 l 838 180 l 825 180 l 825 259 l 796 259 m 951 218 l 951 270 l 963 270 l 963 218 q 960 197 963 205 q 949 184 957 189 q 928 179 941 179 q 907 183 916 179 q 897 196 900 186 q 893 218 893 205 l 893 270 l 905 270 l 905 218 q 907 201 905 206 q 914 193 909 196 q 927 190 919 190 q 945 195 941 190 q 951 218 951 203 m 1056 262 q 1067 247 1064 255 q 1070 226 1070 237 q 1067 208 1070 218 q 1061 195 1065 200 q 1053 186 1057 190 q 1043 182 1049 183 q 1029 180 1031 180 l 996 180 l 996 270 l 1027 270 q 1043 269 1036 270 q 1056 262 1051 267 m 1055 209 q 1058 226 1058 218 q 1053 248 1058 241 q 1042 257 1048 254 q 1027 259 1038 259 l 1008 259 l 1008 191 l 1027 191 q 1041 193 1038 191 q 1049 197 1046 195 q 1055 209 1053 201 m 1114 180 l 1102 180 l 1102 270 l 1114 270 l 1114 180 m 1210 265 q 1225 249 1219 259 q 1230 225 1230 239 q 1224 201 1230 213 q 1209 184 1219 189 q 1187 179 1198 179 q 1165 185 1175 179 q 1149 201 1154 191 q 1145 224 1145 211 q 1156 258 1145 247 q 1187 271 1169 271 q 1210 265 1200 271 m 1209 199 q 1218 225 1218 209 q 1214 244 1218 236 q 1203 256 1210 252 q 1187 261 1195 261 q 1166 252 1176 261 q 1157 224 1157 244 q 1166 199 1157 208 q 1187 189 1175 189 q 1209 199 1201 189 m 3977 482 l 4312 2 l 3642 2 l 3977 482 z "},"(":{"ha":4331,"x_min":21,"x_max":4312,"o":"m 1980 900 q 2042 844 2017 886 q 2067 726 2067 803 q 2054 631 2067 669 q 2018 568 2041 591 q 1974 543 2002 552 q 1898 534 1948 534 l 1792 534 l 1792 910 l 1896 910 q 1980 900 1954 910 m 2383 340 q 2404 315 2397 331 q 2412 277 2412 298 q 2395 225 2412 243 q 2351 206 2377 206 q 2308 224 2326 206 q 2291 275 2291 243 q 2309 332 2291 315 q 2351 349 2327 349 q 2383 340 2370 349 m 3560 896 q 3620 827 3600 871 q 3640 722 3640 782 q 3593 574 3640 626 q 3472 523 3545 523 q 3352 574 3400 523 q 3303 715 3303 626 q 3354 873 3303 825 q 3473 921 3403 921 q 3560 896 3520 921 m 1335 1173 l 4312 1173 l 3495 2 l 1335 2 q 1542 263 1468 109 q 1615 588 1615 418 q 1542 912 1615 758 q 1335 1173 1468 1066 m 2007 345 l 2102 345 l 2102 366 l 1984 366 l 1984 189 l 2007 189 l 2007 269 l 2089 269 l 2089 290 l 2007 290 l 2007 345 m 2121 625 q 2134 724 2134 668 q 2115 842 2134 791 q 2057 926 2096 893 q 1984 961 2028 951 q 1897 968 1952 968 l 1727 968 l 1727 475 l 1905 475 q 1984 484 1947 475 q 2043 509 2018 492 q 2087 553 2067 525 q 2121 625 2108 583 m 2424 229 q 2435 277 2435 250 q 2425 324 2435 304 q 2395 357 2414 346 q 2351 368 2376 368 q 2291 344 2314 368 q 2267 275 2267 319 q 2277 231 2267 252 q 2307 199 2287 211 q 2351 186 2326 186 q 2394 197 2375 186 q 2424 229 2414 209 m 2593 475 l 2593 534 l 2291 534 l 2291 701 l 2563 701 l 2563 759 l 2291 759 l 2291 910 l 2582 910 l 2582 968 l 2226 968 l 2226 475 l 2593 475 m 2721 189 l 2745 189 l 2745 366 l 2723 366 l 2723 227 l 2631 366 l 2607 366 l 2607 189 l 2629 189 l 2629 328 l 2721 189 m 3052 345 l 3052 366 l 2913 366 l 2913 345 l 2970 345 l 2970 189 l 2994 189 l 2994 345 l 3052 345 m 3088 475 l 3151 475 l 3151 968 l 3063 968 l 2945 625 q 2920 547 2925 564 q 2896 619 2916 557 l 2779 968 l 2681 968 l 2681 475 l 2744 475 l 2744 895 l 2886 475 l 2945 475 l 3088 888 l 3088 475 m 3472 467 q 3592 498 3537 467 q 3677 587 3647 528 q 3708 721 3708 646 q 3679 853 3708 795 q 3595 944 3651 911 q 3472 977 3540 977 q 3302 907 3368 977 q 3236 715 3236 839 q 3265 593 3236 651 q 3347 500 3294 533 q 3472 467 3402 467 m 480 1280 q 550 1310 480 1280 q 773 1340 620 1340 q 1066 1280 926 1340 q 1306 1120 1205 1221 q 1466 881 1407 1020 q 1526 588 1526 741 q 1466 295 1526 435 q 1306 55 1407 156 q 1066 -105 1205 -45 q 773 -165 926 -165 q 480 -105 620 -165 q 241 55 341 -45 q 81 295 140 156 q 21 588 21 435 q 81 881 21 741 q 241 1120 140 1020 q 480 1280 341 1221 m 516 -20 q 578 -46 516 -20 q 773 -73 639 -73 q 1030 -20 907 -73 q 1241 120 1152 32 q 1381 331 1329 209 q 1434 588 1434 454 q 1381 845 1434 722 q 1241 1056 1329 967 q 1030 1196 1152 1144 q 773 1249 907 1249 q 516 1196 639 1249 q 306 1056 394 1144 q 165 845 217 967 q 113 588 113 722 q 165 331 113 454 q 306 120 217 209 q 516 -20 394 32 m 688 332 q 647 161 654 237 q 650 109 645 142 q 657 59 655 77 q 650 18 659 41 q 625 0 640 3 q 595 4 610 -3 q 568 21 581 11 q 544 44 555 31 q 527 107 528 68 q 539 196 526 146 q 571 302 552 247 q 622 422 591 357 q 682 546 653 488 q 748 671 711 603 q 813 785 786 739 q 872 888 840 832 q 918 969 905 945 q 946 1024 935 1000 q 962 1066 958 1048 q 965 1093 967 1083 q 954 1104 963 1103 q 927 1098 944 1105 q 885 1070 911 1090 q 826 1022 859 1051 q 429 564 670 878 q 260 343 338 442 q 222 316 240 316 q 191 330 195 316 l 191 339 q 241 479 210 399 q 308 636 272 559 q 378 778 344 713 q 441 879 413 842 q 481 907 469 915 l 481 903 q 416 755 457 847 q 396 655 378 674 q 481 715 414 636 q 570 822 500 736 q 692 967 640 908 q 791 1072 744 1026 q 887 1148 843 1121 q 960 1178 930 1175 q 1008 1167 989 1181 q 1032 1125 1027 1154 q 1031 1057 1038 1097 q 1004 970 1024 1017 q 906 776 970 893 q 783 545 842 659 q 688 332 724 431 m 885 600 q 880 605 885 600 q 875 625 875 610 q 885 649 875 639 q 909 659 895 659 q 933 649 923 659 q 943 625 943 639 q 933 600 943 610 q 909 590 923 590 q 885 600 895 590 m 1200 464 q 1220 472 1208 472 q 1238 466 1232 473 q 1247 449 1246 459 q 1241 427 1249 438 l 1240 426 q 1152 346 1174 363 q 1095 311 1122 323 q 1069 305 1080 305 q 1046 315 1056 305 q 1035 345 1036 325 q 1038 380 1034 361 q 1042 394 1039 384 q 977 316 1004 335 q 935 306 960 304 q 913 311 922 306 q 899 328 901 316 l 898 329 q 898 330 898 330 l 898 335 l 898 336 q 899 338 899 337 q 783 324 831 302 l 783 325 q 765 347 771 331 q 762 375 761 357 q 781 442 764 402 q 836 545 803 497 q 856 563 844 558 q 879 563 868 567 q 892 547 890 558 q 887 522 895 533 q 833 419 846 458 q 828 392 827 401 l 829 388 l 829 388 q 888 410 853 385 q 945 474 927 437 q 1145 986 997 617 q 1181 1026 1158 1024 q 1200 1020 1192 1027 q 1209 1001 1206 1014 l 1210 1000 q 1210 999 1210 1000 l 1210 989 l 1210 987 q 1193 937 1208 979 q 1150 825 1160 851 q 1001 450 1092 676 q 1024 477 1020 473 q 1069 511 1050 503 q 1117 503 1097 522 l 1118 503 q 1127 479 1126 494 q 1125 449 1128 465 q 1106 385 1121 428 q 1105 379 1105 379 q 1109 382 1107 381 q 1200 464 1148 413 m 758 227 q 770 218 766 224 q 773 205 773 214 q 769 193 773 199 q 758 182 764 185 q 740 179 749 179 q 720 182 729 179 q 707 193 713 185 q 702 209 702 201 l 713 210 q 717 199 715 202 q 726 193 720 195 q 740 190 731 190 q 751 192 746 190 q 759 197 757 194 q 762 205 762 201 q 760 212 762 209 q 751 217 758 214 q 745 219 751 217 q 735 222 740 220 q 718 227 722 225 q 709 235 711 231 q 706 247 706 240 q 709 259 706 254 q 721 268 713 264 q 737 271 729 271 q 754 268 746 271 q 766 258 762 264 q 770 245 770 252 l 759 243 q 753 256 758 252 q 737 260 747 260 q 722 257 726 260 q 717 248 717 253 q 720 239 717 243 q 739 233 723 237 q 758 227 748 231 m 796 259 l 796 270 l 867 270 l 867 259 l 838 259 l 838 180 l 825 180 l 825 259 l 796 259 m 951 218 l 951 270 l 963 270 l 963 218 q 960 197 963 205 q 949 184 957 189 q 928 179 941 179 q 907 183 916 179 q 897 196 900 186 q 893 218 893 205 l 893 270 l 905 270 l 905 218 q 907 201 905 206 q 914 193 909 196 q 927 190 919 190 q 945 195 941 190 q 951 218 951 203 m 1056 262 q 1067 247 1064 255 q 1070 226 1070 237 q 1067 208 1070 218 q 1061 195 1065 200 q 1053 186 1057 190 q 1043 182 1049 183 q 1029 180 1031 180 l 996 180 l 996 270 l 1027 270 q 1043 269 1036 270 q 1056 262 1051 267 m 1055 209 q 1058 226 1058 218 q 1053 248 1058 241 q 1042 257 1048 254 q 1027 259 1038 259 l 1008 259 l 1008 191 l 1027 191 q 1041 193 1038 191 q 1049 197 1046 195 q 1055 209 1053 201 m 1114 180 l 1102 180 l 1102 270 l 1114 270 l 1114 180 m 1210 265 q 1225 249 1219 259 q 1230 225 1230 239 q 1224 201 1230 213 q 1209 184 1219 189 q 1187 179 1198 179 q 1165 185 1175 179 q 1149 201 1154 191 q 1145 224 1145 211 q 1157 258 1145 246 q 1187 271 1170 271 q 1210 265 1200 271 m 1209 199 q 1218 225 1218 209 q 1214 244 1218 236 q 1203 256 1210 252 q 1187 261 1195 261 q 1166 252 1176 261 q 1157 224 1157 244 q 1166 199 1157 208 q 1187 189 1174 189 q 1209 199 1201 189 m 3977 482 l 4312 2 l 3642 2 l 3977 482 z "},")":{"ha":4331,"x_min":21,"x_max":4312,"o":"m 1980 900 q 2042 844 2017 886 q 2067 726 2067 803 q 2054 631 2067 669 q 2018 568 2041 591 q 1974 543 2002 552 q 1898 534 1948 534 l 1792 534 l 1792 910 l 1896 910 q 1980 900 1954 910 m 2383 340 q 2404 315 2397 331 q 2412 277 2412 298 q 2395 225 2412 243 q 2351 206 2377 206 q 2308 224 2326 206 q 2291 275 2291 243 q 2309 332 2291 315 q 2351 349 2327 349 q 2383 340 2370 349 m 3560 896 q 3620 827 3600 871 q 3640 722 3640 782 q 3593 574 3640 626 q 3472 523 3545 523 q 3352 574 3400 523 q 3303 715 3303 626 q 3354 873 3303 825 q 3473 921 3403 921 q 3560 896 3520 921 m 1335 1173 l 4312 1173 l 3495 2 l 1335 2 q 1542 263 1468 109 q 1615 588 1615 418 q 1542 912 1615 758 q 1335 1173 1468 1066 m 2102 345 l 2102 366 l 1984 366 l 1984 189 l 2007 189 l 2007 269 l 2089 269 l 2089 290 l 2007 290 l 2007 345 l 2102 345 m 2121 625 q 2134 724 2134 668 q 2115 842 2134 791 q 2057 926 2096 893 q 1984 961 2028 951 q 1897 968 1952 968 l 1727 968 l 1727 475 l 1905 475 q 1984 484 1947 475 q 2043 509 2018 492 q 2087 553 2067 525 q 2121 625 2108 583 m 2424 229 q 2435 277 2435 250 q 2425 324 2435 304 q 2395 357 2414 346 q 2351 368 2376 368 q 2291 344 2314 368 q 2267 275 2267 319 q 2277 231 2267 252 q 2307 199 2287 211 q 2351 186 2326 186 q 2394 197 2375 186 q 2424 229 2414 209 m 2593 475 l 2593 534 l 2291 534 l 2291 701 l 2563 701 l 2563 759 l 2291 759 l 2291 910 l 2582 910 l 2582 968 l 2226 968 l 2226 475 l 2593 475 m 2721 189 l 2745 189 l 2745 366 l 2723 366 l 2723 227 l 2631 366 l 2607 366 l 2607 189 l 2629 189 l 2629 328 l 2721 189 m 3052 345 l 3052 366 l 2913 366 l 2913 345 l 2970 345 l 2970 189 l 2994 189 l 2994 345 l 3052 345 m 3088 475 l 3151 475 l 3151 968 l 3063 968 l 2945 625 q 2920 547 2925 564 q 2896 619 2916 557 l 2779 968 l 2681 968 l 2681 475 l 2744 475 l 2744 895 l 2886 475 l 2945 475 l 3088 888 l 3088 475 m 3472 467 q 3592 498 3537 467 q 3677 587 3647 528 q 3708 721 3708 646 q 3679 853 3708 795 q 3595 944 3651 911 q 3472 977 3540 977 q 3302 907 3368 977 q 3236 715 3236 839 q 3265 593 3236 651 q 3347 500 3294 533 q 3472 467 3402 467 m 480 1280 q 550 1310 480 1280 q 773 1340 620 1340 q 1066 1280 926 1340 q 1306 1120 1205 1221 q 1466 881 1407 1020 q 1526 588 1526 741 q 1466 295 1526 435 q 1306 55 1407 156 q 1066 -105 1205 -45 q 773 -165 926 -165 q 480 -105 620 -165 q 241 55 341 -45 q 81 295 140 156 q 21 588 21 435 q 81 881 21 741 q 241 1120 140 1020 q 480 1280 341 1221 m 516 -20 q 578 -46 516 -20 q 773 -73 639 -73 q 1030 -20 907 -73 q 1241 120 1152 32 q 1381 331 1329 209 q 1434 588 1434 454 q 1381 845 1434 722 q 1241 1056 1329 967 q 1030 1196 1152 1144 q 773 1249 907 1249 q 516 1196 639 1249 q 306 1056 394 1144 q 165 845 217 967 q 113 588 113 722 q 165 331 113 454 q 306 120 217 209 q 516 -20 394 32 m 688 332 q 647 161 654 237 q 650 109 645 142 q 657 59 655 77 q 650 18 659 41 q 625 0 640 3 q 595 4 610 -3 q 568 21 581 11 q 544 44 555 31 q 527 107 528 68 q 539 196 526 146 q 571 302 552 247 q 622 422 591 357 q 682 546 653 488 q 748 671 711 603 q 813 785 786 739 q 872 888 840 832 q 918 969 905 945 q 946 1024 935 1000 q 962 1066 958 1048 q 965 1093 967 1083 q 954 1104 963 1103 q 927 1098 944 1105 q 885 1070 911 1090 q 826 1022 859 1051 q 429 564 670 878 q 260 343 338 442 q 222 316 240 316 q 191 330 195 316 l 191 339 q 241 479 210 399 q 308 636 272 559 q 378 778 344 713 q 441 879 413 842 q 481 907 469 915 l 481 903 q 416 755 457 847 q 396 655 378 674 q 481 715 414 636 q 570 822 500 736 q 692 967 640 908 q 791 1072 744 1026 q 887 1148 843 1121 q 960 1178 930 1175 q 1008 1167 989 1181 q 1032 1125 1027 1154 q 1031 1057 1038 1097 q 1004 970 1024 1017 q 906 776 970 893 q 783 545 842 659 q 688 332 724 431 m 885 600 q 880 605 885 600 q 875 625 875 610 q 885 649 875 639 q 909 659 895 659 q 933 649 923 659 q 943 625 943 639 q 933 600 943 610 q 909 590 923 590 q 885 600 895 590 m 1200 464 q 1220 472 1208 472 q 1238 466 1232 473 q 1247 449 1246 459 q 1241 427 1249 438 l 1240 426 q 1152 346 1174 363 q 1095 311 1122 323 q 1069 305 1080 305 q 1046 315 1056 305 q 1035 345 1036 325 q 1038 380 1034 361 q 1042 394 1039 384 q 977 316 1004 335 q 935 306 960 304 q 913 311 922 306 q 899 328 901 316 l 898 329 q 898 330 898 330 l 898 335 l 898 336 q 899 338 899 337 q 783 324 831 302 l 783 325 q 765 347 771 331 q 762 375 761 357 q 781 442 764 402 q 836 545 803 497 q 856 563 844 558 q 879 563 868 567 q 892 547 890 558 q 887 522 895 533 q 833 419 847 460 q 828 392 827 399 l 829 388 l 829 388 q 888 410 853 385 q 945 474 927 437 q 1145 986 997 617 q 1181 1026 1158 1024 q 1200 1020 1192 1027 q 1209 1001 1206 1014 l 1210 1000 q 1210 999 1210 1000 l 1210 989 l 1210 987 q 1193 937 1208 979 q 1150 825 1160 851 q 1001 450 1092 676 q 1024 477 1020 473 q 1069 511 1050 503 q 1117 503 1097 522 l 1118 503 q 1127 479 1126 494 q 1125 449 1128 465 q 1106 385 1121 428 q 1105 379 1105 379 q 1109 382 1107 381 q 1200 464 1148 413 m 758 227 q 770 218 766 224 q 773 205 773 214 q 769 193 773 199 q 758 182 764 185 q 740 179 749 179 q 720 182 729 179 q 707 193 713 185 q 702 209 702 201 l 713 210 q 717 199 715 202 q 726 193 720 195 q 740 190 731 190 q 751 192 746 190 q 759 197 757 194 q 762 205 762 201 q 760 212 762 209 q 751 217 758 214 q 745 219 751 217 q 735 222 740 220 q 718 227 722 225 q 709 235 711 231 q 706 247 706 240 q 709 259 706 254 q 721 268 713 264 q 737 271 729 271 q 754 268 746 271 q 766 258 762 264 q 770 245 770 252 l 759 243 q 753 256 758 252 q 737 260 747 260 q 722 257 726 260 q 717 248 717 253 q 720 239 717 243 q 739 233 723 237 q 758 227 748 231 m 796 259 l 796 270 l 867 270 l 867 259 l 838 259 l 838 180 l 825 180 l 825 259 l 796 259 m 951 218 l 951 270 l 963 270 l 963 218 q 960 197 963 205 q 949 184 957 189 q 928 179 941 179 q 907 183 916 179 q 897 196 900 186 q 893 218 893 205 l 893 270 l 905 270 l 905 218 q 907 201 905 206 q 914 193 909 196 q 927 190 919 190 q 945 195 941 190 q 951 218 951 203 m 1056 262 q 1067 247 1064 255 q 1070 226 1070 237 q 1067 208 1070 218 q 1061 195 1065 200 q 1053 186 1057 190 q 1043 182 1049 183 q 1029 180 1031 180 l 996 180 l 996 270 l 1027 270 q 1043 269 1036 270 q 1056 262 1051 267 m 1055 209 q 1058 226 1058 218 q 1053 248 1058 241 q 1042 257 1048 254 q 1027 259 1038 259 l 1008 259 l 1008 191 l 1027 191 q 1041 193 1038 191 q 1049 197 1046 195 q 1055 209 1053 201 m 1114 180 l 1102 180 l 1102 270 l 1114 270 l 1114 180 m 1210 265 q 1225 249 1219 259 q 1230 225 1230 239 q 1224 201 1230 213 q 1209 184 1219 189 q 1187 179 1198 179 q 1165 185 1175 179 q 1149 201 1154 191 q 1145 224 1145 211 q 1157 258 1145 246 q 1187 271 1170 271 q 1210 265 1200 271 m 1209 199 q 1218 225 1218 209 q 1214 244 1218 236 q 1203 256 1210 252 q 1187 261 1195 261 q 1166 252 1176 261 q 1157 224 1157 244 q 1166 199 1157 208 q 1187 189 1174 189 q 1209 199 1201 189 m 3977 482 l 4312 2 l 3642 2 l 3977 482 z "},"*":{"ha":4331,"x_min":21,"x_max":4312,"o":"m 1980 899 q 2042 843 2017 884 q 2067 724 2067 802 q 2054 629 2067 667 q 2018 567 2041 589 q 1974 541 2002 551 q 1898 532 1948 532 l 1792 532 l 1792 909 l 1896 909 q 1980 899 1954 909 m 2383 338 q 2404 313 2397 328 q 2412 276 2412 296 q 2395 223 2412 241 q 2351 205 2378 205 q 2308 223 2326 205 q 2291 273 2291 242 q 2309 330 2291 312 q 2351 347 2327 347 q 2383 338 2370 347 m 3560 895 q 3620 825 3600 870 q 3640 720 3640 780 q 3593 573 3640 625 q 3472 522 3545 522 q 3352 572 3399 522 q 3303 713 3303 624 q 3354 871 3303 823 q 3473 919 3403 919 q 3560 895 3522 919 m 1335 1172 l 4312 1172 l 3495 1 l 1335 1 q 1542 262 1468 108 q 1615 586 1615 416 q 1542 910 1615 756 q 1335 1172 1468 1065 m 2102 343 l 2102 363 l 1984 363 l 1984 188 l 2007 188 l 2007 268 l 2089 268 l 2089 288 l 2007 288 l 2007 343 l 2102 343 m 2121 623 q 2134 723 2134 666 q 2115 840 2134 790 q 2057 924 2096 892 q 1984 960 2028 949 q 1897 966 1955 966 l 1727 966 l 1727 474 l 1905 474 q 1984 482 1950 474 q 2043 507 2016 490 q 2087 552 2067 524 q 2121 623 2109 582 m 2424 228 q 2435 275 2435 249 q 2425 323 2435 302 q 2395 355 2414 345 q 2351 367 2376 367 q 2291 342 2315 367 q 2267 273 2267 317 q 2277 230 2267 250 q 2307 197 2288 209 q 2351 185 2325 185 q 2394 196 2375 185 q 2424 228 2414 208 m 2593 474 l 2593 532 l 2291 532 l 2291 700 l 2563 700 l 2563 758 l 2291 758 l 2291 909 l 2582 909 l 2582 966 l 2226 966 l 2226 474 l 2593 474 m 2721 188 l 2745 188 l 2745 363 l 2723 363 l 2723 226 l 2631 363 l 2607 363 l 2607 188 l 2629 188 l 2629 326 l 2721 188 m 2994 343 l 3052 343 l 3052 363 l 2913 363 l 2913 343 l 2970 343 l 2970 188 l 2994 188 l 2994 343 m 3088 474 l 3151 474 l 3151 966 l 3063 966 l 2945 624 q 2920 545 2928 571 q 2896 618 2915 561 l 2779 966 l 2681 966 l 2681 474 l 2744 474 l 2744 893 l 2886 474 l 2945 474 l 3088 886 l 3088 474 m 3592 496 q 3677 585 3646 526 q 3708 720 3708 644 q 3679 852 3708 793 q 3595 943 3651 909 q 3472 975 3540 975 q 3302 906 3368 975 q 3236 714 3236 838 q 3265 591 3236 648 q 3347 499 3293 532 q 3472 466 3402 466 q 3592 496 3538 466 m 480 1279 q 550 1309 480 1279 q 773 1339 620 1339 q 1066 1279 926 1339 q 1306 1119 1205 1219 q 1466 879 1407 1018 q 1526 586 1526 739 q 1466 293 1526 433 q 1306 54 1407 154 q 1066 -106 1205 -47 q 773 -166 926 -166 q 480 -106 620 -166 q 241 54 341 -47 q 81 293 140 154 q 21 586 21 433 q 81 879 21 739 q 241 1119 140 1018 q 480 1279 341 1219 m 516 -22 q 578 -48 516 -22 q 773 -75 639 -75 q 1030 -22 907 -75 q 1241 118 1152 30 q 1381 329 1329 207 q 1434 586 1434 452 q 1381 843 1434 720 q 1241 1054 1329 965 q 1030 1195 1152 1142 q 773 1247 907 1247 q 516 1195 639 1247 q 306 1054 394 1142 q 165 843 217 965 q 113 586 113 720 q 165 329 113 452 q 306 118 217 207 q 516 -22 394 30 m 688 330 q 647 159 654 234 q 650 108 645 140 q 657 57 655 75 q 650 17 659 39 q 625 -1 640 2 q 595 2 610 -5 q 568 20 581 9 q 544 43 555 30 q 527 105 528 66 q 539 195 526 144 q 571 300 552 245 q 622 421 591 355 q 682 544 653 486 q 748 669 711 602 q 813 783 786 736 q 872 886 840 830 q 918 967 905 943 q 946 1022 935 998 q 962 1064 958 1046 q 965 1091 967 1081 q 954 1102 963 1101 q 927 1096 944 1103 q 885 1068 911 1088 q 826 1020 859 1049 q 429 562 670 876 q 260 342 349 455 q 222 314 240 314 q 191 328 195 314 l 191 338 q 241 478 210 398 q 308 634 272 557 q 378 776 344 711 q 441 877 413 841 q 481 905 469 913 l 481 902 q 416 754 457 846 q 396 654 378 673 q 481 713 414 635 q 570 821 500 735 q 692 966 640 907 q 791 1070 744 1025 q 887 1146 843 1120 q 960 1176 930 1173 q 1008 1165 989 1179 q 1032 1123 1027 1152 q 1031 1055 1038 1095 q 1004 968 1024 1015 q 906 774 970 891 q 783 543 842 657 q 688 330 724 429 m 885 599 q 880 604 885 599 q 875 623 875 609 q 885 648 875 637 q 909 658 895 658 q 933 648 923 658 q 943 623 943 637 q 933 599 943 609 q 909 589 923 589 q 885 599 895 589 m 1200 463 q 1220 471 1208 471 q 1238 465 1232 471 q 1247 447 1246 458 q 1241 426 1249 437 l 1240 425 q 1152 345 1174 362 q 1095 309 1120 319 q 1069 304 1081 304 q 1046 313 1056 304 q 1035 343 1036 323 q 1038 379 1034 359 q 1042 393 1039 382 q 977 315 1004 334 q 935 304 960 303 q 913 309 922 304 q 899 327 901 315 l 898 328 l 898 328 l 898 334 l 898 334 q 899 336 899 335 q 783 323 831 301 l 783 323 q 765 345 771 329 q 762 374 761 355 q 781 441 764 401 q 836 543 802 494 q 879 562 854 571 q 892 545 890 557 q 887 520 895 532 q 833 418 846 457 q 828 391 827 399 l 829 387 q 888 408 853 384 q 945 473 927 436 q 1145 985 997 616 q 1181 1024 1158 1022 q 1200 1018 1192 1025 q 1209 1000 1206 1012 l 1210 999 q 1210 998 1210 998 l 1210 987 l 1210 985 q 1193 936 1208 978 q 1150 823 1160 850 q 1001 449 1092 675 q 1024 475 1020 471 q 1069 509 1050 501 q 1117 502 1098 519 l 1118 502 q 1127 477 1126 492 q 1125 447 1128 463 q 1106 383 1121 427 l 1106 382 q 1105 378 1105 380 q 1107 379 1105 378 q 1109 380 1108 380 q 1200 463 1144 408 m 758 226 q 769 217 764 222 q 773 204 773 212 q 769 191 773 197 q 758 181 765 184 q 740 178 749 178 q 720 181 729 178 q 707 192 713 184 q 702 208 702 199 l 713 209 q 717 197 715 200 q 726 191 720 193 q 740 188 731 188 q 751 190 746 188 q 760 195 758 193 q 762 203 762 198 q 760 210 762 208 q 751 216 758 213 q 745 217 751 216 q 735 220 740 219 q 718 226 722 224 q 709 234 711 229 q 706 245 706 239 q 709 258 706 252 q 721 267 713 263 q 737 269 727 269 q 754 267 748 269 q 766 257 762 263 q 770 243 770 251 l 759 242 q 753 255 758 251 q 737 259 747 259 q 722 255 727 259 q 717 245 717 251 q 720 238 717 241 q 739 231 724 235 q 758 226 751 229 m 796 258 l 796 268 l 867 268 l 867 258 l 838 258 l 838 179 l 825 179 l 825 258 l 796 258 m 951 216 l 951 268 l 963 268 l 963 216 q 960 195 963 204 q 949 182 957 187 q 928 178 941 178 q 907 182 916 178 q 897 194 900 186 q 893 216 893 203 l 893 268 l 905 268 l 905 216 q 907 199 905 205 q 914 191 909 195 q 927 188 920 188 q 945 194 940 188 q 951 216 951 201 m 1056 260 q 1067 245 1064 254 q 1070 224 1070 235 q 1067 206 1070 217 q 1061 193 1065 199 q 1053 185 1057 189 q 1043 180 1048 181 q 1029 179 1035 179 l 996 179 l 996 268 l 1027 268 q 1043 267 1036 268 q 1056 260 1052 264 m 1055 207 q 1058 224 1058 216 q 1053 245 1058 239 q 1042 256 1049 252 q 1027 258 1038 258 l 1008 258 l 1008 189 l 1027 189 q 1041 191 1036 189 q 1049 196 1046 193 q 1055 207 1053 200 m 1114 179 l 1102 179 l 1102 268 l 1114 268 l 1114 179 m 1210 264 q 1225 248 1219 258 q 1230 223 1230 237 q 1224 199 1230 213 q 1209 183 1219 188 q 1187 178 1198 178 q 1165 184 1175 178 q 1149 200 1154 190 q 1145 222 1145 210 q 1157 257 1145 245 q 1187 269 1169 269 q 1210 264 1201 269 m 1209 197 q 1218 224 1218 207 q 1214 242 1218 234 q 1203 255 1209 252 q 1187 260 1195 260 q 1166 251 1176 260 q 1157 222 1157 243 q 1166 197 1157 205 q 1187 188 1175 188 q 1209 197 1201 188 m 3977 481 l 4312 1 l 3642 1 l 3977 481 z "},"+":{"ha":4331,"x_min":21,"x_max":4312,"o":"m 1980 900 q 2042 844 2017 886 q 2067 726 2067 803 q 2054 631 2067 669 q 2018 568 2041 591 q 1974 543 2002 552 q 1898 534 1948 534 l 1792 534 l 1792 910 l 1896 910 q 1980 900 1954 910 m 2383 340 q 2404 315 2397 331 q 2412 277 2412 298 q 2395 225 2412 243 q 2351 206 2377 206 q 2308 224 2326 206 q 2291 275 2291 243 q 2309 332 2291 313 q 2351 349 2327 349 q 2383 340 2370 349 m 3560 896 q 3620 827 3600 871 q 3640 722 3640 782 q 3593 574 3640 626 q 3472 523 3545 523 q 3352 574 3400 523 q 3303 715 3303 626 q 3354 873 3303 825 q 3473 921 3403 921 q 3560 896 3520 921 m 1335 1173 l 4312 1173 l 3495 2 l 1335 2 q 1542 263 1468 109 q 1615 588 1615 418 q 1542 912 1615 758 q 1335 1173 1468 1066 m 2102 345 l 2102 366 l 1984 366 l 1984 189 l 2007 189 l 2007 269 l 2089 269 l 2089 290 l 2007 290 l 2007 345 l 2102 345 m 2121 625 q 2134 724 2134 668 q 2115 842 2134 791 q 2057 926 2096 893 q 1984 961 2028 951 q 1897 968 1952 968 l 1727 968 l 1727 475 l 1905 475 q 1984 484 1947 475 q 2043 509 2018 492 q 2087 553 2067 525 q 2121 625 2108 583 m 2424 229 q 2435 277 2435 250 q 2425 324 2435 304 q 2395 357 2414 346 q 2351 368 2376 368 q 2291 344 2314 368 q 2267 275 2267 319 q 2277 231 2267 252 q 2307 199 2287 211 q 2351 186 2326 186 q 2394 197 2375 186 q 2424 229 2414 209 m 2226 475 l 2593 475 l 2593 534 l 2291 534 l 2291 701 l 2563 701 l 2563 759 l 2291 759 l 2291 910 l 2582 910 l 2582 968 l 2226 968 l 2226 475 m 2721 189 l 2745 189 l 2745 366 l 2723 366 l 2723 227 l 2631 366 l 2607 366 l 2607 189 l 2629 189 l 2629 328 l 2721 189 m 3052 345 l 3052 366 l 2913 366 l 2913 345 l 2970 345 l 2970 189 l 2994 189 l 2994 345 l 3052 345 m 3151 475 l 3151 968 l 3063 968 l 2945 625 q 2920 547 2925 564 q 2896 619 2916 557 l 2779 968 l 2681 968 l 2681 475 l 2744 475 l 2744 895 l 2886 475 l 2945 475 l 3088 888 l 3088 475 l 3151 475 m 3472 467 q 3592 498 3537 467 q 3677 587 3647 528 q 3708 721 3708 646 q 3679 853 3708 795 q 3595 944 3651 911 q 3472 977 3540 977 q 3302 907 3368 977 q 3236 715 3236 839 q 3265 593 3236 651 q 3347 500 3294 533 q 3472 467 3402 467 m 480 1280 q 550 1310 480 1280 q 773 1340 620 1340 q 1066 1280 926 1340 q 1306 1120 1205 1221 q 1466 881 1407 1020 q 1526 588 1526 741 q 1466 295 1526 435 q 1306 55 1407 156 q 1066 -105 1205 -45 q 773 -165 926 -165 q 480 -105 620 -165 q 241 55 341 -45 q 81 295 140 156 q 21 588 21 435 q 81 881 21 741 q 241 1120 140 1020 q 480 1280 341 1221 m 516 -20 q 578 -46 516 -20 q 773 -73 639 -73 q 1030 -20 907 -73 q 1241 120 1152 32 q 1381 331 1329 209 q 1434 588 1434 454 q 1381 845 1434 722 q 1241 1056 1329 967 q 1030 1196 1152 1144 q 773 1249 907 1249 q 516 1196 639 1249 q 306 1056 394 1144 q 165 845 217 967 q 113 588 113 722 q 165 331 113 454 q 306 120 217 209 q 516 -20 394 32 m 688 332 q 647 161 654 237 q 650 109 645 142 q 657 59 655 77 q 650 18 659 41 q 625 0 640 3 q 595 4 610 -3 q 568 21 581 11 q 544 44 555 31 q 527 107 528 68 q 539 196 526 146 q 571 302 552 247 q 622 422 591 357 q 682 546 653 488 q 748 671 711 603 q 813 785 786 739 q 872 888 840 832 q 918 969 905 945 q 946 1024 935 1000 q 962 1066 958 1048 q 965 1093 967 1083 q 954 1104 963 1103 q 927 1098 944 1105 q 885 1070 911 1090 q 826 1022 859 1051 q 429 564 670 878 q 260 343 338 442 q 222 316 240 316 q 191 330 195 316 l 191 339 q 241 479 210 399 q 308 636 272 559 q 378 778 344 713 q 441 879 413 842 q 481 907 469 915 l 481 903 q 416 755 457 847 q 396 655 378 674 q 481 715 414 636 q 570 822 500 736 q 692 967 640 908 q 791 1072 744 1026 q 887 1148 843 1121 q 960 1178 930 1175 q 1008 1167 989 1181 q 1032 1125 1027 1154 q 1031 1057 1038 1097 q 1004 970 1024 1017 q 906 776 970 893 q 783 545 842 659 q 688 332 724 431 m 885 600 q 880 605 885 600 q 875 625 875 610 q 885 649 875 639 q 909 659 895 659 q 933 649 923 659 q 943 625 943 639 q 933 600 943 610 q 909 590 923 590 q 885 600 895 590 m 1200 464 q 1220 472 1208 472 q 1238 466 1232 473 q 1247 449 1246 459 q 1241 427 1249 438 l 1240 426 q 1152 346 1174 363 q 1095 311 1122 323 q 1069 305 1080 305 q 1046 315 1056 305 q 1035 345 1036 325 q 1038 380 1034 361 q 1042 394 1039 384 q 977 316 1004 335 q 935 306 960 304 q 913 311 922 306 q 899 328 901 316 l 898 329 q 898 330 898 330 l 898 335 l 898 336 q 899 338 899 337 q 783 324 831 302 l 783 325 q 765 347 771 331 q 762 375 761 357 q 781 442 764 402 q 836 545 803 497 q 856 563 844 558 q 879 563 868 567 q 892 547 890 558 q 886 522 895 534 q 833 419 846 460 q 828 392 827 401 l 829 388 l 829 388 q 888 410 853 385 q 945 474 927 437 q 1145 986 997 617 q 1181 1026 1158 1024 q 1200 1020 1192 1027 q 1209 1001 1206 1014 l 1210 1000 q 1210 999 1210 1000 l 1210 989 l 1210 987 q 1193 937 1208 979 q 1149 825 1174 886 q 1001 450 1058 591 q 1024 477 1020 473 q 1069 511 1050 503 q 1117 503 1097 522 l 1118 503 q 1127 479 1126 494 q 1125 449 1128 465 q 1106 385 1121 428 q 1105 379 1105 379 q 1109 382 1107 381 q 1200 464 1148 413 m 758 227 q 770 218 766 224 q 773 205 773 214 q 769 193 773 199 q 758 182 764 185 q 740 179 749 179 q 720 182 729 179 q 707 193 713 185 q 702 209 702 201 l 713 210 q 717 199 715 202 q 726 193 720 195 q 740 190 731 190 q 751 192 746 190 q 759 197 757 194 q 762 205 762 201 q 760 212 762 209 q 751 217 758 214 q 745 219 751 217 q 735 222 740 220 q 718 227 722 225 q 709 235 711 231 q 705 247 705 241 q 709 259 705 253 q 721 268 713 264 q 737 271 729 271 q 754 268 746 271 q 766 258 762 264 q 770 245 770 252 l 759 243 q 753 256 758 252 q 737 260 747 260 q 722 257 726 260 q 717 248 717 253 q 720 239 717 243 q 739 233 723 237 q 758 227 748 231 m 796 259 l 796 270 l 867 270 l 867 259 l 838 259 l 838 180 l 825 180 l 825 259 l 796 259 m 951 218 l 951 270 l 963 270 l 963 218 q 960 197 963 205 q 949 184 957 189 q 928 179 941 179 q 907 183 916 179 q 897 196 900 186 q 893 218 893 205 l 893 270 l 905 270 l 905 218 q 907 201 905 206 q 914 193 909 196 q 927 190 919 190 q 945 195 941 190 q 951 218 951 203 m 1056 262 q 1066 247 1063 256 q 1070 226 1070 235 q 1067 208 1070 218 q 1061 195 1065 200 q 1053 186 1057 190 q 1043 182 1049 183 q 1029 180 1031 180 l 996 180 l 996 270 l 1027 270 q 1043 269 1036 270 q 1056 262 1051 267 m 1055 209 q 1058 226 1058 218 q 1053 248 1058 239 q 1042 257 1048 254 q 1027 259 1038 259 l 1008 259 l 1008 191 l 1027 191 q 1041 193 1038 191 q 1049 197 1046 195 q 1055 209 1053 201 m 1114 180 l 1102 180 l 1102 270 l 1114 270 l 1114 180 m 1210 265 q 1225 249 1219 259 q 1230 225 1230 239 q 1224 201 1230 213 q 1209 184 1219 189 q 1187 179 1198 179 q 1165 185 1175 179 q 1149 201 1154 191 q 1145 224 1145 211 q 1156 258 1145 247 q 1187 271 1169 271 q 1210 265 1200 271 m 1209 199 q 1218 225 1218 209 q 1214 244 1218 236 q 1203 256 1210 252 q 1187 261 1195 261 q 1166 252 1176 261 q 1157 224 1157 244 q 1166 199 1157 209 q 1187 189 1175 189 q 1209 199 1201 189 m 3977 482 l 4312 2 l 3642 2 l 3977 482 z "},",":{"ha":4331,"x_min":21,"x_max":4312,"o":"m 1980 899 q 2042 843 2017 884 q 2067 724 2067 802 q 2054 629 2067 667 q 2018 567 2041 589 q 1974 541 2002 551 q 1898 532 1948 532 l 1792 532 l 1792 909 l 1896 909 q 1980 899 1954 909 m 2383 338 q 2404 313 2397 328 q 2412 276 2412 296 q 2395 223 2412 241 q 2351 205 2378 205 q 2308 223 2326 205 q 2291 273 2291 242 q 2309 330 2291 312 q 2351 347 2326 347 q 2383 338 2370 347 m 3560 895 q 3620 825 3600 870 q 3640 720 3640 780 q 3593 573 3640 625 q 3472 522 3545 522 q 3352 572 3399 522 q 3303 713 3303 624 q 3354 871 3303 823 q 3473 919 3403 919 q 3560 895 3522 919 m 1335 1172 l 4312 1172 l 3495 1 l 1335 1 q 1542 262 1468 108 q 1615 586 1615 416 q 1542 910 1615 756 q 1335 1172 1468 1065 m 2102 343 l 2102 363 l 1984 363 l 1984 188 l 2007 188 l 2007 268 l 2089 268 l 2089 288 l 2007 288 l 2007 343 l 2102 343 m 2121 623 q 2134 723 2134 666 q 2115 840 2134 790 q 2057 924 2096 892 q 1984 960 2028 949 q 1897 966 1955 966 l 1727 966 l 1727 474 l 1905 474 q 1984 482 1950 474 q 2043 507 2016 490 q 2087 552 2067 524 q 2121 623 2109 582 m 2424 228 q 2435 275 2435 249 q 2425 323 2435 302 q 2395 355 2414 345 q 2351 367 2376 367 q 2291 342 2315 367 q 2267 273 2267 317 q 2277 230 2267 250 q 2307 197 2288 209 q 2351 185 2325 185 q 2394 196 2375 185 q 2424 228 2414 208 m 2226 474 l 2593 474 l 2593 532 l 2291 532 l 2291 700 l 2563 700 l 2563 758 l 2291 758 l 2291 909 l 2582 909 l 2582 966 l 2226 966 l 2226 474 m 2721 188 l 2745 188 l 2745 363 l 2723 363 l 2723 226 l 2631 363 l 2607 363 l 2607 188 l 2629 188 l 2629 326 l 2721 188 m 3052 343 l 3052 363 l 2913 363 l 2913 343 l 2970 343 l 2970 188 l 2994 188 l 2994 343 l 3052 343 m 3151 474 l 3151 966 l 3063 966 l 2945 624 q 2920 545 2928 571 q 2896 618 2915 561 l 2779 966 l 2681 966 l 2681 474 l 2744 474 l 2744 893 l 2886 474 l 2945 474 l 3088 886 l 3088 474 l 3151 474 m 3592 496 q 3677 585 3647 526 q 3708 720 3708 644 q 3679 852 3708 793 q 3595 943 3651 909 q 3472 975 3540 975 q 3302 906 3368 975 q 3236 714 3236 838 q 3265 591 3236 648 q 3347 499 3293 532 q 3472 466 3402 466 q 3592 496 3538 466 m 480 1279 q 550 1309 480 1279 q 773 1339 620 1339 q 1066 1279 926 1339 q 1306 1119 1205 1219 q 1466 879 1407 1018 q 1526 586 1526 739 q 1466 293 1526 433 q 1306 54 1407 154 q 1066 -106 1205 -47 q 773 -166 926 -166 q 480 -106 620 -166 q 241 54 341 -47 q 81 293 140 154 q 21 586 21 433 q 81 879 21 739 q 241 1119 140 1018 q 480 1279 341 1219 m 516 -22 q 578 -48 516 -22 q 773 -75 639 -75 q 1030 -22 907 -75 q 1241 118 1152 30 q 1381 329 1329 207 q 1434 586 1434 452 q 1381 843 1434 720 q 1241 1054 1329 965 q 1030 1195 1152 1142 q 773 1247 907 1247 q 516 1195 639 1247 q 306 1054 394 1142 q 165 843 217 965 q 113 586 113 720 q 165 329 113 452 q 306 118 217 207 q 516 -22 394 30 m 688 330 q 647 159 654 234 q 650 108 645 140 q 657 57 655 75 q 650 17 659 39 q 625 -1 640 2 q 595 2 610 -5 q 568 20 581 9 q 544 43 555 30 q 527 105 528 66 q 539 195 526 144 q 571 300 552 245 q 622 421 591 355 q 682 544 653 486 q 748 669 711 602 q 813 783 786 736 q 872 886 840 830 q 918 967 905 943 q 946 1022 935 998 q 962 1064 958 1046 q 965 1091 967 1081 q 954 1102 963 1101 q 927 1096 944 1103 q 885 1068 911 1088 q 826 1020 859 1049 q 429 562 670 876 q 260 342 349 455 q 222 314 240 314 q 191 328 195 314 l 191 338 q 241 478 210 398 q 308 634 272 557 q 378 776 344 711 q 441 877 413 841 q 481 905 469 913 l 481 902 q 416 754 457 846 q 396 654 378 673 q 481 713 414 635 q 570 821 500 735 q 692 966 640 907 q 791 1070 744 1025 q 887 1146 843 1120 q 960 1176 930 1173 q 1008 1165 989 1179 q 1032 1123 1027 1152 q 1031 1055 1038 1095 q 1004 968 1024 1015 q 906 774 970 891 q 783 543 842 657 q 688 330 724 429 m 885 599 q 880 604 885 599 q 875 623 875 609 q 885 648 875 637 q 909 658 895 658 q 933 648 923 658 q 943 623 943 637 q 933 599 943 609 q 909 589 923 589 q 885 599 895 589 m 1200 463 q 1220 471 1208 471 q 1238 465 1232 471 q 1247 447 1246 458 q 1241 426 1249 437 l 1240 425 q 1152 345 1174 362 q 1095 309 1120 319 q 1069 304 1081 304 q 1046 313 1056 304 q 1035 343 1036 323 q 1038 379 1034 359 q 1042 393 1039 382 q 977 315 1004 334 q 935 304 960 303 q 913 309 922 304 q 899 327 901 315 l 898 328 l 898 328 l 898 334 l 898 334 q 899 336 899 335 q 783 323 831 301 l 783 323 q 765 345 771 329 q 762 374 761 355 q 781 441 764 401 q 836 543 802 494 q 879 562 854 571 q 892 545 890 557 q 887 520 895 532 q 833 418 846 457 q 828 391 827 399 l 829 387 q 888 408 853 384 q 945 473 927 436 q 1145 985 997 616 q 1181 1024 1158 1022 q 1200 1018 1192 1025 q 1209 1000 1206 1012 l 1210 999 q 1210 998 1210 998 l 1210 987 l 1210 985 q 1193 936 1208 978 q 1149 823 1174 884 q 1001 449 1058 590 q 1024 475 1020 471 q 1069 509 1049 500 q 1117 502 1098 519 l 1118 502 q 1127 477 1126 492 q 1125 447 1128 463 q 1106 383 1121 427 l 1106 382 q 1105 378 1105 380 q 1107 379 1105 378 q 1109 380 1108 380 q 1200 463 1144 408 m 758 226 q 770 217 766 222 q 773 204 773 213 q 769 191 773 197 q 758 181 764 184 q 740 178 749 178 q 720 181 729 178 q 707 192 713 184 q 702 208 702 199 l 713 209 q 717 197 715 200 q 726 191 720 193 q 740 188 731 188 q 751 190 746 188 q 759 195 757 192 q 762 203 762 199 q 760 210 762 208 q 751 216 758 213 q 745 217 751 216 q 735 220 740 219 q 718 226 722 224 q 709 234 711 229 q 705 245 705 239 q 709 258 705 252 q 721 267 713 263 q 737 269 727 269 q 754 267 748 269 q 766 257 762 263 q 770 243 770 251 l 759 242 q 753 255 758 251 q 737 259 747 259 q 722 255 727 259 q 717 245 717 251 q 720 238 717 241 q 739 231 724 235 q 758 226 751 229 m 796 258 l 796 268 l 867 268 l 867 258 l 838 258 l 838 179 l 825 179 l 825 258 l 796 258 m 951 216 l 951 268 l 963 268 l 963 216 q 960 195 963 204 q 949 182 957 187 q 928 178 941 178 q 907 182 916 178 q 897 194 900 186 q 893 216 893 203 l 893 268 l 905 268 l 905 216 q 907 199 905 205 q 914 191 909 195 q 927 188 920 188 q 945 194 940 188 q 951 216 951 201 m 1056 260 q 1067 245 1064 254 q 1070 224 1070 235 q 1067 206 1070 217 q 1061 193 1065 199 q 1053 185 1057 189 q 1043 180 1048 181 q 1029 179 1035 179 l 996 179 l 996 268 l 1027 268 q 1043 267 1036 268 q 1056 260 1052 264 m 1055 207 q 1058 224 1058 216 q 1053 245 1058 237 q 1042 256 1048 253 q 1027 258 1038 258 l 1008 258 l 1008 189 l 1027 189 q 1041 191 1036 189 q 1049 196 1046 193 q 1055 207 1053 200 m 1114 179 l 1102 179 l 1102 268 l 1114 268 l 1114 179 m 1210 264 q 1225 248 1219 258 q 1230 223 1230 237 q 1224 199 1230 213 q 1209 183 1219 188 q 1187 178 1198 178 q 1165 184 1175 178 q 1150 200 1156 190 q 1145 222 1145 211 q 1157 257 1145 245 q 1187 270 1170 270 q 1210 264 1200 270 m 1209 197 q 1218 224 1218 207 q 1214 242 1218 234 q 1203 255 1209 252 q 1187 260 1195 260 q 1166 251 1176 260 q 1157 222 1157 243 q 1166 197 1157 205 q 1187 188 1175 188 q 1209 197 1201 188 m 3977 481 l 4312 1 l 3642 1 l 3977 481 z "},"-":{"ha":4331,"x_min":21,"x_max":4312,"o":"m 1980 899 q 2042 843 2017 884 q 2067 724 2067 802 q 2054 629 2067 667 q 2018 567 2041 589 q 1974 541 2002 551 q 1898 532 1948 532 l 1792 532 l 1792 909 l 1896 909 q 1980 899 1954 909 m 2383 338 q 2404 313 2397 328 q 2412 276 2412 296 q 2395 223 2412 241 q 2351 205 2378 205 q 2308 223 2326 205 q 2291 273 2291 242 q 2309 330 2291 311 q 2351 347 2327 347 q 2383 338 2370 347 m 3560 895 q 3620 825 3600 870 q 3640 720 3640 780 q 3593 573 3640 625 q 3472 522 3545 522 q 3352 572 3399 522 q 3303 713 3303 624 q 3354 871 3303 823 q 3473 919 3403 919 q 3560 895 3522 919 m 1335 1172 l 4312 1172 l 3495 1 l 1335 1 q 1542 262 1468 108 q 1615 586 1615 416 q 1542 910 1615 756 q 1335 1172 1468 1065 m 2102 343 l 2102 363 l 1984 363 l 1984 188 l 2007 188 l 2007 268 l 2089 268 l 2089 288 l 2007 288 l 2007 343 l 2102 343 m 2121 623 q 2134 723 2134 666 q 2115 840 2134 790 q 2057 924 2096 892 q 1984 960 2028 949 q 1897 966 1955 966 l 1727 966 l 1727 474 l 1905 474 q 1984 482 1950 474 q 2043 507 2016 490 q 2087 552 2067 524 q 2121 623 2109 582 m 2424 228 q 2435 275 2435 249 q 2425 323 2435 302 q 2395 355 2414 345 q 2351 367 2376 367 q 2291 342 2315 367 q 2267 273 2267 317 q 2277 230 2267 250 q 2307 197 2288 209 q 2351 185 2325 185 q 2394 196 2375 185 q 2424 228 2414 208 m 2226 474 l 2593 474 l 2593 532 l 2291 532 l 2291 700 l 2563 700 l 2563 758 l 2291 758 l 2291 909 l 2582 909 l 2582 966 l 2226 966 l 2226 474 m 2721 188 l 2745 188 l 2745 363 l 2723 363 l 2723 226 l 2631 363 l 2607 363 l 2607 188 l 2629 188 l 2629 326 l 2721 188 m 3052 343 l 3052 363 l 2913 363 l 2913 343 l 2970 343 l 2970 188 l 2994 188 l 2994 343 l 3052 343 m 3151 474 l 3151 966 l 3063 966 l 2945 624 q 2920 545 2928 571 q 2896 618 2915 561 l 2779 966 l 2681 966 l 2681 474 l 2744 474 l 2744 893 l 2886 474 l 2945 474 l 3088 886 l 3088 474 l 3151 474 m 3592 496 q 3677 585 3647 526 q 3708 720 3708 644 q 3679 852 3708 793 q 3595 943 3651 909 q 3472 975 3540 975 q 3302 906 3368 975 q 3236 714 3236 838 q 3265 591 3236 648 q 3347 499 3293 532 q 3472 466 3402 466 q 3592 496 3538 466 m 480 1279 q 550 1309 480 1279 q 773 1339 620 1339 q 1066 1279 926 1339 q 1306 1119 1205 1219 q 1466 879 1407 1018 q 1526 586 1526 739 q 1466 293 1526 433 q 1306 54 1407 154 q 1066 -106 1205 -47 q 773 -166 926 -166 q 480 -106 620 -166 q 241 54 341 -47 q 81 293 140 154 q 21 586 21 433 q 81 879 21 739 q 241 1119 140 1018 q 480 1279 341 1219 m 516 -22 q 578 -48 516 -22 q 773 -75 639 -75 q 1030 -22 907 -75 q 1241 118 1152 30 q 1381 329 1329 207 q 1434 586 1434 452 q 1381 843 1434 720 q 1241 1054 1329 965 q 1030 1195 1152 1142 q 773 1247 907 1247 q 516 1195 639 1247 q 306 1054 394 1142 q 165 843 217 965 q 113 586 113 720 q 165 329 113 452 q 306 118 217 207 q 516 -22 394 30 m 688 330 q 647 159 654 234 q 650 108 645 140 q 657 57 655 75 q 650 17 659 39 q 625 -1 640 2 q 595 2 610 -5 q 568 20 581 9 q 544 43 555 30 q 527 105 528 66 q 539 195 526 144 q 571 300 552 245 q 622 421 591 355 q 682 544 653 486 q 748 669 711 602 q 813 783 786 736 q 872 886 840 830 q 918 967 905 943 q 946 1022 935 998 q 962 1064 958 1046 q 965 1091 967 1081 q 954 1102 963 1101 q 927 1096 944 1103 q 885 1068 911 1088 q 826 1020 859 1049 q 429 562 670 876 q 260 342 349 455 q 222 314 240 314 q 191 328 195 314 l 191 338 q 241 478 210 398 q 308 634 272 557 q 378 776 344 711 q 441 877 413 841 q 481 905 469 913 l 481 902 q 416 754 457 846 q 396 654 378 673 q 481 713 414 635 q 570 821 500 735 q 692 966 640 907 q 791 1070 744 1025 q 887 1146 843 1120 q 960 1176 930 1173 q 1008 1165 989 1179 q 1032 1123 1027 1152 q 1031 1055 1038 1095 q 1004 968 1024 1015 q 906 774 970 891 q 783 543 842 657 q 688 330 724 429 m 885 599 q 880 604 885 599 q 875 623 875 609 q 885 648 875 637 q 909 658 895 658 q 933 648 923 658 q 943 623 943 637 q 933 599 943 609 q 909 589 923 589 q 885 599 895 589 m 1200 463 q 1220 471 1208 471 q 1238 465 1232 471 q 1247 447 1246 458 q 1241 426 1249 437 l 1240 425 q 1152 345 1174 362 q 1095 309 1120 319 q 1069 304 1081 304 q 1046 313 1056 304 q 1035 343 1036 323 q 1038 379 1034 359 q 1042 393 1039 382 q 977 315 1004 334 q 935 304 960 303 q 913 309 922 304 q 899 327 901 315 l 898 328 l 898 328 l 898 334 l 898 334 q 899 336 899 335 q 783 323 831 301 l 783 323 q 765 345 771 329 q 762 374 761 355 q 781 441 764 401 q 836 543 802 494 q 879 562 854 571 q 892 545 890 557 q 886 520 895 532 q 833 418 846 459 q 828 391 827 399 l 829 387 l 829 387 q 888 408 853 384 q 945 473 927 436 q 1145 985 997 616 q 1181 1024 1158 1022 q 1200 1018 1192 1025 q 1209 1000 1206 1012 l 1210 999 q 1210 998 1210 998 l 1210 987 l 1210 985 q 1193 936 1208 978 q 1149 823 1174 884 q 1001 449 1058 590 q 1024 475 1020 471 q 1069 509 1049 500 q 1117 502 1098 519 l 1118 502 q 1127 477 1126 492 q 1125 447 1128 463 q 1106 383 1121 427 l 1106 382 q 1105 378 1105 380 q 1107 379 1105 378 q 1109 380 1108 380 q 1200 463 1144 408 m 758 226 q 770 217 766 222 q 773 204 773 213 q 769 191 773 197 q 758 181 764 184 q 740 178 749 178 q 720 181 729 178 q 707 192 713 184 q 702 208 702 199 l 713 209 q 717 197 715 200 q 726 191 720 193 q 740 188 731 188 q 751 190 746 188 q 759 195 757 192 q 762 203 762 199 q 760 210 762 208 q 751 216 758 213 q 745 217 751 216 q 735 220 740 219 q 718 226 722 224 q 709 234 711 229 q 705 245 705 239 q 709 258 705 252 q 721 267 713 263 q 737 269 727 269 q 754 267 748 269 q 766 257 762 263 q 770 243 770 251 l 759 242 q 753 255 758 251 q 737 259 747 259 q 722 255 727 259 q 717 245 717 251 q 720 238 717 241 q 739 231 724 235 q 758 226 751 229 m 796 258 l 796 268 l 867 268 l 867 258 l 838 258 l 838 179 l 825 179 l 825 258 l 796 258 m 951 216 l 951 268 l 963 268 l 963 216 q 960 195 963 204 q 949 182 957 187 q 928 178 941 178 q 907 182 916 178 q 897 194 900 186 q 893 216 893 203 l 893 268 l 905 268 l 905 216 q 907 199 905 205 q 914 191 909 195 q 927 188 920 188 q 945 194 940 188 q 951 216 951 201 m 1056 260 q 1066 245 1063 254 q 1070 224 1070 233 q 1067 206 1070 217 q 1061 193 1065 199 q 1053 185 1057 189 q 1043 180 1048 181 q 1029 179 1035 179 l 996 179 l 996 268 l 1027 268 q 1043 267 1036 268 q 1056 260 1052 264 m 1055 207 q 1058 224 1058 216 q 1053 245 1058 237 q 1042 256 1048 253 q 1027 258 1038 258 l 1008 258 l 1008 189 l 1027 189 q 1041 191 1036 189 q 1049 196 1046 193 q 1055 207 1053 200 m 1114 179 l 1102 179 l 1102 268 l 1114 268 l 1114 179 m 1210 264 q 1225 248 1219 258 q 1230 223 1230 238 q 1224 199 1230 212 q 1209 183 1219 188 q 1187 178 1198 178 q 1165 184 1175 178 q 1149 200 1154 190 q 1145 222 1145 210 q 1156 257 1145 245 q 1187 270 1169 270 q 1210 264 1200 270 m 1209 197 q 1218 224 1218 207 q 1214 242 1218 234 q 1203 255 1209 252 q 1187 260 1195 260 q 1166 251 1176 260 q 1157 222 1157 243 q 1166 197 1157 207 q 1187 188 1175 188 q 1209 197 1201 188 m 3977 481 l 4312 1 l 3642 1 l 3977 481 z "},".":{"ha":4331,"x_min":21,"x_max":4312,"o":"m 1980 899 q 2042 843 2017 884 q 2067 724 2067 802 q 2054 629 2067 667 q 2018 567 2041 589 q 1974 541 2002 551 q 1898 532 1948 532 l 1792 532 l 1792 909 l 1896 909 q 1980 899 1954 909 m 2383 338 q 2404 313 2397 328 q 2412 276 2412 296 q 2395 223 2412 241 q 2351 205 2378 205 q 2308 223 2326 205 q 2291 273 2291 242 q 2309 330 2291 312 q 2351 347 2327 347 q 2383 338 2370 347 m 3560 895 q 3620 825 3600 870 q 3640 720 3640 780 q 3593 573 3640 625 q 3472 522 3545 522 q 3352 572 3399 522 q 3303 713 3303 624 q 3354 871 3303 823 q 3473 919 3403 919 q 3560 895 3522 919 m 1335 1172 l 4312 1172 l 3495 1 l 1335 1 q 1542 262 1468 108 q 1615 586 1615 416 q 1542 910 1615 756 q 1335 1172 1468 1065 m 2007 343 l 2102 343 l 2102 363 l 1984 363 l 1984 188 l 2007 188 l 2007 268 l 2089 268 l 2089 288 l 2007 288 l 2007 343 m 2121 623 q 2134 723 2134 666 q 2115 840 2134 790 q 2057 924 2096 892 q 1984 960 2028 949 q 1897 966 1955 966 l 1727 966 l 1727 474 l 1905 474 q 1984 482 1950 474 q 2043 507 2016 490 q 2087 552 2067 524 q 2121 623 2109 582 m 2424 228 q 2435 275 2435 249 q 2425 323 2435 302 q 2395 355 2414 345 q 2351 367 2376 367 q 2291 342 2315 367 q 2267 273 2267 317 q 2277 230 2267 250 q 2307 197 2288 209 q 2351 185 2325 185 q 2394 196 2375 185 q 2424 228 2414 208 m 2593 474 l 2593 532 l 2291 532 l 2291 700 l 2563 700 l 2563 758 l 2291 758 l 2291 909 l 2582 909 l 2582 966 l 2226 966 l 2226 474 l 2593 474 m 2745 188 l 2745 363 l 2723 363 l 2723 226 l 2631 363 l 2607 363 l 2607 188 l 2629 188 l 2629 326 l 2721 188 l 2745 188 m 3052 343 l 3052 363 l 2913 363 l 2913 343 l 2970 343 l 2970 188 l 2994 188 l 2994 343 l 3052 343 m 3088 474 l 3151 474 l 3151 966 l 3063 966 l 2945 624 q 2920 545 2928 571 q 2896 618 2915 561 l 2779 966 l 2681 966 l 2681 474 l 2744 474 l 2744 893 l 2886 474 l 2945 474 l 3088 886 l 3088 474 m 3592 496 q 3677 585 3647 526 q 3708 720 3708 644 q 3679 852 3708 793 q 3595 943 3651 909 q 3472 975 3540 975 q 3302 906 3368 975 q 3236 714 3236 838 q 3265 591 3236 648 q 3347 499 3293 532 q 3472 466 3402 466 q 3592 496 3538 466 m 480 1279 q 550 1309 480 1279 q 773 1339 620 1339 q 1066 1279 926 1339 q 1306 1119 1205 1219 q 1466 879 1407 1018 q 1526 586 1526 739 q 1466 293 1526 433 q 1306 54 1407 154 q 1066 -106 1205 -47 q 773 -166 926 -166 q 480 -106 620 -166 q 241 54 341 -47 q 81 293 140 154 q 21 586 21 433 q 81 879 21 739 q 241 1119 140 1018 q 480 1279 341 1219 m 516 -22 q 578 -48 516 -22 q 773 -75 639 -75 q 1030 -22 907 -75 q 1241 118 1152 30 q 1381 329 1329 207 q 1434 586 1434 452 q 1381 843 1434 720 q 1241 1054 1329 965 q 1030 1195 1152 1142 q 773 1247 907 1247 q 516 1195 639 1247 q 306 1054 394 1142 q 165 843 217 965 q 113 586 113 720 q 165 329 113 452 q 306 118 217 207 q 516 -22 394 30 m 688 330 q 647 159 654 234 q 650 108 645 140 q 657 57 655 75 q 650 17 659 39 q 625 -1 640 2 q 595 2 610 -5 q 568 20 581 9 q 544 43 555 30 q 527 105 528 66 q 539 195 526 144 q 571 300 552 245 q 622 421 591 355 q 682 544 653 486 q 748 669 711 602 q 813 783 786 736 q 872 886 840 830 q 918 967 905 943 q 946 1022 935 998 q 962 1064 958 1046 q 965 1091 967 1081 q 954 1102 963 1101 q 927 1096 944 1103 q 885 1068 911 1088 q 826 1020 859 1049 q 429 562 670 876 q 260 342 349 455 q 222 314 240 314 q 191 328 195 314 l 191 338 q 241 478 210 398 q 308 634 272 557 q 378 776 344 711 q 441 877 413 841 q 481 905 469 913 l 481 902 q 416 754 457 846 q 396 654 378 673 q 481 713 414 635 q 570 821 500 735 q 692 966 640 907 q 791 1070 744 1025 q 887 1146 843 1120 q 960 1176 930 1173 q 1008 1165 989 1179 q 1032 1123 1027 1152 q 1031 1055 1038 1095 q 1004 968 1024 1015 q 906 774 970 891 q 783 543 842 657 q 688 330 724 429 m 885 599 q 880 604 885 599 q 875 623 875 609 q 885 648 875 637 q 909 658 895 658 q 933 648 923 658 q 943 623 943 637 q 933 599 943 609 q 909 589 923 589 q 885 599 895 589 m 1200 463 q 1220 471 1208 471 q 1238 465 1232 471 q 1247 447 1246 458 q 1241 426 1249 437 l 1240 425 q 1152 345 1174 362 q 1095 309 1120 319 q 1069 304 1081 304 q 1046 313 1056 304 q 1035 343 1036 323 q 1038 379 1034 359 q 1042 393 1039 382 q 977 315 1004 334 q 935 304 960 303 q 913 309 922 304 q 899 327 901 315 l 898 328 l 898 328 l 898 334 l 898 334 q 899 336 899 335 q 783 323 831 301 l 783 323 q 765 345 771 329 q 762 374 761 355 q 781 441 764 401 q 836 543 802 494 q 879 562 854 571 q 892 545 890 557 q 886 520 895 532 q 833 418 846 459 q 828 391 827 399 l 829 387 l 829 387 q 888 408 853 384 q 945 473 927 436 q 1145 985 997 616 q 1181 1024 1158 1022 q 1200 1018 1192 1025 q 1209 1000 1206 1012 l 1210 999 q 1210 998 1210 998 l 1210 987 l 1210 985 q 1193 936 1208 978 q 1149 823 1174 884 q 1001 449 1058 590 q 1024 475 1020 471 q 1069 509 1049 500 q 1117 502 1098 519 l 1118 502 q 1127 477 1126 492 q 1125 447 1128 463 q 1106 383 1121 427 l 1106 382 q 1105 378 1105 380 q 1107 379 1105 378 q 1109 380 1108 380 q 1200 463 1144 408 m 758 226 q 770 217 766 222 q 773 204 773 213 q 769 191 773 197 q 758 181 765 184 q 740 178 749 178 q 720 181 729 178 q 707 192 713 184 q 702 208 702 199 l 713 209 q 717 197 715 200 q 726 191 720 193 q 740 188 731 188 q 751 190 746 188 q 759 195 757 192 q 762 203 762 199 q 760 210 762 208 q 751 216 758 213 q 745 217 751 216 q 735 220 740 219 q 718 226 722 224 q 709 234 711 229 q 705 245 705 239 q 709 258 705 252 q 721 267 713 263 q 737 269 727 269 q 754 267 748 269 q 766 257 762 263 q 770 243 770 251 l 759 242 q 753 255 758 251 q 737 259 747 259 q 722 255 727 259 q 717 245 717 251 q 720 238 717 241 q 739 231 724 235 q 758 226 751 229 m 796 258 l 796 268 l 867 268 l 867 258 l 838 258 l 838 179 l 825 179 l 825 258 l 796 258 m 951 216 l 951 268 l 963 268 l 963 216 q 960 195 963 204 q 949 182 957 187 q 928 178 941 178 q 907 182 916 178 q 897 194 900 186 q 893 216 893 203 l 893 268 l 905 268 l 905 216 q 907 199 905 205 q 914 191 909 195 q 927 188 920 188 q 945 194 940 188 q 951 216 951 201 m 1056 260 q 1067 245 1064 254 q 1070 224 1070 235 q 1067 206 1070 217 q 1061 193 1065 199 q 1053 185 1057 189 q 1043 180 1048 181 q 1029 179 1035 179 l 996 179 l 996 268 l 1027 268 q 1043 267 1036 268 q 1056 260 1052 264 m 1055 207 q 1058 224 1058 216 q 1053 245 1058 237 q 1042 256 1048 253 q 1027 258 1038 258 l 1008 258 l 1008 189 l 1027 189 q 1041 191 1036 189 q 1049 196 1046 193 q 1055 207 1053 200 m 1114 179 l 1102 179 l 1102 268 l 1114 268 l 1114 179 m 1210 264 q 1225 248 1219 258 q 1230 223 1230 237 q 1224 199 1230 213 q 1209 183 1219 188 q 1187 178 1198 178 q 1165 184 1175 178 q 1149 200 1154 190 q 1145 222 1145 210 q 1156 257 1145 245 q 1187 270 1169 270 q 1210 264 1200 270 m 1209 197 q 1218 224 1218 207 q 1214 242 1218 234 q 1203 255 1209 252 q 1187 260 1195 260 q 1166 251 1176 260 q 1157 222 1157 243 q 1166 197 1157 205 q 1187 188 1175 188 q 1209 197 1201 188 m 3977 481 l 4312 1 l 3642 1 l 3977 481 z "},"/":{"ha":4331,"x_min":21,"x_max":4312,"o":"m 1980 900 q 2042 844 2017 886 q 2067 726 2067 803 q 2054 631 2067 669 q 2018 568 2041 591 q 1974 543 2002 552 q 1898 534 1948 534 l 1792 534 l 1792 910 l 1896 910 q 1980 900 1954 910 m 2383 340 q 2404 315 2397 331 q 2412 277 2412 298 q 2395 225 2412 243 q 2351 206 2377 206 q 2308 224 2326 206 q 2291 275 2291 243 q 2309 332 2291 315 q 2351 349 2327 349 q 2383 340 2370 349 m 3560 896 q 3620 827 3600 871 q 3640 722 3640 782 q 3593 574 3640 626 q 3472 523 3545 523 q 3352 574 3400 523 q 3303 715 3303 626 q 3354 873 3303 825 q 3473 921 3403 921 q 3560 896 3520 921 m 1335 1173 l 4312 1173 l 3495 2 l 1335 2 q 1542 263 1468 109 q 1615 588 1615 418 q 1542 912 1615 758 q 1335 1173 1468 1066 m 2102 345 l 2102 366 l 1984 366 l 1984 189 l 2007 189 l 2007 269 l 2089 269 l 2089 290 l 2007 290 l 2007 345 l 2102 345 m 2121 625 q 2134 724 2134 668 q 2115 842 2134 791 q 2057 926 2096 893 q 1984 961 2028 951 q 1897 968 1952 968 l 1727 968 l 1727 475 l 1905 475 q 1984 484 1947 475 q 2043 509 2018 492 q 2087 553 2067 525 q 2121 625 2108 583 m 2424 229 q 2435 277 2435 250 q 2425 324 2435 304 q 2395 357 2414 346 q 2351 368 2376 368 q 2291 344 2314 368 q 2267 275 2267 319 q 2277 231 2267 252 q 2307 199 2287 211 q 2351 186 2326 186 q 2394 197 2375 186 q 2424 229 2414 209 m 2593 475 l 2593 534 l 2291 534 l 2291 701 l 2563 701 l 2563 759 l 2291 759 l 2291 910 l 2582 910 l 2582 968 l 2226 968 l 2226 475 l 2593 475 m 2721 189 l 2745 189 l 2745 366 l 2723 366 l 2723 227 l 2631 366 l 2607 366 l 2607 189 l 2629 189 l 2629 328 l 2721 189 m 3052 345 l 3052 366 l 2913 366 l 2913 345 l 2970 345 l 2970 189 l 2994 189 l 2994 345 l 3052 345 m 3151 475 l 3151 968 l 3063 968 l 2945 625 q 2920 547 2925 564 q 2896 619 2916 557 l 2779 968 l 2681 968 l 2681 475 l 2744 475 l 2744 895 l 2886 475 l 2945 475 l 3088 888 l 3088 475 l 3151 475 m 3472 467 q 3592 498 3537 467 q 3677 587 3647 528 q 3708 721 3708 646 q 3679 853 3708 795 q 3595 944 3651 911 q 3472 977 3540 977 q 3302 907 3368 977 q 3236 715 3236 839 q 3265 593 3236 651 q 3347 500 3294 533 q 3472 467 3402 467 m 480 1280 q 550 1310 480 1280 q 773 1340 620 1340 q 1066 1280 926 1340 q 1306 1120 1205 1221 q 1466 881 1407 1020 q 1526 588 1526 741 q 1466 295 1526 435 q 1306 55 1407 156 q 1066 -105 1205 -45 q 773 -165 926 -165 q 480 -105 620 -165 q 241 55 341 -45 q 81 295 140 156 q 21 588 21 435 q 81 881 21 741 q 241 1120 140 1020 q 480 1280 341 1221 m 516 -20 q 578 -46 516 -20 q 773 -73 639 -73 q 1030 -20 907 -73 q 1241 120 1152 32 q 1381 331 1329 209 q 1434 588 1434 454 q 1381 845 1434 722 q 1241 1056 1329 967 q 1030 1196 1152 1144 q 773 1249 907 1249 q 516 1196 639 1249 q 306 1056 394 1144 q 165 845 217 967 q 113 588 113 722 q 165 331 113 454 q 306 120 217 209 q 516 -20 394 32 m 688 332 q 647 161 654 237 q 650 109 645 142 q 657 59 655 77 q 650 18 659 41 q 625 0 640 3 q 595 4 610 -3 q 568 21 581 11 q 544 44 555 31 q 527 107 528 68 q 539 196 526 146 q 571 302 552 247 q 622 422 591 357 q 682 546 653 488 q 748 671 711 603 q 813 785 786 739 q 872 888 840 832 q 918 969 905 945 q 946 1024 935 1000 q 962 1066 958 1048 q 965 1093 967 1083 q 954 1104 963 1103 q 927 1098 944 1105 q 885 1070 911 1090 q 826 1022 859 1051 q 429 564 670 878 q 260 343 338 442 q 222 316 240 316 q 191 330 195 316 l 191 339 q 241 479 210 399 q 308 636 272 559 q 378 778 344 713 q 441 879 413 842 q 481 907 469 915 l 481 903 q 416 755 457 847 q 396 655 378 674 q 481 715 414 636 q 570 822 500 736 q 692 967 640 908 q 791 1072 744 1026 q 887 1148 843 1121 q 960 1178 930 1175 q 1008 1167 989 1181 q 1032 1125 1027 1154 q 1031 1057 1038 1097 q 1004 970 1024 1017 q 906 776 970 893 q 783 545 842 659 q 688 332 724 431 m 885 600 q 880 605 885 600 q 875 625 875 610 q 885 649 875 639 q 909 659 895 659 q 933 649 923 659 q 943 625 943 639 q 933 600 943 610 q 909 590 923 590 q 885 600 895 590 m 1200 464 q 1220 472 1208 472 q 1238 466 1231 473 q 1247 449 1246 459 q 1241 427 1249 438 l 1240 426 q 1152 346 1174 363 q 1095 311 1122 323 q 1069 305 1080 305 q 1046 315 1056 305 q 1035 345 1036 325 q 1038 380 1034 361 q 1041 388 1039 383 q 1042 394 1042 393 q 977 316 1005 336 q 935 306 960 304 q 913 311 922 306 q 899 328 901 316 l 898 329 q 898 330 898 330 l 898 335 l 898 336 q 899 338 899 337 q 783 324 831 302 l 783 325 q 765 347 771 331 q 762 375 761 357 q 781 442 764 400 q 836 545 805 499 q 856 563 844 558 q 879 563 868 567 q 892 547 890 558 q 887 522 895 533 q 833 419 847 460 q 828 392 827 399 l 829 388 q 888 410 853 385 q 945 474 927 437 q 1145 986 997 617 q 1181 1026 1158 1024 l 1182 1026 q 1200 1020 1192 1027 q 1209 1001 1206 1014 l 1210 1000 q 1210 999 1210 1000 l 1210 989 l 1210 987 q 1193 937 1208 979 q 1150 825 1160 851 q 1001 450 1092 676 q 1024 477 1020 473 q 1069 511 1050 503 q 1117 503 1098 522 l 1118 503 q 1127 479 1126 494 q 1125 449 1128 465 q 1106 385 1121 428 q 1105 379 1105 379 q 1109 382 1107 381 q 1200 464 1148 413 m 758 227 q 769 218 764 224 q 773 205 773 213 q 769 193 773 199 q 758 182 764 185 q 740 179 749 179 q 720 182 729 179 q 707 193 713 185 q 702 209 702 201 l 713 210 q 717 199 715 202 q 726 193 720 195 q 740 190 731 190 q 751 192 746 190 q 759 197 757 194 q 762 205 762 201 q 760 212 762 209 q 751 217 758 214 q 745 219 751 217 q 735 222 740 220 q 718 227 722 225 q 709 235 711 231 q 705 247 705 241 q 709 259 705 253 q 721 268 713 264 q 737 271 729 271 q 754 268 746 271 q 766 258 762 264 q 770 245 770 252 l 759 243 q 753 256 758 252 q 737 260 747 260 q 722 257 726 260 q 717 248 717 253 q 720 239 717 243 q 739 233 723 237 q 758 227 748 231 m 796 259 l 796 270 l 867 270 l 867 259 l 838 259 l 838 180 l 825 180 l 825 259 l 796 259 m 951 218 l 951 270 l 963 270 l 963 218 q 960 197 963 205 q 949 184 957 189 q 928 179 941 179 q 907 183 916 179 q 897 196 900 186 q 893 218 893 205 l 893 270 l 905 270 l 905 218 q 907 201 905 206 q 914 193 909 196 q 927 190 919 190 q 945 195 941 190 q 951 218 951 203 m 1056 262 q 1067 247 1064 255 q 1070 226 1070 237 q 1067 208 1070 218 q 1061 195 1065 200 q 1053 186 1057 190 q 1043 182 1049 183 q 1029 180 1031 180 l 996 180 l 996 270 l 1027 270 q 1043 269 1036 270 q 1056 262 1051 267 m 1055 209 q 1058 226 1058 218 q 1053 248 1058 241 q 1042 257 1050 253 q 1027 259 1038 259 l 1008 259 l 1008 191 l 1027 191 q 1041 193 1038 191 q 1049 197 1046 195 q 1055 209 1053 201 m 1114 180 l 1102 180 l 1102 270 l 1114 270 l 1114 180 m 1210 265 q 1225 249 1219 259 q 1230 225 1230 238 q 1224 201 1230 214 q 1209 184 1219 189 q 1187 179 1198 179 q 1165 185 1175 179 q 1149 201 1154 191 q 1145 224 1145 211 q 1156 258 1145 247 q 1187 271 1169 271 q 1210 265 1200 271 m 1209 199 q 1218 225 1218 209 q 1214 244 1218 236 q 1203 256 1210 252 q 1187 261 1195 261 q 1166 252 1176 261 q 1157 224 1157 244 q 1166 199 1157 208 q 1187 189 1174 189 q 1209 199 1201 189 m 3977 482 l 4312 2 l 3642 2 l 3977 482 z "},":":{"ha":4331,"x_min":21,"x_max":4312,"o":"m 1980 899 q 2042 843 2017 884 q 2067 724 2067 802 q 2054 629 2067 667 q 2018 567 2041 589 q 1974 541 2002 551 q 1898 532 1948 532 l 1792 532 l 1792 909 l 1896 909 q 1980 899 1954 909 m 2383 338 q 2404 313 2397 328 q 2412 276 2412 296 q 2395 223 2412 241 q 2351 205 2378 205 q 2308 223 2326 205 q 2291 273 2291 242 q 2309 330 2291 311 q 2351 347 2327 347 q 2383 338 2370 347 m 3560 895 q 3620 825 3600 870 q 3640 720 3640 780 q 3593 573 3640 625 q 3472 522 3545 522 q 3352 572 3399 522 q 3303 713 3303 624 q 3354 871 3303 823 q 3473 919 3403 919 q 3560 895 3522 919 m 1335 1172 l 4312 1172 l 3495 1 l 1335 1 q 1542 262 1468 108 q 1615 586 1615 416 q 1542 910 1615 756 q 1335 1172 1468 1065 m 2102 343 l 2102 363 l 1984 363 l 1984 188 l 2007 188 l 2007 268 l 2089 268 l 2089 288 l 2007 288 l 2007 343 l 2102 343 m 2121 623 q 2134 723 2134 666 q 2115 840 2134 790 q 2057 924 2096 892 q 1984 960 2028 949 q 1897 966 1955 966 l 1727 966 l 1727 474 l 1905 474 q 1984 482 1950 474 q 2043 507 2016 490 q 2087 552 2067 524 q 2121 623 2109 582 m 2424 228 q 2435 275 2435 249 q 2425 323 2435 302 q 2395 355 2414 345 q 2351 367 2376 367 q 2291 342 2315 367 q 2267 273 2267 317 q 2277 230 2267 250 q 2307 197 2288 209 q 2351 185 2325 185 q 2394 196 2375 185 q 2424 228 2414 208 m 2593 474 l 2593 532 l 2291 532 l 2291 700 l 2563 700 l 2563 758 l 2291 758 l 2291 909 l 2582 909 l 2582 966 l 2226 966 l 2226 474 l 2593 474 m 2721 188 l 2745 188 l 2745 363 l 2723 363 l 2723 226 l 2631 363 l 2607 363 l 2607 188 l 2629 188 l 2629 326 l 2721 188 m 3052 343 l 3052 363 l 2913 363 l 2913 343 l 2970 343 l 2970 188 l 2994 188 l 2994 343 l 3052 343 m 3151 474 l 3151 966 l 3063 966 l 2945 624 q 2920 545 2928 571 q 2896 618 2915 561 l 2779 966 l 2681 966 l 2681 474 l 2744 474 l 2744 893 l 2886 474 l 2945 474 l 3088 886 l 3088 474 l 3151 474 m 3592 496 q 3677 585 3647 526 q 3708 720 3708 644 q 3679 852 3708 793 q 3595 943 3651 909 q 3472 975 3540 975 q 3302 906 3368 975 q 3236 714 3236 838 q 3265 591 3236 648 q 3347 499 3293 532 q 3472 466 3402 466 q 3592 496 3538 466 m 480 1279 q 550 1309 480 1279 q 773 1339 620 1339 q 1066 1279 926 1339 q 1306 1119 1205 1219 q 1466 879 1407 1018 q 1526 586 1526 739 q 1466 293 1526 433 q 1306 54 1407 154 q 1066 -106 1205 -47 q 773 -166 926 -166 q 480 -106 620 -166 q 241 54 341 -47 q 81 293 140 154 q 21 586 21 433 q 81 879 21 739 q 241 1119 140 1018 q 480 1279 341 1219 m 516 -22 q 578 -48 516 -22 q 773 -75 639 -75 q 1030 -22 907 -75 q 1241 118 1152 30 q 1381 329 1329 207 q 1434 586 1434 452 q 1381 843 1434 720 q 1241 1054 1329 965 q 1030 1195 1152 1142 q 773 1247 907 1247 q 516 1195 639 1247 q 306 1054 394 1142 q 165 843 217 965 q 113 586 113 720 q 165 329 113 452 q 306 118 217 207 q 516 -22 394 30 m 688 330 q 647 159 654 234 q 650 108 645 140 q 657 57 655 75 q 650 17 659 39 q 625 -1 640 2 q 595 2 610 -5 q 568 20 581 9 q 544 43 555 30 q 527 105 528 66 q 539 195 526 144 q 571 300 552 245 q 622 421 591 355 q 682 544 653 486 q 748 669 711 602 q 813 783 786 736 q 872 886 840 830 q 918 967 905 943 q 946 1022 935 998 q 962 1064 958 1046 q 965 1091 967 1081 q 954 1102 963 1101 q 927 1096 944 1103 q 885 1068 911 1088 q 826 1020 859 1049 q 429 562 670 876 q 260 342 349 455 q 222 314 240 314 q 191 328 195 314 l 191 338 q 241 478 210 398 q 308 634 272 557 q 378 776 344 711 q 441 877 413 841 q 481 905 469 913 l 481 902 q 416 754 457 846 q 396 654 378 673 q 481 713 414 635 q 570 821 500 735 q 692 966 640 907 q 791 1070 744 1025 q 887 1146 843 1120 q 960 1176 930 1173 q 1008 1165 989 1179 q 1032 1123 1027 1152 q 1031 1055 1038 1095 q 1004 968 1024 1015 q 906 774 970 891 q 783 543 842 657 q 688 330 724 429 m 885 599 q 880 604 885 599 q 875 623 875 609 q 885 648 875 637 q 909 658 895 658 q 933 648 923 658 q 943 623 943 637 q 933 599 943 609 q 909 589 923 589 q 885 599 895 589 m 1200 463 q 1220 471 1208 471 q 1238 465 1232 471 q 1247 447 1246 458 q 1241 426 1249 437 l 1240 425 q 1152 345 1174 362 q 1095 309 1120 319 q 1069 304 1081 304 q 1046 313 1056 304 q 1035 343 1036 323 q 1038 379 1034 359 q 1042 393 1039 382 q 977 315 1004 334 q 935 304 960 303 q 913 309 922 304 q 899 327 901 315 l 898 328 l 898 328 l 898 334 l 898 334 q 899 336 899 335 q 783 323 831 301 l 783 323 q 765 345 771 329 q 762 374 761 355 q 781 441 764 401 q 836 543 802 494 q 879 562 854 571 q 892 545 890 557 q 886 520 895 532 q 833 418 846 459 q 828 391 827 399 l 829 387 l 829 387 q 888 408 853 384 q 945 473 927 436 q 1145 985 997 616 q 1181 1024 1158 1022 q 1200 1018 1192 1025 q 1209 1000 1206 1012 l 1210 999 q 1210 998 1210 998 l 1210 987 l 1210 985 q 1193 936 1208 978 q 1149 823 1174 884 q 1001 449 1058 590 q 1024 475 1020 471 q 1069 509 1049 500 q 1117 502 1098 519 l 1118 502 q 1127 477 1126 492 q 1125 447 1128 463 q 1106 383 1121 427 l 1106 382 q 1105 378 1105 380 q 1107 379 1105 378 q 1109 380 1108 380 q 1200 463 1144 408 m 758 226 q 769 217 764 222 q 773 204 773 212 q 769 191 773 197 q 758 181 764 184 q 740 178 749 178 q 720 181 729 178 q 707 192 713 184 q 702 208 702 199 l 713 209 q 717 197 715 200 q 726 191 720 193 q 740 188 731 188 q 751 190 746 188 q 759 195 757 192 q 762 203 762 199 q 760 210 762 208 q 751 216 758 213 q 745 217 751 216 q 735 220 740 219 q 718 226 722 224 q 709 234 711 229 q 705 245 705 239 q 709 258 705 252 q 721 267 713 263 q 737 269 727 269 q 754 267 748 269 q 766 257 762 263 q 770 243 770 251 l 759 242 q 753 255 758 251 q 737 259 747 259 q 722 255 727 259 q 717 245 717 251 q 720 238 717 241 q 738 231 724 234 q 758 226 753 228 m 796 258 l 796 268 l 867 268 l 867 258 l 838 258 l 838 179 l 825 179 l 825 258 l 796 258 m 951 216 l 951 268 l 963 268 l 963 216 q 960 195 963 204 q 949 182 957 187 q 928 178 941 178 q 907 182 916 178 q 897 194 900 186 q 893 216 893 203 l 893 268 l 905 268 l 905 216 q 907 199 905 205 q 914 191 909 195 q 927 188 920 188 q 945 194 940 188 q 951 216 951 201 m 1056 260 q 1067 245 1064 254 q 1070 224 1070 235 q 1067 206 1070 217 q 1061 193 1065 199 q 1053 185 1057 189 q 1043 180 1048 181 q 1029 179 1035 179 l 996 179 l 996 268 l 1027 268 q 1043 267 1036 268 q 1056 260 1052 264 m 1055 207 q 1058 224 1058 216 q 1053 245 1058 237 q 1042 256 1048 253 q 1027 258 1038 258 l 1008 258 l 1008 189 l 1027 189 q 1041 191 1036 189 q 1049 196 1046 193 q 1055 207 1053 200 m 1114 179 l 1102 179 l 1102 268 l 1114 268 l 1114 179 m 1210 264 q 1225 248 1219 258 q 1230 223 1230 238 q 1224 199 1230 212 q 1209 183 1219 188 q 1187 178 1198 178 q 1165 184 1175 178 q 1149 200 1154 190 q 1145 222 1145 210 q 1156 257 1145 245 q 1187 270 1169 270 q 1210 264 1200 270 m 1209 197 q 1218 224 1218 207 q 1214 242 1218 234 q 1203 255 1209 252 q 1187 260 1195 260 q 1166 251 1176 260 q 1157 222 1157 243 q 1166 197 1157 207 q 1187 188 1175 188 q 1209 197 1201 188 m 3977 481 l 4312 1 l 3642 1 l 3977 481 z "},";":{"ha":4331,"x_min":21,"x_max":4312,"o":"m 1980 899 q 2042 843 2017 884 q 2067 724 2067 802 q 2054 629 2067 667 q 2018 567 2041 589 q 1974 541 2002 551 q 1898 532 1948 532 l 1792 532 l 1792 909 l 1896 909 q 1980 899 1954 909 m 2383 338 q 2404 313 2397 328 q 2412 276 2412 296 q 2395 223 2412 241 q 2351 205 2378 205 q 2308 223 2326 205 q 2291 273 2291 242 q 2309 330 2291 311 q 2351 347 2327 347 q 2383 338 2370 347 m 3560 895 q 3620 825 3600 870 q 3640 720 3640 780 q 3593 573 3640 625 q 3472 522 3545 522 q 3352 572 3399 522 q 3303 713 3303 624 q 3354 871 3303 823 q 3473 919 3403 919 q 3560 895 3522 919 m 1335 1172 l 4312 1172 l 3495 1 l 1335 1 q 1542 262 1468 108 q 1615 586 1615 416 q 1542 910 1615 756 q 1335 1172 1468 1065 m 2102 343 l 2102 363 l 1984 363 l 1984 188 l 2007 188 l 2007 268 l 2089 268 l 2089 288 l 2007 288 l 2007 343 l 2102 343 m 2121 623 q 2134 723 2134 666 q 2115 840 2134 790 q 2057 924 2096 892 q 1984 960 2028 949 q 1897 966 1955 966 l 1727 966 l 1727 474 l 1905 474 q 1984 482 1950 474 q 2043 507 2016 490 q 2087 552 2067 524 q 2121 623 2109 582 m 2424 228 q 2435 275 2435 249 q 2425 323 2435 302 q 2395 355 2414 345 q 2351 367 2376 367 q 2291 342 2315 367 q 2267 273 2267 317 q 2277 230 2267 250 q 2307 197 2288 209 q 2351 185 2325 185 q 2394 196 2375 185 q 2424 228 2414 208 m 2226 474 l 2593 474 l 2593 532 l 2291 532 l 2291 700 l 2563 700 l 2563 758 l 2291 758 l 2291 909 l 2582 909 l 2582 966 l 2226 966 l 2226 474 m 2721 188 l 2745 188 l 2745 363 l 2723 363 l 2723 226 l 2631 363 l 2607 363 l 2607 188 l 2629 188 l 2629 326 l 2721 188 m 3052 343 l 3052 363 l 2913 363 l 2913 343 l 2970 343 l 2970 188 l 2994 188 l 2994 343 l 3052 343 m 3151 474 l 3151 966 l 3063 966 l 2945 624 q 2920 545 2928 571 q 2896 618 2915 561 l 2779 966 l 2681 966 l 2681 474 l 2744 474 l 2744 893 l 2886 474 l 2945 474 l 3088 886 l 3088 474 l 3151 474 m 3592 496 q 3677 585 3647 526 q 3708 720 3708 644 q 3679 852 3708 793 q 3595 943 3651 909 q 3472 975 3540 975 q 3302 906 3368 975 q 3236 714 3236 838 q 3265 591 3236 648 q 3347 499 3293 532 q 3472 466 3402 466 q 3592 496 3538 466 m 480 1279 q 550 1309 480 1279 q 773 1339 620 1339 q 1066 1279 926 1339 q 1306 1119 1205 1219 q 1466 879 1407 1018 q 1526 586 1526 739 q 1466 293 1526 433 q 1306 54 1407 154 q 1066 -106 1205 -47 q 773 -166 926 -166 q 480 -106 620 -166 q 241 54 341 -47 q 81 293 140 154 q 21 586 21 433 q 81 879 21 739 q 241 1119 140 1018 q 480 1279 341 1219 m 516 -22 q 578 -48 516 -22 q 773 -75 639 -75 q 1030 -22 907 -75 q 1241 118 1152 30 q 1381 329 1329 207 q 1434 586 1434 452 q 1381 843 1434 720 q 1241 1054 1329 965 q 1030 1195 1152 1142 q 773 1247 907 1247 q 516 1195 639 1247 q 306 1054 394 1142 q 165 843 217 965 q 113 586 113 720 q 165 329 113 452 q 306 118 217 207 q 516 -22 394 30 m 688 330 q 647 159 654 234 q 650 108 645 140 q 657 57 655 75 q 650 17 659 39 q 625 -1 640 2 q 595 2 610 -5 q 568 20 581 9 q 544 43 555 30 q 527 105 528 66 q 539 195 526 144 q 571 300 552 245 q 622 421 591 355 q 682 544 653 486 q 748 669 711 602 q 813 783 786 736 q 872 886 840 830 q 918 967 905 943 q 946 1022 935 998 q 962 1064 958 1046 q 965 1091 967 1081 q 954 1102 963 1101 q 927 1096 944 1103 q 885 1068 911 1088 q 826 1020 859 1049 q 429 562 670 876 q 260 342 349 455 q 222 314 240 314 q 191 328 195 314 l 191 338 q 241 478 210 398 q 308 634 272 557 q 378 776 344 711 q 441 877 413 841 q 481 905 469 913 l 481 902 q 416 754 457 846 q 396 654 378 673 q 481 713 414 635 q 570 821 500 735 q 692 966 640 907 q 791 1070 744 1025 q 887 1146 843 1120 q 960 1176 930 1173 q 1008 1165 989 1179 q 1032 1123 1027 1152 q 1031 1055 1038 1095 q 1004 968 1024 1015 q 906 774 970 891 q 783 543 842 657 q 688 330 724 429 m 885 599 q 880 604 885 599 q 875 623 875 609 q 885 648 875 637 q 909 658 895 658 q 933 648 923 658 q 943 623 943 637 q 933 599 943 609 q 909 589 923 589 q 885 599 895 589 m 1200 463 q 1220 471 1208 471 q 1238 465 1232 471 q 1247 447 1246 458 q 1241 426 1249 437 l 1240 425 q 1152 345 1174 362 q 1095 309 1120 319 q 1069 304 1081 304 q 1046 313 1056 304 q 1035 343 1036 323 q 1038 379 1034 359 q 1042 393 1039 382 q 977 315 1004 334 q 935 304 960 303 q 913 309 922 304 q 899 327 901 315 l 898 328 l 898 328 l 898 334 l 898 334 q 899 336 899 335 q 783 323 831 301 l 783 323 q 765 345 771 329 q 762 374 761 355 q 781 441 764 401 q 836 543 802 494 q 879 562 854 571 q 892 545 890 557 q 887 520 895 532 q 833 418 847 459 q 828 391 827 398 l 829 387 l 829 387 q 888 408 853 384 q 945 473 927 436 q 1145 985 997 616 q 1181 1024 1158 1022 q 1200 1018 1192 1025 q 1209 1000 1206 1012 l 1210 999 q 1210 998 1210 998 l 1210 987 l 1210 985 q 1193 936 1208 978 q 1149 823 1174 884 q 1001 449 1058 590 q 1024 475 1020 471 q 1069 509 1049 500 q 1117 502 1099 519 l 1118 502 q 1127 477 1126 492 q 1125 447 1128 463 q 1106 383 1121 427 l 1106 382 q 1105 378 1105 380 q 1107 379 1105 378 q 1109 380 1108 380 q 1200 463 1144 408 m 758 226 q 769 217 764 222 q 773 204 773 212 q 769 191 773 197 q 758 181 764 184 q 740 178 749 178 q 720 181 729 178 q 707 192 713 184 q 702 208 702 199 l 713 209 q 717 197 715 200 q 726 191 720 193 q 740 188 731 188 q 751 190 746 188 q 759 195 757 192 q 762 203 762 199 q 760 210 762 208 q 751 216 758 213 q 745 217 751 216 q 735 220 740 219 q 718 226 722 224 q 709 234 711 229 q 705 245 705 239 q 709 258 705 252 q 721 267 713 263 q 737 269 727 269 q 754 267 748 269 q 766 257 762 263 q 770 243 770 251 l 759 242 q 753 255 758 251 q 737 259 747 259 q 722 255 727 259 q 717 245 717 251 q 720 238 717 241 q 738 231 724 234 q 758 226 753 228 m 796 258 l 796 268 l 867 268 l 867 258 l 838 258 l 838 179 l 825 179 l 825 258 l 796 258 m 951 216 l 951 268 l 963 268 l 963 216 q 960 195 963 204 q 949 182 957 187 q 928 178 941 178 q 907 182 916 178 q 897 194 900 186 q 893 216 893 203 l 893 268 l 905 268 l 905 216 q 907 199 905 205 q 914 191 909 195 q 927 188 920 188 q 945 194 940 188 q 951 216 951 201 m 1056 260 q 1067 245 1064 254 q 1070 224 1070 235 q 1067 206 1070 217 q 1061 193 1065 199 q 1053 185 1057 189 q 1043 180 1048 181 q 1029 179 1035 179 l 996 179 l 996 268 l 1027 268 q 1043 267 1036 268 q 1056 260 1052 264 m 1055 207 q 1058 224 1058 216 q 1053 245 1058 239 q 1042 256 1048 253 q 1027 258 1038 258 l 1008 258 l 1008 189 l 1027 189 q 1041 191 1036 189 q 1049 196 1046 193 q 1055 207 1053 200 m 1114 179 l 1102 179 l 1102 268 l 1114 268 l 1114 179 m 1210 264 q 1225 248 1219 258 q 1230 223 1230 238 q 1224 199 1230 212 q 1209 183 1219 188 q 1187 178 1198 178 q 1165 184 1175 178 q 1149 200 1154 190 q 1145 222 1145 210 q 1156 257 1145 245 q 1187 270 1169 270 q 1210 264 1200 270 m 1209 197 q 1218 224 1218 207 q 1214 242 1218 234 q 1203 255 1209 252 q 1187 260 1195 260 q 1166 251 1176 260 q 1157 222 1157 243 q 1166 197 1157 205 q 1187 188 1175 188 q 1209 197 1201 188 m 3977 481 l 4312 1 l 3642 1 l 3977 481 z "},"<":{"ha":4331,"x_min":21,"x_max":4312,"o":"m 1980 900 q 2042 844 2017 886 q 2067 726 2067 803 q 2054 631 2067 669 q 2018 568 2041 591 q 1974 543 2002 552 q 1898 534 1948 534 l 1792 534 l 1792 910 l 1896 910 q 1980 900 1954 910 m 2383 340 q 2404 315 2397 331 q 2412 277 2412 298 q 2395 225 2412 243 q 2351 206 2377 206 q 2308 224 2326 206 q 2291 275 2291 243 q 2309 332 2291 315 q 2351 349 2327 349 q 2383 340 2370 349 m 3560 896 q 3620 827 3600 871 q 3640 722 3640 782 q 3593 574 3640 626 q 3472 523 3545 523 q 3352 574 3400 523 q 3303 715 3303 626 q 3354 873 3303 825 q 3473 921 3403 921 q 3560 896 3520 921 m 1335 1173 l 4312 1173 l 3495 2 l 1335 2 q 1542 263 1468 109 q 1615 588 1615 418 q 1542 912 1615 758 q 1335 1173 1468 1066 m 2102 345 l 2102 366 l 1984 366 l 1984 189 l 2007 189 l 2007 269 l 2089 269 l 2089 290 l 2007 290 l 2007 345 l 2102 345 m 2121 625 q 2134 724 2134 668 q 2115 842 2134 791 q 2057 926 2096 893 q 1984 961 2028 951 q 1897 968 1952 968 l 1727 968 l 1727 475 l 1905 475 q 1984 484 1947 475 q 2043 509 2018 492 q 2087 553 2067 525 q 2121 625 2108 583 m 2424 229 q 2435 277 2435 250 q 2425 324 2435 304 q 2395 357 2414 346 q 2351 368 2376 368 q 2291 344 2314 368 q 2267 275 2267 319 q 2277 231 2267 252 q 2307 199 2287 211 q 2351 186 2326 186 q 2394 197 2375 186 q 2424 229 2414 209 m 2593 475 l 2593 534 l 2291 534 l 2291 701 l 2563 701 l 2563 759 l 2291 759 l 2291 910 l 2582 910 l 2582 968 l 2226 968 l 2226 475 l 2593 475 m 2721 189 l 2745 189 l 2745 366 l 2723 366 l 2723 227 l 2631 366 l 2607 366 l 2607 189 l 2629 189 l 2629 328 l 2721 189 m 3052 345 l 3052 366 l 2913 366 l 2913 345 l 2970 345 l 2970 189 l 2994 189 l 2994 345 l 3052 345 m 3088 475 l 3151 475 l 3151 968 l 3063 968 l 2945 625 q 2920 547 2925 564 q 2896 619 2916 557 l 2779 968 l 2681 968 l 2681 475 l 2744 475 l 2744 895 l 2886 475 l 2945 475 l 3088 888 l 3088 475 m 3472 467 q 3592 498 3537 467 q 3677 587 3647 528 q 3708 721 3708 646 q 3679 853 3708 795 q 3595 944 3651 911 q 3472 977 3540 977 q 3302 907 3368 977 q 3236 715 3236 839 q 3265 593 3236 651 q 3347 500 3294 533 q 3472 467 3402 467 m 480 1280 q 550 1310 480 1280 q 773 1340 620 1340 q 1066 1280 926 1340 q 1306 1120 1205 1221 q 1466 881 1407 1020 q 1526 588 1526 741 q 1466 295 1526 435 q 1306 55 1407 156 q 1066 -105 1205 -45 q 773 -165 926 -165 q 480 -105 620 -165 q 241 55 341 -45 q 81 295 140 156 q 21 588 21 435 q 81 881 21 741 q 241 1120 140 1020 q 480 1280 341 1221 m 516 -20 q 578 -46 516 -20 q 773 -73 639 -73 q 1030 -20 907 -73 q 1241 120 1152 32 q 1381 331 1329 209 q 1434 588 1434 454 q 1381 845 1434 722 q 1241 1056 1329 967 q 1030 1196 1152 1144 q 773 1249 907 1249 q 516 1196 639 1249 q 306 1056 394 1144 q 165 845 217 967 q 113 588 113 722 q 165 331 113 454 q 306 120 217 209 q 516 -20 394 32 m 688 332 q 647 161 654 237 q 650 109 645 142 q 657 59 655 77 q 650 18 659 41 q 625 0 640 3 q 595 4 610 -3 q 568 21 581 11 q 544 44 555 31 q 527 107 528 68 q 539 196 526 146 q 571 302 552 247 q 622 422 591 357 q 682 546 653 488 q 748 671 711 603 q 813 785 786 739 q 872 888 840 832 q 918 969 905 945 q 946 1024 935 1000 q 962 1066 958 1048 q 965 1093 967 1083 q 954 1104 963 1103 q 927 1098 944 1105 q 885 1070 911 1090 q 826 1022 859 1051 q 429 564 670 878 q 260 343 338 442 q 222 316 240 316 q 191 330 195 316 l 191 339 q 241 479 210 399 q 308 636 272 559 q 378 778 344 713 q 441 879 413 842 q 481 907 469 915 l 481 903 q 416 755 457 847 q 396 655 378 674 q 481 715 414 636 q 570 822 500 736 q 692 967 640 908 q 791 1072 744 1026 q 887 1148 843 1121 q 960 1178 930 1175 q 1008 1167 989 1181 q 1032 1125 1027 1154 q 1031 1057 1038 1097 q 1004 970 1024 1017 q 906 776 970 893 q 783 545 842 659 q 688 332 724 431 m 885 600 q 880 605 885 600 q 875 625 875 610 q 885 649 875 639 q 909 659 895 659 q 933 649 923 659 q 943 625 943 639 q 933 600 943 610 q 909 590 923 590 q 885 600 895 590 m 1200 464 q 1220 472 1208 472 q 1238 466 1232 473 q 1247 449 1246 459 q 1241 427 1249 438 l 1240 426 q 1152 346 1174 363 q 1095 311 1122 323 q 1069 305 1080 305 q 1046 315 1056 305 q 1035 345 1036 325 q 1038 380 1034 361 q 1042 394 1039 384 q 977 316 1004 335 q 935 306 960 304 q 913 311 922 306 q 899 328 901 316 l 898 329 q 898 330 898 330 l 898 335 l 898 336 q 899 338 899 337 q 783 324 831 302 l 783 325 q 765 347 771 331 q 762 375 761 357 q 781 442 764 402 q 836 545 803 497 q 856 563 844 558 q 879 563 868 567 q 892 547 890 558 q 886 522 895 534 q 833 419 846 460 q 828 392 827 401 l 829 388 l 829 388 q 888 410 853 385 q 945 474 927 437 q 1145 986 997 617 q 1181 1026 1158 1024 q 1200 1020 1192 1027 q 1209 1001 1206 1014 l 1210 1000 q 1210 999 1210 1000 l 1210 989 l 1210 988 q 1209 987 1209 987 q 1193 937 1207 976 q 1149 825 1174 886 q 1001 450 1058 591 q 1024 477 1020 473 q 1069 511 1050 503 q 1117 503 1097 522 l 1118 503 q 1127 479 1126 494 q 1125 449 1128 465 q 1106 385 1121 428 q 1105 379 1105 379 q 1109 382 1107 381 q 1200 464 1148 413 m 758 227 q 769 218 764 224 q 773 205 773 213 q 769 193 773 199 q 758 182 764 185 q 740 179 749 179 q 720 182 729 179 q 707 193 713 185 q 702 209 702 201 l 713 210 q 717 199 715 202 q 726 193 720 195 q 740 190 731 190 q 751 192 746 190 q 759 197 757 194 q 762 205 762 201 q 760 212 762 209 q 751 217 758 214 q 745 219 751 217 q 735 222 740 220 q 718 227 722 225 q 709 235 711 231 q 705 247 705 241 q 709 259 705 253 q 721 268 713 264 q 737 271 729 271 q 754 268 746 271 q 766 258 762 264 q 770 245 770 252 l 759 243 q 753 256 758 252 q 737 260 747 260 q 722 257 726 260 q 717 248 717 253 q 720 239 717 243 q 738 233 723 237 q 758 227 749 231 m 796 259 l 796 270 l 867 270 l 867 259 l 838 259 l 838 180 l 825 180 l 825 259 l 796 259 m 951 218 l 951 270 l 963 270 l 963 218 q 960 197 963 205 q 949 184 957 189 q 928 179 941 179 q 907 183 916 179 q 897 196 900 186 q 893 218 893 205 l 893 270 l 905 270 l 905 218 q 907 201 905 206 q 914 193 909 196 q 927 190 919 190 q 945 195 941 190 q 951 218 951 202 m 1056 262 q 1066 247 1063 256 q 1070 226 1070 235 q 1067 208 1070 218 q 1061 195 1065 200 q 1053 186 1057 190 q 1043 182 1049 183 q 1028 180 1031 180 l 996 180 l 996 270 l 1027 270 q 1043 269 1036 270 q 1056 262 1051 267 m 1055 209 q 1058 226 1058 218 q 1053 248 1058 239 q 1042 257 1048 254 q 1027 259 1038 259 l 1008 259 l 1008 191 l 1027 191 q 1041 193 1038 191 q 1049 197 1046 195 q 1055 209 1053 201 m 1114 180 l 1102 180 l 1102 270 l 1114 270 l 1114 180 m 1210 265 q 1225 249 1219 259 q 1230 225 1230 239 q 1224 201 1230 213 q 1209 184 1219 189 q 1187 179 1198 179 q 1165 185 1175 179 q 1149 201 1154 191 q 1145 224 1145 211 q 1156 258 1145 247 q 1187 271 1169 271 q 1210 265 1200 271 m 1209 199 q 1218 225 1218 209 q 1214 244 1218 236 q 1203 256 1210 252 q 1187 261 1195 261 q 1166 252 1176 261 q 1157 224 1157 244 q 1166 199 1157 208 q 1187 189 1175 189 q 1209 199 1201 189 m 3977 482 l 4312 2 l 3642 2 l 3977 482 z "},"=":{"ha":4331,"x_min":21,"x_max":4312,"o":"m 1980 900 q 2042 844 2017 886 q 2067 726 2067 803 q 2054 631 2067 669 q 2018 568 2041 591 q 1974 543 2002 552 q 1898 534 1948 534 l 1792 534 l 1792 910 l 1896 910 q 1980 900 1954 910 m 2383 340 q 2404 315 2397 331 q 2412 277 2412 298 q 2395 225 2412 243 q 2351 206 2377 206 q 2308 224 2326 206 q 2291 275 2291 243 q 2309 332 2291 313 q 2351 349 2327 349 q 2383 340 2370 349 m 3560 896 q 3620 827 3600 871 q 3640 722 3640 782 q 3593 574 3640 626 q 3472 523 3545 523 q 3352 574 3400 523 q 3303 715 3303 626 q 3354 873 3303 825 q 3473 921 3403 921 q 3560 896 3520 921 m 1335 1173 l 4312 1173 l 3495 2 l 1335 2 q 1542 263 1468 109 q 1615 588 1615 418 q 1542 912 1615 758 q 1335 1173 1468 1066 m 2102 345 l 2102 366 l 1984 366 l 1984 189 l 2007 189 l 2007 269 l 2089 269 l 2089 290 l 2007 290 l 2007 345 l 2102 345 m 2121 625 q 2134 724 2134 668 q 2115 842 2134 791 q 2057 926 2096 893 q 1984 961 2028 951 q 1897 968 1952 968 l 1727 968 l 1727 475 l 1905 475 q 1984 484 1947 475 q 2043 509 2018 492 q 2087 553 2067 525 q 2121 625 2108 583 m 2424 229 q 2435 277 2435 250 q 2425 324 2435 304 q 2395 357 2414 346 q 2351 368 2376 368 q 2291 344 2314 368 q 2267 275 2267 319 q 2277 231 2267 252 q 2307 199 2287 211 q 2351 186 2326 186 q 2394 197 2375 186 q 2424 229 2414 209 m 2593 475 l 2593 534 l 2291 534 l 2291 701 l 2563 701 l 2563 759 l 2291 759 l 2291 910 l 2582 910 l 2582 968 l 2226 968 l 2226 475 l 2593 475 m 2745 189 l 2745 366 l 2723 366 l 2723 227 l 2631 366 l 2607 366 l 2607 189 l 2629 189 l 2629 328 l 2721 189 l 2745 189 m 3052 345 l 3052 366 l 2913 366 l 2913 345 l 2970 345 l 2970 189 l 2994 189 l 2994 345 l 3052 345 m 3088 475 l 3151 475 l 3151 968 l 3063 968 l 2945 625 q 2920 547 2925 564 q 2896 619 2916 557 l 2779 968 l 2681 968 l 2681 475 l 2744 475 l 2744 895 l 2886 475 l 2945 475 l 3088 888 l 3088 475 m 3472 467 q 3592 498 3537 467 q 3677 587 3647 528 q 3708 721 3708 646 q 3679 853 3708 795 q 3595 944 3651 911 q 3472 977 3540 977 q 3302 907 3368 977 q 3236 715 3236 839 q 3265 593 3236 651 q 3347 500 3294 533 q 3472 467 3402 467 m 480 1280 q 550 1310 480 1280 q 773 1340 620 1340 q 1066 1280 926 1340 q 1306 1120 1205 1221 q 1466 881 1407 1020 q 1526 588 1526 741 q 1466 295 1526 435 q 1306 55 1407 156 q 1066 -105 1205 -45 q 773 -165 926 -165 q 480 -105 620 -165 q 241 55 341 -45 q 81 295 140 156 q 21 588 21 435 q 81 881 21 741 q 241 1120 140 1020 q 480 1280 341 1221 m 516 -20 q 578 -46 516 -20 q 773 -73 639 -73 q 1030 -20 907 -73 q 1241 120 1152 32 q 1381 331 1329 209 q 1434 588 1434 454 q 1381 845 1434 722 q 1241 1056 1329 967 q 1030 1196 1152 1144 q 773 1249 907 1249 q 516 1196 639 1249 q 306 1056 394 1144 q 165 845 217 967 q 113 588 113 722 q 165 331 113 454 q 306 120 217 209 q 516 -20 394 32 m 688 332 q 647 161 654 237 q 650 109 645 142 q 657 59 655 77 q 650 18 659 41 q 625 0 640 3 q 595 4 610 -3 q 568 21 581 11 q 544 44 555 31 q 527 107 528 68 q 539 196 526 146 q 571 302 552 247 q 622 422 591 357 q 682 546 653 488 q 748 671 711 603 q 813 785 786 739 q 872 888 840 832 q 918 969 905 945 q 946 1024 935 1000 q 962 1066 958 1048 q 965 1093 967 1083 q 954 1104 963 1103 q 927 1098 944 1105 q 885 1070 911 1090 q 826 1022 859 1051 q 429 564 670 878 q 260 343 338 442 q 222 316 240 316 q 191 330 195 316 l 191 339 q 241 479 210 399 q 308 636 272 559 q 378 778 344 713 q 441 879 413 842 q 481 907 469 915 l 481 903 q 416 755 457 847 q 396 655 378 674 q 481 715 414 636 q 570 822 500 736 q 692 967 640 908 q 791 1072 744 1026 q 887 1148 843 1121 q 960 1178 930 1175 q 1008 1167 989 1181 q 1032 1125 1027 1154 q 1031 1057 1038 1097 q 1004 970 1024 1017 q 906 776 970 893 q 783 545 842 659 q 688 332 724 431 m 885 600 q 880 605 885 600 q 875 625 875 610 q 885 649 875 639 q 909 659 895 659 q 933 649 923 659 q 943 625 943 639 q 933 600 943 610 q 909 590 923 590 q 885 600 895 590 m 1200 464 q 1220 472 1208 472 q 1238 466 1232 473 q 1247 449 1246 459 q 1241 427 1249 438 l 1240 426 q 1152 346 1174 363 q 1095 311 1122 323 q 1069 305 1080 305 q 1046 315 1056 305 q 1035 345 1036 325 q 1038 380 1034 361 q 1042 394 1039 384 q 977 316 1004 335 q 935 306 960 304 q 913 311 922 306 q 899 328 901 316 l 898 329 q 898 330 898 330 l 898 335 l 898 336 q 899 338 899 337 q 783 324 831 302 l 783 325 q 765 347 771 331 q 762 375 761 357 q 781 442 764 402 q 836 545 803 497 q 856 563 844 558 q 879 563 868 567 q 892 547 890 558 q 887 522 895 533 q 833 419 846 458 q 828 392 827 401 l 829 388 l 829 388 q 888 410 853 385 q 945 474 927 437 q 1145 986 997 617 q 1181 1026 1158 1024 q 1200 1020 1192 1027 q 1209 1001 1206 1014 l 1210 1000 q 1210 999 1210 1000 l 1210 989 l 1210 988 q 1209 987 1209 987 q 1193 937 1207 976 q 1149 825 1174 886 q 1001 450 1058 591 q 1024 477 1020 473 q 1069 511 1051 504 q 1117 503 1098 522 l 1118 503 q 1127 479 1126 494 q 1125 449 1128 465 q 1106 385 1121 428 q 1105 379 1105 379 q 1109 382 1107 381 q 1200 464 1148 413 m 758 227 q 770 218 766 224 q 773 205 773 214 q 769 193 773 199 q 758 182 764 185 q 740 179 749 179 q 720 182 729 179 q 707 193 713 185 q 703 209 703 200 l 713 210 q 717 199 715 202 q 726 193 720 195 q 740 190 731 190 q 751 192 746 190 q 759 197 757 194 q 762 205 762 201 q 760 212 762 209 q 751 217 758 214 q 745 219 751 217 q 735 222 740 220 q 718 227 722 225 q 709 235 711 231 q 705 247 705 241 q 709 259 705 253 q 721 268 713 264 q 737 271 729 271 q 754 268 746 271 q 766 258 762 264 q 770 245 770 252 l 759 243 q 753 256 758 252 q 737 260 747 260 q 722 257 726 260 q 717 248 717 253 q 720 239 717 243 q 738 233 723 237 q 758 227 749 231 m 796 259 l 796 270 l 867 270 l 867 259 l 838 259 l 838 180 l 825 180 l 825 259 l 796 259 m 951 218 l 951 270 l 963 270 l 963 218 q 960 197 963 205 q 949 184 957 189 q 928 179 941 179 q 907 183 916 179 q 897 196 900 186 q 893 218 893 205 l 893 270 l 905 270 l 905 218 q 907 201 905 206 q 914 193 909 196 q 927 190 919 190 q 945 195 941 190 q 951 218 951 203 m 1056 262 q 1067 247 1064 255 q 1070 226 1070 237 q 1067 208 1070 218 q 1061 195 1065 200 q 1053 186 1057 190 q 1043 182 1049 183 q 1029 180 1031 180 l 996 180 l 996 270 l 1027 270 q 1043 269 1036 270 q 1056 262 1051 267 m 1055 209 q 1058 226 1058 218 q 1053 248 1058 239 q 1042 257 1048 254 q 1027 259 1038 259 l 1008 259 l 1008 191 l 1027 191 q 1041 193 1038 191 q 1049 197 1046 195 q 1055 209 1053 201 m 1114 180 l 1102 180 l 1102 270 l 1114 270 l 1114 180 m 1210 265 q 1225 249 1219 259 q 1230 225 1230 238 q 1224 201 1230 214 q 1209 184 1219 189 q 1187 179 1198 179 q 1165 185 1175 179 q 1149 201 1154 191 q 1145 224 1145 211 q 1156 258 1145 247 q 1187 271 1169 271 q 1210 265 1200 271 m 1209 199 q 1218 225 1218 209 q 1214 244 1218 236 q 1203 256 1210 252 q 1187 261 1195 261 q 1166 252 1176 261 q 1157 224 1157 244 q 1166 199 1157 209 q 1187 189 1175 189 q 1209 199 1201 189 m 3977 482 l 4312 2 l 3642 2 l 3977 482 z "}}}
